<?xml version="1.0" encoding="UTF-8" standalone="no"?>
<!-- Created with Inkscape (http://www.inkscape.org/) -->

<svg
   xmlns:dc="http://purl.org/dc/elements/1.1/"
   xmlns:cc="http://creativecommons.org/ns#"
   xmlns:rdf="http://www.w3.org/1999/02/22-rdf-syntax-ns#"
   xmlns:svg="http://www.w3.org/2000/svg"
   xmlns="http://www.w3.org/2000/svg"
   xmlns:sodipodi="http://sodipodi.sourceforge.net/DTD/sodipodi-0.dtd"
   xmlns:inkscape="http://www.inkscape.org/namespaces/inkscape"
   width="360.05804"
   height="365.37744"
   id="svg2992"
   version="1.1"
   inkscape:version="0.47 r22583"
   sodipodi:docname="button_info.svg"
   inkscape:export-filename="/export/home/s12/childressme/Desktop/button_previous level.png"
   inkscape:export-xdpi="90"
   inkscape:export-ydpi="90">
  <defs
     id="defs2994">
    <inkscape:perspective
       sodipodi:type="inkscape:persp3d"
       inkscape:vp_x="0 : 526.18109 : 1"
       inkscape:vp_y="0 : 1000 : 0"
       inkscape:vp_z="744.09448 : 526.18109 : 1"
       inkscape:persp3d-origin="372.04724 : 350.78739 : 1"
       id="perspective3000" />
    <inkscape:perspective
       id="perspective3010"
       inkscape:persp3d-origin="0.5 : 0.33333333 : 1"
       inkscape:vp_z="1 : 0.5 : 1"
       inkscape:vp_y="0 : 1000 : 0"
       inkscape:vp_x="0 : 0.5 : 1"
       sodipodi:type="inkscape:persp3d" />
    <inkscape:perspective
       id="perspective3074"
       inkscape:persp3d-origin="0.5 : 0.33333333 : 1"
       inkscape:vp_z="1 : 0.5 : 1"
       inkscape:vp_y="0 : 1000 : 0"
       inkscape:vp_x="0 : 0.5 : 1"
       sodipodi:type="inkscape:persp3d" />
    <inkscape:perspective
       id="perspective3138"
       inkscape:persp3d-origin="0.5 : 0.33333333 : 1"
       inkscape:vp_z="1 : 0.5 : 1"
       inkscape:vp_y="0 : 1000 : 0"
       inkscape:vp_x="0 : 0.5 : 1"
       sodipodi:type="inkscape:persp3d" />
    <inkscape:perspective
       id="perspective3284"
       inkscape:persp3d-origin="0.5 : 0.33333333 : 1"
       inkscape:vp_z="1 : 0.5 : 1"
       inkscape:vp_y="0 : 1000 : 0"
       inkscape:vp_x="0 : 0.5 : 1"
       sodipodi:type="inkscape:persp3d" />
    <inkscape:perspective
       id="perspective3356"
       inkscape:persp3d-origin="0.5 : 0.33333333 : 1"
       inkscape:vp_z="1 : 0.5 : 1"
       inkscape:vp_y="0 : 1000 : 0"
       inkscape:vp_x="0 : 0.5 : 1"
       sodipodi:type="inkscape:persp3d" />
    <inkscape:perspective
       id="perspective3442"
       inkscape:persp3d-origin="0.5 : 0.33333333 : 1"
       inkscape:vp_z="1 : 0.5 : 1"
       inkscape:vp_y="0 : 1000 : 0"
       inkscape:vp_x="0 : 0.5 : 1"
       sodipodi:type="inkscape:persp3d" />
    <inkscape:perspective
       id="perspective4591"
       inkscape:persp3d-origin="0.5 : 0.33333333 : 1"
       inkscape:vp_z="1 : 0.5 : 1"
       inkscape:vp_y="0 : 1000 : 0"
       inkscape:vp_x="0 : 0.5 : 1"
       sodipodi:type="inkscape:persp3d" />
    <inkscape:perspective
       id="perspective4621"
       inkscape:persp3d-origin="0.5 : 0.33333333 : 1"
       inkscape:vp_z="1 : 0.5 : 1"
       inkscape:vp_y="0 : 1000 : 0"
       inkscape:vp_x="0 : 0.5 : 1"
       sodipodi:type="inkscape:persp3d" />
  </defs>
  <sodipodi:namedview
     id="base"
     pagecolor="#ffffff"
     bordercolor="#666666"
     borderopacity="1.0"
     inkscape:pageopacity="0.0"
     inkscape:pageshadow="2"
     inkscape:zoom="0.35"
     inkscape:cx="154.66772"
     inkscape:cy="116.9737"
     inkscape:document-units="px"
     inkscape:current-layer="layer1"
     showgrid="false"
     inkscape:window-width="635"
     inkscape:window-height="722"
     inkscape:window-x="927"
     inkscape:window-y="24"
     inkscape:window-maximized="0" />
  <metadata
     id="metadata2997">
    <rdf:RDF>
      <cc:Work
         rdf:about="">
        <dc:format>image/svg+xml</dc:format>
        <dc:type
           rdf:resource="http://purl.org/dc/dcmitype/StillImage" />
        <dc:title />
      </cc:Work>
    </rdf:RDF>
  </metadata>
  <g
     inkscape:label="Layer 1"
     inkscape:groupmode="layer"
     id="layer1"
     transform="translate(-220.33228,-283.95846)">
    <g
       transform="matrix(16.224359,0,0,16.224359,-3447.5783,-15265.884)"
       id="g4605">
      <path
         transform="matrix(0.07983502,0.06777172,-0.06678506,0.08101448,263.6353,912.5793)"
         d="m 258.49058,577.83386 c 0,58.87565 -47.72814,106.60378 -106.60378,106.60378 -58.875648,0 -106.603788,-47.72813 -106.603788,-106.60378 0,-58.87564 47.72814,-106.60378 106.603788,-106.60378 58.87564,0 106.60378,47.72814 106.60378,106.60378 z"
         sodipodi:ry="106.60378"
         sodipodi:rx="106.60378"
         sodipodi:cy="577.83386"
         sodipodi:cx="151.8868"
         id="path7980-7-9"
         style="fill:#1b1d1e;fill-opacity:1;stroke:none"
         sodipodi:type="arc" />
      <path
         transform="matrix(0.05794391,0,0,0.05879995,214.02391,947.07696)"
         d="m 574.28571,384.50504 c 0,96.64983 -78.35017,175 -175,175 -96.64984,0 -175,-78.35017 -175,-175 0,-96.64984 78.35016,-175 175,-175 96.64983,0 175,78.35016 175,175 z"
         sodipodi:ry="175"
         sodipodi:rx="175"
         sodipodi:cy="384.50504"
         sodipodi:cx="399.28571"
         id="path6247-5-8-9"
         style="fill:#34586d;fill-opacity:1;stroke:none"
         sodipodi:type="arc" />
      <path
         sodipodi:nodetypes="ccccc"
         id="path4739-5"
         d="m 241.40818,964.32209 c 1.34302,1.03199 4.77235,1.67009 1.88447,-1.44588 -5.62372,-4.72581 -11.18658,-1.16312 -12.88467,1.27476 -1.30665,1.62024 -2.57448,4.34959 -0.75498,1.93877 0.79014,-0.99159 4.92512,-6.49836 11.75518,-1.76765 z"
         style="fill:#f5f5f6;fill-opacity:1;stroke:none" />
      <path
         sodipodi:nodetypes="cccc"
         id="path4741-2"
         d="m 227.14486,971.4104 c 3.54775,6.30779 13.79514,10.20637 20.15077,-1.74493 -0.0481,4.24839 -2.81287,8.95148 -7.9952,10.2495 -8.23126,0.9404 -11.38398,-4.60949 -12.15557,-8.50457 z"
         style="fill:#1e333f;fill-opacity:1;stroke:none" />
      <path
         sodipodi:nodetypes="czzzccccczzzccccc"
         id="path3639"
         d="m 233.44357,969.39168 c 0.0438,-0.89574 0.81545,-1.48164 1.86659,-1.78754 1.05114,-0.30589 2.05214,-0.46136 2.76956,-0.13709 0.71742,0.32427 1.04222,0.79369 0.7809,1.77953 -0.26131,0.98581 -0.65342,2.26486 -0.92643,3.23052 -0.37496,0.9774 -0.74579,2.05076 -0.31339,2.06871 0.66477,0.18389 0.85374,0.0625 1.40156,-0.33444 1.04593,-0.73662 1.32058,-0.53646 1.42852,-0.13181 0.0351,0.58845 -0.77605,0.885 -1.14003,1.35986 -0.63063,0.58989 -1.2509,0.93368 -2.10365,1.04713 -0.85276,0.11343 -1.58206,-0.13831 -2.06632,-0.62917 -0.48426,-0.49086 -0.58988,-0.75447 -0.61164,-1.41236 -0.0217,-0.6579 0.44407,-1.70673 0.6707,-2.48402 l 0.64573,-1.94705 c 0.38296,-0.92795 -0.4538,-0.90999 -0.58913,-0.80716 l -0.76139,0.71874 c -0.49252,0.15439 -1.02982,-0.0179 -1.05158,-0.53385 z"
         style="fill:#a0c4d8;fill-opacity:1;stroke:#15262a;stroke-width:0.58221722;stroke-miterlimit:4;stroke-opacity:1;stroke-dasharray:none" />
      <path
         sodipodi:nodetypes="czzzzc"
         id="path4415"
         d="m 235.73736,963.57096 c 0.46858,-0.64054 1.86587,-0.60427 2.38776,-0.19254 0.5219,0.41173 0.53284,1.42825 0.43957,1.89772 -0.0932,0.46946 -0.4811,0.72106 -0.85046,0.88065 -0.36936,0.1596 -1.21034,0.22353 -1.69999,-0.2557 -0.48965,-0.47925 -0.80227,-1.27689 -0.27688,-2.33013 z"
         style="fill:#a0c4d8;fill-opacity:1;stroke:#15262a;stroke-width:0.61854416;stroke-miterlimit:4;stroke-opacity:1;stroke-dasharray:none" />
    </g>
  </g>
</svg>
