<?xml version="1.0" encoding="UTF-8" standalone="no"?>
<!-- Created with Inkscape (http://www.inkscape.org/) -->

<svg
   xmlns:dc="http://purl.org/dc/elements/1.1/"
   xmlns:cc="http://creativecommons.org/ns#"
   xmlns:rdf="http://www.w3.org/1999/02/22-rdf-syntax-ns#"
   xmlns:svg="http://www.w3.org/2000/svg"
   xmlns="http://www.w3.org/2000/svg"
   xmlns:sodipodi="http://sodipodi.sourceforge.net/DTD/sodipodi-0.dtd"
   xmlns:inkscape="http://www.inkscape.org/namespaces/inkscape"
   width="433.26227"
   height="439.66315"
   id="svg2992"
   version="1.1"
   inkscape:version="0.47 r22583"
   sodipodi:docname="button_hint.svg"
   inkscape:export-filename="/export/home/s12/childressme/Desktop/button_previous level.png"
   inkscape:export-xdpi="90"
   inkscape:export-ydpi="90">
  <defs
     id="defs2994">
    <inkscape:perspective
       sodipodi:type="inkscape:persp3d"
       inkscape:vp_x="0 : 526.18109 : 1"
       inkscape:vp_y="0 : 1000 : 0"
       inkscape:vp_z="744.09448 : 526.18109 : 1"
       inkscape:persp3d-origin="372.04724 : 350.78739 : 1"
       id="perspective3000" />
    <inkscape:perspective
       id="perspective3010"
       inkscape:persp3d-origin="0.5 : 0.33333333 : 1"
       inkscape:vp_z="1 : 0.5 : 1"
       inkscape:vp_y="0 : 1000 : 0"
       inkscape:vp_x="0 : 0.5 : 1"
       sodipodi:type="inkscape:persp3d" />
    <inkscape:perspective
       id="perspective3074"
       inkscape:persp3d-origin="0.5 : 0.33333333 : 1"
       inkscape:vp_z="1 : 0.5 : 1"
       inkscape:vp_y="0 : 1000 : 0"
       inkscape:vp_x="0 : 0.5 : 1"
       sodipodi:type="inkscape:persp3d" />
    <inkscape:perspective
       id="perspective3138"
       inkscape:persp3d-origin="0.5 : 0.33333333 : 1"
       inkscape:vp_z="1 : 0.5 : 1"
       inkscape:vp_y="0 : 1000 : 0"
       inkscape:vp_x="0 : 0.5 : 1"
       sodipodi:type="inkscape:persp3d" />
    <inkscape:perspective
       id="perspective3284"
       inkscape:persp3d-origin="0.5 : 0.33333333 : 1"
       inkscape:vp_z="1 : 0.5 : 1"
       inkscape:vp_y="0 : 1000 : 0"
       inkscape:vp_x="0 : 0.5 : 1"
       sodipodi:type="inkscape:persp3d" />
    <inkscape:perspective
       id="perspective3356"
       inkscape:persp3d-origin="0.5 : 0.33333333 : 1"
       inkscape:vp_z="1 : 0.5 : 1"
       inkscape:vp_y="0 : 1000 : 0"
       inkscape:vp_x="0 : 0.5 : 1"
       sodipodi:type="inkscape:persp3d" />
    <inkscape:perspective
       id="perspective3442"
       inkscape:persp3d-origin="0.5 : 0.33333333 : 1"
       inkscape:vp_z="1 : 0.5 : 1"
       inkscape:vp_y="0 : 1000 : 0"
       inkscape:vp_x="0 : 0.5 : 1"
       sodipodi:type="inkscape:persp3d" />
    <inkscape:perspective
       id="perspective4591"
       inkscape:persp3d-origin="0.5 : 0.33333333 : 1"
       inkscape:vp_z="1 : 0.5 : 1"
       inkscape:vp_y="0 : 1000 : 0"
       inkscape:vp_x="0 : 0.5 : 1"
       sodipodi:type="inkscape:persp3d" />
    <inkscape:perspective
       id="perspective4621"
       inkscape:persp3d-origin="0.5 : 0.33333333 : 1"
       inkscape:vp_z="1 : 0.5 : 1"
       inkscape:vp_y="0 : 1000 : 0"
       inkscape:vp_x="0 : 0.5 : 1"
       sodipodi:type="inkscape:persp3d" />
    <inkscape:perspective
       id="perspective4692"
       inkscape:persp3d-origin="0.5 : 0.33333333 : 1"
       inkscape:vp_z="1 : 0.5 : 1"
       inkscape:vp_y="0 : 1000 : 0"
       inkscape:vp_x="0 : 0.5 : 1"
       sodipodi:type="inkscape:persp3d" />
    <inkscape:perspective
       id="perspective4903"
       inkscape:persp3d-origin="0.5 : 0.33333333 : 1"
       inkscape:vp_z="1 : 0.5 : 1"
       inkscape:vp_y="0 : 1000 : 0"
       inkscape:vp_x="0 : 0.5 : 1"
       sodipodi:type="inkscape:persp3d" />
  </defs>
  <sodipodi:namedview
     id="base"
     pagecolor="#ffffff"
     bordercolor="#666666"
     borderopacity="1.0"
     inkscape:pageopacity="0.0"
     inkscape:pageshadow="2"
     inkscape:zoom="0.35"
     inkscape:cx="183.23908"
     inkscape:cy="162.68929"
     inkscape:document-units="px"
     inkscape:current-layer="layer1"
     showgrid="false"
     inkscape:window-width="635"
     inkscape:window-height="722"
     inkscape:window-x="927"
     inkscape:window-y="24"
     inkscape:window-maximized="0" />
  <metadata
     id="metadata2997">
    <rdf:RDF>
      <cc:Work
         rdf:about="">
        <dc:format>image/svg+xml</dc:format>
        <dc:type
           rdf:resource="http://purl.org/dc/dcmitype/StillImage" />
        <dc:title />
      </cc:Work>
    </rdf:RDF>
  </metadata>
  <g
     inkscape:label="Layer 1"
     inkscape:groupmode="layer"
     id="layer1"
     transform="translate(-191.76092,-255.38831)">
    <g
       transform="matrix(19.522971,0,0,19.522971,-4825.4476,-18460.921)"
       id="g4885">
      <g
         transform="translate(31.736782,42.361078)"
         id="g4224-3-4">
        <path
           sodipodi:type="arc"
           style="fill:#1b1d1e;fill-opacity:1;stroke:none"
           id="path7980-7-9-9"
           sodipodi:cx="151.8868"
           sodipodi:cy="577.83386"
           sodipodi:rx="106.60378"
           sodipodi:ry="106.60378"
           d="m 258.49058,577.83386 c 0,58.87565 -47.72814,106.60378 -106.60378,106.60378 -58.875648,0 -106.603788,-47.72813 -106.603788,-106.60378 0,-58.87564 47.72814,-106.60378 106.603788,-106.60378 58.87564,0 106.60378,47.72814 106.60378,106.60378 z"
           transform="matrix(0.07983502,0.06777172,-0.06678506,0.08101448,262.81423,870.47394)" />
        <path
           sodipodi:type="arc"
           style="fill:#34586d;fill-opacity:1;stroke:none"
           id="path6247-5-8-9-0"
           sodipodi:cx="399.28571"
           sodipodi:cy="384.50504"
           sodipodi:rx="175"
           sodipodi:ry="175"
           d="m 574.28571,384.50504 c 0,96.64983 -78.35017,175 -175,175 -96.64984,0 -175,-78.35017 -175,-175 0,-96.64984 78.35016,-175 175,-175 96.64983,0 175,78.35016 175,175 z"
           transform="matrix(0.05794391,0,0,0.05879995,213.20284,904.9716)" />
        <path
           style="fill:#f5f5f6;fill-opacity:1;stroke:none"
           d="m 396.29301,319.37821 c 3.97941,3.01333 14.14067,4.87652 5.58376,-4.22182 -16.66329,-13.79888 -33.14625,-3.39618 -38.17776,3.72218 -3.87167,4.73094 -7.6283,12.70036 -2.23704,5.66103 2.34122,-2.89536 14.59333,-18.97457 34.83104,-5.16139 z"
           id="path4739-5-5"
           sodipodi:nodetypes="ccccc"
           transform="matrix(0.33749144,0,0,0.34247742,106.84161,812.8369)" />
        <path
           style="fill:#1e333f;fill-opacity:1;stroke:none"
           d="m 354.03026,340.07537 c 10.51212,18.41814 40.87551,29.8016 59.7075,-5.09501 -0.14261,12.40487 -8.33466,26.13744 -23.6901,29.92752 -24.38953,2.74589 -33.73116,-13.45926 -36.0174,-24.83251 z"
           id="path4741-2-1"
           sodipodi:nodetypes="cccc"
           transform="matrix(0.33749144,0,0,0.34247742,106.84161,812.8369)" />
      </g>
      <g
         transform="matrix(0.90738381,-0.12526973,0.11812547,0.8556348,-90.211153,173.4327)"
         id="g4881">
        <path
           style="fill:#d01d28;fill-opacity:1;stroke:#000000;stroke-width:0.466252;stroke-linecap:butt;stroke-linejoin:miter;stroke-miterlimit:4;stroke-opacity:1;stroke-dasharray:none"
           d="m 264.70945,969.30225 c 0.58783,0.0317 1.17837,-0.17925 1.30133,-0.7348 0.12301,-0.55555 -0.47426,-0.99702 -0.18776,-1.47179 0.28651,-0.47478 1.01896,-0.61617 1.93916,-0.68565 0.92021,-0.0695 0.52905,-0.0261 1.44677,0.67729 0.68969,0.81214 0.78913,2.01341 0.0743,2.67943 -0.53792,0.50266 -0.55008,0.58231 -1.4418,0.65246 -0.89173,0.0701 -1.49884,-0.0258 -1.71051,0.76504 -0.21171,0.7908 -0.31595,1.50373 -0.34361,1.89651 -0.0279,0.39277 -0.0967,0.53829 0.38308,0.76488 0.47975,0.22659 0.79136,0.14636 0.79136,0.14636 0,0 0.73755,9.9e-4 0.89388,-0.21221 0.15633,-0.21327 0.0395,-0.75044 0.0829,-1.05212 0.0435,-0.30166 0.18967,-0.61296 1.09013,-0.51225 1.09115,0.17542 2.33103,-0.30667 3.16979,-0.85633 0.57356,-0.40121 1.00378,-0.85508 1.16658,-1.55376 0.1628,-0.69869 0.18992,-1.28263 0.10798,-2.02274 -0.0819,-0.7401 -0.50386,-1.45584 -0.93926,-1.79314 -0.43539,-0.33728 -1.61585,-1.07441 -2.62603,-1.29281 -1.00549,-0.21737 -2.21731,-0.38843 -3.21633,-0.20105 -0.99903,0.18736 -2.16888,0.76891 -2.8103,1.49714 -0.64142,0.72824 -0.9699,2.01953 -0.5244,2.63464 0.4455,0.61511 0.76494,0.64321 1.35276,0.67492 z"
           id="path4559"
           sodipodi:nodetypes="czzzcczzzzczzcczzzzzzzz" />
        <path
           style="fill:#d01d28;fill-opacity:1;stroke:#000000;stroke-width:0.45561221;stroke-linecap:butt;stroke-linejoin:miter;stroke-miterlimit:4;stroke-opacity:1;stroke-dasharray:none"
           d="m 265.3804,976.78442 c 0.32213,0.56647 1.60996,0.58184 2.15406,0.44777 0.5441,-0.13407 0.97123,-0.58461 1.05239,-0.89659 0.0812,-0.31199 0.0546,-0.92497 -0.52963,-1.26582 -0.58423,-0.34084 -1.85232,-0.35614 -2.17211,-0.10672 -0.31978,0.24942 -0.82684,1.25486 -0.50471,1.82133 z"
           id="path4561"
           sodipodi:nodetypes="czzzzz" />
      </g>
    </g>
  </g>
</svg>
