<?xml version="1.0" encoding="UTF-8" standalone="no"?>
<!-- Created with Inkscape (http://www.inkscape.org/) -->

<svg
   xmlns:dc="http://purl.org/dc/elements/1.1/"
   xmlns:cc="http://creativecommons.org/ns#"
   xmlns:rdf="http://www.w3.org/1999/02/22-rdf-syntax-ns#"
   xmlns:svg="http://www.w3.org/2000/svg"
   xmlns="http://www.w3.org/2000/svg"
   xmlns:sodipodi="http://sodipodi.sourceforge.net/DTD/sodipodi-0.dtd"
   xmlns:inkscape="http://www.inkscape.org/namespaces/inkscape"
   width="415.28406"
   height="418.58502"
   id="svg2992"
   version="1.1"
   inkscape:version="0.47 r22583"
   sodipodi:docname="button_next.svg"
   inkscape:export-filename="/export/home/s12/childressme/Desktop/button_previous level.png"
   inkscape:export-xdpi="90"
   inkscape:export-ydpi="90">
  <defs
     id="defs2994">
    <inkscape:perspective
       sodipodi:type="inkscape:persp3d"
       inkscape:vp_x="0 : 526.18109 : 1"
       inkscape:vp_y="0 : 1000 : 0"
       inkscape:vp_z="744.09448 : 526.18109 : 1"
       inkscape:persp3d-origin="372.04724 : 350.78739 : 1"
       id="perspective3000" />
    <inkscape:perspective
       id="perspective3010"
       inkscape:persp3d-origin="0.5 : 0.33333333 : 1"
       inkscape:vp_z="1 : 0.5 : 1"
       inkscape:vp_y="0 : 1000 : 0"
       inkscape:vp_x="0 : 0.5 : 1"
       sodipodi:type="inkscape:persp3d" />
    <inkscape:perspective
       id="perspective3074"
       inkscape:persp3d-origin="0.5 : 0.33333333 : 1"
       inkscape:vp_z="1 : 0.5 : 1"
       inkscape:vp_y="0 : 1000 : 0"
       inkscape:vp_x="0 : 0.5 : 1"
       sodipodi:type="inkscape:persp3d" />
    <inkscape:perspective
       id="perspective3138"
       inkscape:persp3d-origin="0.5 : 0.33333333 : 1"
       inkscape:vp_z="1 : 0.5 : 1"
       inkscape:vp_y="0 : 1000 : 0"
       inkscape:vp_x="0 : 0.5 : 1"
       sodipodi:type="inkscape:persp3d" />
    <inkscape:perspective
       id="perspective3284"
       inkscape:persp3d-origin="0.5 : 0.33333333 : 1"
       inkscape:vp_z="1 : 0.5 : 1"
       inkscape:vp_y="0 : 1000 : 0"
       inkscape:vp_x="0 : 0.5 : 1"
       sodipodi:type="inkscape:persp3d" />
    <inkscape:perspective
       id="perspective3356"
       inkscape:persp3d-origin="0.5 : 0.33333333 : 1"
       inkscape:vp_z="1 : 0.5 : 1"
       inkscape:vp_y="0 : 1000 : 0"
       inkscape:vp_x="0 : 0.5 : 1"
       sodipodi:type="inkscape:persp3d" />
    <inkscape:perspective
       id="perspective3442"
       inkscape:persp3d-origin="0.5 : 0.33333333 : 1"
       inkscape:vp_z="1 : 0.5 : 1"
       inkscape:vp_y="0 : 1000 : 0"
       inkscape:vp_x="0 : 0.5 : 1"
       sodipodi:type="inkscape:persp3d" />
  </defs>
  <sodipodi:namedview
     id="base"
     pagecolor="#ffffff"
     bordercolor="#666666"
     borderopacity="1.0"
     inkscape:pageopacity="0.0"
     inkscape:pageshadow="2"
     inkscape:zoom="0.35"
     inkscape:cx="202.8583"
     inkscape:cy="187.91892"
     inkscape:document-units="px"
     inkscape:current-layer="layer1"
     showgrid="false"
     inkscape:window-width="635"
     inkscape:window-height="722"
     inkscape:window-x="927"
     inkscape:window-y="24"
     inkscape:window-maximized="0" />
  <metadata
     id="metadata2997">
    <rdf:RDF>
      <cc:Work
         rdf:about="">
        <dc:format>image/svg+xml</dc:format>
        <dc:type
           rdf:resource="http://purl.org/dc/dcmitype/StillImage" />
        <dc:title />
      </cc:Work>
    </rdf:RDF>
  </metadata>
  <g
     inkscape:label="Layer 1"
     inkscape:groupmode="layer"
     id="layer1"
     transform="translate(-172.1417,-301.69608)">
    <g
       transform="matrix(26.423428,0,0,26.423428,-6202.986,-23217.569)"
       id="g3427">
      <g
         transform="translate(33.055766,-0.26410687)"
         id="g3895">
        <rect
           style="fill:#34586d;fill-opacity:1;stroke:#040505;stroke-width:0.48986334;stroke-miterlimit:4;stroke-opacity:1;stroke-dasharray:none"
           id="rect4852-7-0"
           width="15.226646"
           height="15.351572"
           x="208.45717"
           y="890.6004"
           ry="2.1173816"
           rx="1.9041165" />
        <path
           style="fill:#e0e0e0;fill-opacity:1;stroke:none"
           d="m 222.34302,892.12727 c -0.24478,-0.19111 -0.60598,-0.28949 -1.13051,-0.3809 -1.12494,-0.29648 -7.4813,-0.39495 -10.41261,-0.0552 -0.49147,0.0324 -0.67011,-0.205 -1.0152,0.54275 -0.36973,1.47564 -0.0973,2.18043 0.25397,1.67903 0.33141,-0.47002 0.38999,-0.64875 0.7292,-0.96148 0.51877,-0.75514 7.59742,-0.82889 10.50027,-0.61972 0.61932,0.0973 0.86362,0.12753 1.16334,0.37106 0.19615,0.23395 0.27874,0.56585 0.34403,1.17015 0.0215,-1.09994 -0.19696,-1.55745 -0.43249,-1.74565 z"
           id="path4854-6-4"
           sodipodi:nodetypes="cccccccccc" />
        <path
           style="fill:#1b1d1e;fill-opacity:1;stroke:none"
           d="m 210.02555,902.8982 c 0.14924,0.17344 0.16932,0.5006 0.51059,0.71367 4.16732,0.63979 7.71632,0.73441 11.63822,0.54042 0.41046,0.0444 0.51253,-1.20615 0.58983,-2.15851 0.0257,0.32621 0.006,0.94838 -0.005,1.36689 -0.0264,0.72018 -0.0252,0.94629 -0.1757,1.13515 -0.20556,0.33587 -0.10674,0.32447 -0.65467,0.41323 l -11.70088,0.0373 c -0.46914,-0.19118 -0.57115,-0.34217 -0.85565,-1.04742 -0.11813,-0.49624 -0.14451,-0.73369 -0.14297,-1.57569 -0.009,-0.56227 0.0658,-1.08251 0.21063,-1.0343 0.27927,0.35885 0.23645,1.00514 0.58546,1.60926 z"
           id="path4856-2-9"
           sodipodi:nodetypes="cccccccccccc" />
      </g>
      <path
         sodipodi:nodetypes="ccccccccccc"
         id="path3777"
         d="m 243.61395,895.47806 0.21782,5.30612 5.17217,-0.85862 -0.4372,2.8661 c 0.0368,1.61255 5.67741,-3.5376 6.79574,-5.03094 -1.82335,-2.0054 -6.87772,-5.6592 -7.09954,-4.77008 l 0.8302,3.16133 -5.47942,-0.67393 2.1e-4,0 2e-5,0 0,2e-5 z"
         style="fill:#e2c63e;fill-opacity:1;stroke:#040505;stroke-width:0.352;stroke-linecap:butt;stroke-linejoin:miter;stroke-miterlimit:4;stroke-opacity:1;stroke-dasharray:none" />
    </g>
  </g>
</svg>
