<?xml version="1.0" encoding="UTF-8" standalone="no"?>
<!-- Created with Inkscape (http://www.inkscape.org/) -->

<svg
   xmlns:dc="http://purl.org/dc/elements/1.1/"
   xmlns:cc="http://creativecommons.org/ns#"
   xmlns:rdf="http://www.w3.org/1999/02/22-rdf-syntax-ns#"
   xmlns:svg="http://www.w3.org/2000/svg"
   xmlns="http://www.w3.org/2000/svg"
   xmlns:sodipodi="http://sodipodi.sourceforge.net/DTD/sodipodi-0.dtd"
   xmlns:inkscape="http://www.inkscape.org/namespaces/inkscape"
   width="80"
   height="80"
   id="svg3234"
   version="1.1"
   inkscape:version="0.47 r22583"
   sodipodi:docname="candy02.svg">
  <defs
     id="defs3236">
    <inkscape:perspective
       sodipodi:type="inkscape:persp3d"
       inkscape:vp_x="0 : 526.18109 : 1"
       inkscape:vp_y="0 : 1000 : 0"
       inkscape:vp_z="744.09448 : 526.18109 : 1"
       inkscape:persp3d-origin="372.04724 : 350.78739 : 1"
       id="perspective3242" />
    <inkscape:perspective
       id="perspective3252"
       inkscape:persp3d-origin="0.5 : 0.33333333 : 1"
       inkscape:vp_z="1 : 0.5 : 1"
       inkscape:vp_y="0 : 1000 : 0"
       inkscape:vp_x="0 : 0.5 : 1"
       sodipodi:type="inkscape:persp3d" />
    <inkscape:perspective
       id="perspective3403"
       inkscape:persp3d-origin="0.5 : 0.33333333 : 1"
       inkscape:vp_z="1 : 0.5 : 1"
       inkscape:vp_y="0 : 1000 : 0"
       inkscape:vp_x="0 : 0.5 : 1"
       sodipodi:type="inkscape:persp3d" />
    <inkscape:perspective
       id="perspective3551"
       inkscape:persp3d-origin="0.5 : 0.33333333 : 1"
       inkscape:vp_z="1 : 0.5 : 1"
       inkscape:vp_y="0 : 1000 : 0"
       inkscape:vp_x="0 : 0.5 : 1"
       sodipodi:type="inkscape:persp3d" />
    <inkscape:perspective
       id="perspective3699"
       inkscape:persp3d-origin="0.5 : 0.33333333 : 1"
       inkscape:vp_z="1 : 0.5 : 1"
       inkscape:vp_y="0 : 1000 : 0"
       inkscape:vp_x="0 : 0.5 : 1"
       sodipodi:type="inkscape:persp3d" />
    <inkscape:perspective
       id="perspective3926"
       inkscape:persp3d-origin="0.5 : 0.33333333 : 1"
       inkscape:vp_z="1 : 0.5 : 1"
       inkscape:vp_y="0 : 1000 : 0"
       inkscape:vp_x="0 : 0.5 : 1"
       sodipodi:type="inkscape:persp3d" />
    <inkscape:perspective
       id="perspective4023"
       inkscape:persp3d-origin="0.5 : 0.33333333 : 1"
       inkscape:vp_z="1 : 0.5 : 1"
       inkscape:vp_y="0 : 1000 : 0"
       inkscape:vp_x="0 : 0.5 : 1"
       sodipodi:type="inkscape:persp3d" />
    <filter
       color-interpolation-filters="sRGB"
       inkscape:collect="always"
       id="filter8243"
       x="-0.13402689"
       width="1.2680538"
       y="-0.13335031"
       height="1.2667006">
      <feGaussianBlur
         inkscape:collect="always"
         stdDeviation="3.1857208"
         id="feGaussianBlur8245" />
    </filter>
    <clipPath
       clipPathUnits="userSpaceOnUse"
       id="clipPath3450">
      <rect
         style="fill:#000000;fill-opacity:1;stroke:none"
         id="rect3452"
         width="80"
         height="80"
         x="347.64572"
         y="154.03191" />
    </clipPath>
  </defs>
  <sodipodi:namedview
     id="base"
     pagecolor="#ffffff"
     bordercolor="#666666"
     borderopacity="1.0"
     inkscape:pageopacity="0.0"
     inkscape:pageshadow="2"
     inkscape:zoom="2.8"
     inkscape:cx="71.292285"
     inkscape:cy="68.371943"
     inkscape:document-units="px"
     inkscape:current-layer="layer1"
     showgrid="false"
     inkscape:window-width="652"
     inkscape:window-height="881"
     inkscape:window-x="539"
     inkscape:window-y="170"
     inkscape:window-maximized="0"
     showborder="true"
     inkscape:showpageshadow="true" />
  <metadata
     id="metadata3239">
    <rdf:RDF>
      <cc:Work
         rdf:about="">
        <dc:format>image/svg+xml</dc:format>
        <dc:type
           rdf:resource="http://purl.org/dc/dcmitype/StillImage" />
        <dc:title />
      </cc:Work>
    </rdf:RDF>
  </metadata>
  <g
     inkscape:label="Layer 1"
     inkscape:groupmode="layer"
     id="layer1"
     transform="translate(-180.3482,-863.59126)">
    <g
       transform="translate(-167.29752,709.55934)"
       id="g8619"
       clip-path="url(#clipPath3450)">
      <g
         style="opacity:0.66108787;fill:#060606;fill-opacity:1;filter:url(#filter8243)"
         id="g4464-6-5"
         transform="translate(0.19198383,114.0281)">
        <path
           style="fill:#060606;fill-opacity:1;stroke:#000000;stroke-width:1.25961256;stroke-linecap:butt;stroke-linejoin:miter;stroke-miterlimit:4;stroke-opacity:1;stroke-dasharray:none"
           d="m 417.1045,54.392609 c 2.038,13.8353 1.61289,15.54627 2.98067,24.27356 l 0.68233,33.062111 c -1.05536,-3.68751 -1.92997,-3.70512 -2.49068,-7.18604 L 417.1045,54.392609 z"
           id="path3678-2-7"
           sodipodi:nodetypes="ccccc" />
        <path
           style="fill:#060606;fill-opacity:1;stroke:#000000;stroke-width:1.24357927;stroke-linecap:butt;stroke-linejoin:miter;stroke-miterlimit:4;stroke-opacity:1;stroke-dasharray:none"
           d="m 417.93345,54.846183 0.98808,49.520337 c -25.67731,-1.03669 -30.13874,-0.98002 -55.20027,0.2187 2.31464,-21.342111 1.368,-30.238225 1.84569,-49.487538 18.72637,1.102624 29.4627,0.96973 52.3665,-0.251499 z"
           id="path3676-9-6"
           sodipodi:nodetypes="ccccc" />
        <path
           style="fill:#060606;fill-opacity:1;stroke:none"
           d="m 371.37368,94.735717 c -0.49529,-1.939347 -0.98279,-4.657773 -1.07294,-7.178291 -0.51087,-0.407461 -1.21642,-1.514303 -1.7859,-1.953701 -0.56704,7.24053 -0.54894,7.642987 -0.79345,10.957586 -0.29318,4.638259 1.53816,4.968309 5.10828,4.382499 6.49574,-0.72118 7.90227,-0.9125 12.45145,-0.994195 -1.55146,-0.947489 -1.67382,-1.158703 -3.39712,-2.624093 -7.46523,-0.679813 -8.85957,0.01387 -9.15514,-0.649736 -0.71029,0.04556 -1.10252,-1.205021 -1.35518,-1.940069 z"
           id="path11480-7-2"
           sodipodi:nodetypes="ccccccccc" />
        <path
           style="fill:#060606;fill-opacity:1;stroke:none"
           d="m 397.45753,59.190482 c 6.68429,1.877066 10.35303,2.821961 12.93946,6.221159 1.85334,6.085214 2.01966,7.625798 3.73728,16.653613 1.22146,1.062612 1.97815,3.334878 3.60109,4.875952 0.21349,-8.110669 -0.28097,-16.221345 -0.56169,-24.332019 0.34449,-1.182211 0.57439,-8.805578 -0.99266,-7.031197 -4.75963,0.32832 -0.52412,-0.433504 -9.74138,0.411383 -1.37482,0.05475 -13.49486,0.356026 -16.56898,0.827639 l 7.58688,2.37347 z"
           id="path11482-0-4"
           sodipodi:nodetypes="ccccccccc" />
        <path
           style="fill:#060606;fill-opacity:1;stroke:#000000;stroke-width:1.33906066;stroke-linecap:butt;stroke-linejoin:miter;stroke-miterlimit:4;stroke-opacity:1;stroke-dasharray:none"
           d="m 418.10824,104.73099 c -20.96505,-2.16864 -32.36662,-0.95193 -53.75328,0.5755 1.21385,1.49438 2.71041,1.73897 5.01284,6.09263 18.49816,-1.49668 34.12022,-0.607 50.97117,0.0887 l -1.32918,-6.72993 -0.90155,0.0679 0,-0.0948 z"
           id="path3680-3-2"
           sodipodi:nodetypes="ccccccc" />
        <path
           style="fill:#060606;fill-opacity:1;stroke:none"
           d="m 417.54908,105.44098 0.3349,5.31362 -9.24914,-0.77206 -4.24345,-2.86085 -24.58313,-1.39619 c 11.63646,-1.82895 26.54498,-1.91082 36.23959,-0.33644 l 1.50123,0.0519 0,2e-5 z"
           id="path11484-7-5"
           sodipodi:nodetypes="cccccccc" />
        <path
           style="fill:#060606;fill-opacity:1;stroke:none"
           d="m 407.97807,105.35685 c 5.73374,0.35436 3.375,0.0959 6.68385,0.73721 1.20359,0.34069 2.26163,1.54778 2.28904,2.11219 0.16856,0.60077 0.15324,-2.08189 0.13895,1.40081 l -1.31097,-0.32286 c -0.14346,-1.09925 -0.18528,-1.04364 -1.12346,-1.37996 -0.38597,-0.22151 -1.22164,-0.93437 -2.76469,-1.25692 -1.86182,-0.58826 -3.61759,-0.14912 -6.14581,-0.78217 l -1.39526,-0.72881 1.16556,0.0958 2.46278,0.12482 z"
           id="path11528-23-5"
           sodipodi:nodetypes="ccccccccccc" />
      </g>
      <g
         id="g4473">
        <path
           style="fill:#254753;fill-opacity:1;stroke:#000000;stroke-width:1.25961256;stroke-linecap:butt;stroke-linejoin:miter;stroke-miterlimit:4;stroke-opacity:1;stroke-dasharray:none"
           d="m 412.90153,165.71255 c 2.038,13.8353 1.61289,15.54627 2.98067,24.27356 l 0.68233,33.06211 c -1.05536,-3.68751 -1.92997,-3.70512 -2.49068,-7.18604 l -1.17232,-50.14963 z"
           id="path3678-1"
           sodipodi:nodetypes="ccccc" />
        <path
           style="fill:#b2dcea;fill-opacity:1;stroke:#000000;stroke-width:1.24357927;stroke-linecap:butt;stroke-linejoin:miter;stroke-miterlimit:4;stroke-opacity:1;stroke-dasharray:none"
           d="m 413.73048,166.16613 0.98809,49.52034 c -25.67731,-1.03669 -30.13875,-0.98003 -55.20028,0.2187 2.31465,-21.34212 1.368,-30.23823 1.84569,-49.48754 18.72637,1.10262 29.4627,0.96973 52.3665,-0.2515 z"
           id="path3676-0"
           sodipodi:nodetypes="ccccc" />
        <path
           style="fill:#fdfeff;fill-opacity:1;stroke:none"
           d="m 367.17071,206.05566 c -0.49529,-1.93935 -0.98279,-4.65777 -1.07294,-7.17829 -0.51087,-0.40746 -1.21642,-1.5143 -1.78589,-1.9537 -0.56705,7.24053 -0.54895,7.64299 -0.79346,10.95758 -0.29318,4.63826 1.53816,4.96831 5.10828,4.3825 6.49574,-0.72117 7.90227,-0.91249 12.45145,-0.99419 -1.55146,-0.94749 -1.67382,-1.1587 -3.39712,-2.62409 -7.46523,-0.67982 -8.85956,0.0139 -9.15514,-0.64974 -0.71029,0.0456 -1.10251,-1.20502 -1.35518,-1.94007 z"
           id="path11480-6"
           sodipodi:nodetypes="ccccccccc" />
        <path
           style="fill:#438094;fill-opacity:1;stroke:none"
           d="m 393.25456,170.51043 c 6.6843,1.87706 10.35303,2.82196 12.93947,6.22115 1.85333,6.08522 2.01965,7.6258 3.73727,16.65362 1.22146,1.06261 1.97815,3.33488 3.60109,4.87595 0.2135,-8.11067 -0.28097,-16.22134 -0.56169,-24.33202 0.34449,-1.18221 0.5744,-8.80558 -0.99265,-7.0312 -4.75964,0.32832 -0.52412,-0.4335 -9.74139,0.41139 -1.37482,0.0547 -13.49486,0.35602 -16.56898,0.82764 l 7.58688,2.37347 z"
           id="path11482-9"
           sodipodi:nodetypes="ccccccccc" />
        <path
           style="fill:#254853;fill-opacity:1;stroke:#000000;stroke-width:1.33906066;stroke-linecap:butt;stroke-linejoin:miter;stroke-miterlimit:4;stroke-opacity:1;stroke-dasharray:none"
           d="m 413.90527,216.05093 c -20.96505,-2.16864 -32.36662,-0.95193 -53.75328,0.5755 1.21385,1.49438 2.71041,1.73897 5.01284,6.09263 18.49816,-1.49668 34.12022,-0.607 50.97117,0.0887 l -1.32918,-6.72993 -0.90155,0.0679 0,-0.0948 z"
           id="path3680-7"
           sodipodi:nodetypes="ccccccc" />
        <path
           style="fill:#48889d;fill-opacity:1;stroke:none"
           d="m 413.34611,216.76092 0.3349,5.31362 -9.24914,-0.77206 -4.24345,-2.86085 -24.58313,-1.39619 c 11.63646,-1.82895 26.54498,-1.91082 36.23959,-0.33644 l 1.50123,0.0519 0,2e-5 z"
           id="path11484-9"
           sodipodi:nodetypes="cccccccc" />
        <path
           style="fill:#fdfeff;fill-opacity:1;stroke:none"
           d="m 403.7751,216.67679 c 5.73374,0.35436 3.375,0.0959 6.68385,0.73721 1.20359,0.34069 2.26163,1.54778 2.28904,2.11219 0.16856,0.60077 0.15324,-2.08189 0.13895,1.40081 l -1.31097,-0.32286 c -0.14346,-1.09925 -0.18528,-1.04364 -1.12346,-1.37996 -0.38597,-0.22151 -1.22164,-0.93437 -2.76469,-1.25692 -1.86182,-0.58826 -3.61759,-0.14912 -6.14581,-0.78217 l -1.39526,-0.72881 1.16556,0.0958 2.46278,0.12482 z"
           id="path11528-2"
           sodipodi:nodetypes="ccccccccccc" />
      </g>
    </g>
  </g>
</svg>
