<?xml version="1.0" encoding="UTF-8" standalone="no"?>
<!-- Created with Inkscape (http://www.inkscape.org/) -->

<svg
   xmlns:dc="http://purl.org/dc/elements/1.1/"
   xmlns:cc="http://creativecommons.org/ns#"
   xmlns:rdf="http://www.w3.org/1999/02/22-rdf-syntax-ns#"
   xmlns:svg="http://www.w3.org/2000/svg"
   xmlns="http://www.w3.org/2000/svg"
   xmlns:xlink="http://www.w3.org/1999/xlink"
   xmlns:sodipodi="http://sodipodi.sourceforge.net/DTD/sodipodi-0.dtd"
   xmlns:inkscape="http://www.inkscape.org/namespaces/inkscape"
   width="80"
   height="80"
   id="svg3234"
   version="1.1"
   inkscape:version="0.47 r22583"
   sodipodi:docname="candy20.svg">
  <defs
     id="defs3236">
    <inkscape:perspective
       sodipodi:type="inkscape:persp3d"
       inkscape:vp_x="0 : 526.18109 : 1"
       inkscape:vp_y="0 : 1000 : 0"
       inkscape:vp_z="744.09448 : 526.18109 : 1"
       inkscape:persp3d-origin="372.04724 : 350.78739 : 1"
       id="perspective3242" />
    <inkscape:perspective
       id="perspective3252"
       inkscape:persp3d-origin="0.5 : 0.33333333 : 1"
       inkscape:vp_z="1 : 0.5 : 1"
       inkscape:vp_y="0 : 1000 : 0"
       inkscape:vp_x="0 : 0.5 : 1"
       sodipodi:type="inkscape:persp3d" />
    <inkscape:perspective
       id="perspective3403"
       inkscape:persp3d-origin="0.5 : 0.33333333 : 1"
       inkscape:vp_z="1 : 0.5 : 1"
       inkscape:vp_y="0 : 1000 : 0"
       inkscape:vp_x="0 : 0.5 : 1"
       sodipodi:type="inkscape:persp3d" />
    <inkscape:perspective
       id="perspective3551"
       inkscape:persp3d-origin="0.5 : 0.33333333 : 1"
       inkscape:vp_z="1 : 0.5 : 1"
       inkscape:vp_y="0 : 1000 : 0"
       inkscape:vp_x="0 : 0.5 : 1"
       sodipodi:type="inkscape:persp3d" />
    <inkscape:perspective
       id="perspective3699"
       inkscape:persp3d-origin="0.5 : 0.33333333 : 1"
       inkscape:vp_z="1 : 0.5 : 1"
       inkscape:vp_y="0 : 1000 : 0"
       inkscape:vp_x="0 : 0.5 : 1"
       sodipodi:type="inkscape:persp3d" />
    <inkscape:perspective
       id="perspective3926"
       inkscape:persp3d-origin="0.5 : 0.33333333 : 1"
       inkscape:vp_z="1 : 0.5 : 1"
       inkscape:vp_y="0 : 1000 : 0"
       inkscape:vp_x="0 : 0.5 : 1"
       sodipodi:type="inkscape:persp3d" />
    <inkscape:perspective
       id="perspective4023"
       inkscape:persp3d-origin="0.5 : 0.33333333 : 1"
       inkscape:vp_z="1 : 0.5 : 1"
       inkscape:vp_y="0 : 1000 : 0"
       inkscape:vp_x="0 : 0.5 : 1"
       sodipodi:type="inkscape:persp3d" />
    <inkscape:perspective
       id="perspective4120"
       inkscape:persp3d-origin="0.5 : 0.33333333 : 1"
       inkscape:vp_z="1 : 0.5 : 1"
       inkscape:vp_y="0 : 1000 : 0"
       inkscape:vp_x="0 : 0.5 : 1"
       sodipodi:type="inkscape:persp3d" />
    <inkscape:perspective
       id="perspective4238"
       inkscape:persp3d-origin="0.5 : 0.33333333 : 1"
       inkscape:vp_z="1 : 0.5 : 1"
       inkscape:vp_y="0 : 1000 : 0"
       inkscape:vp_x="0 : 0.5 : 1"
       sodipodi:type="inkscape:persp3d" />
    <inkscape:perspective
       id="perspective4314"
       inkscape:persp3d-origin="0.5 : 0.33333333 : 1"
       inkscape:vp_z="1 : 0.5 : 1"
       inkscape:vp_y="0 : 1000 : 0"
       inkscape:vp_x="0 : 0.5 : 1"
       sodipodi:type="inkscape:persp3d" />
    <linearGradient
       id="linearGradient3644-4">
      <stop
         style="stop-color:#ff5e2b;stop-opacity:1;"
         offset="0"
         id="stop3646-8" />
      <stop
         id="stop3652-8"
         offset="0.5"
         style="stop-color:#ed2c00;stop-opacity:1;" />
      <stop
         style="stop-color:#ff2300;stop-opacity:1;"
         offset="1"
         id="stop3648-8" />
    </linearGradient>
    <inkscape:perspective
       id="perspective4426"
       inkscape:persp3d-origin="0.5 : 0.33333333 : 1"
       inkscape:vp_z="1 : 0.5 : 1"
       inkscape:vp_y="0 : 1000 : 0"
       inkscape:vp_x="0 : 0.5 : 1"
       sodipodi:type="inkscape:persp3d" />
    <linearGradient
       id="linearGradient3644-4-9">
      <stop
         id="stop3652-8-2"
         offset="0"
         style="stop-color:#3aa5bb;stop-opacity:1;" />
      <stop
         style="stop-color:#137f94;stop-opacity:1;"
         offset="0.5"
         id="stop4692" />
      <stop
         style="stop-color:#45767f;stop-opacity:1;"
         offset="1"
         id="stop3648-8-4" />
    </linearGradient>
    <inkscape:perspective
       id="perspective4538"
       inkscape:persp3d-origin="0.5 : 0.33333333 : 1"
       inkscape:vp_z="1 : 0.5 : 1"
       inkscape:vp_y="0 : 1000 : 0"
       inkscape:vp_x="0 : 0.5 : 1"
       sodipodi:type="inkscape:persp3d" />
    <radialGradient
       inkscape:collect="always"
       xlink:href="#linearGradient3644-4-0"
       id="radialGradient4701"
       gradientUnits="userSpaceOnUse"
       gradientTransform="matrix(0.8699776,-0.49309124,0.18910437,0.33364326,105.87069,518.55069)"
       cx="484.19061"
       cy="79.880104"
       fx="484.19061"
       fy="79.880104"
       r="70.37822" />
    <linearGradient
       id="linearGradient3644-4-0">
      <stop
         id="stop3652-8-4"
         offset="0"
         style="stop-color:#f2f391;stop-opacity:1;" />
      <stop
         style="stop-color:#ece14e;stop-opacity:1;"
         offset="0.5"
         id="stop4711" />
      <stop
         style="stop-color:#c6a823;stop-opacity:1;"
         offset="1"
         id="stop3648-8-8" />
    </linearGradient>
    <inkscape:perspective
       id="perspective4650"
       inkscape:persp3d-origin="0.5 : 0.33333333 : 1"
       inkscape:vp_z="1 : 0.5 : 1"
       inkscape:vp_y="0 : 1000 : 0"
       inkscape:vp_x="0 : 0.5 : 1"
       sodipodi:type="inkscape:persp3d" />
    <filter
       color-interpolation-filters="sRGB"
       inkscape:collect="always"
       id="filter8353-3">
      <feGaussianBlur
         inkscape:collect="always"
         stdDeviation="1.4249902"
         id="feGaussianBlur8355-85" />
    </filter>
    <radialGradient
       inkscape:collect="always"
       xlink:href="#linearGradient3644-4-6"
       id="radialGradient3956"
       gradientUnits="userSpaceOnUse"
       gradientTransform="matrix(0.8699776,-0.49309124,0.18910437,0.33364326,107.44616,624.6673)"
       cx="484.19061"
       cy="79.880104"
       fx="484.19061"
       fy="79.880104"
       r="70.37822" />
    <linearGradient
       id="linearGradient3644-4-6">
      <stop
         id="stop3652-8-8"
         offset="0"
         style="stop-color:#95c35b;stop-opacity:1;" />
      <stop
         style="stop-color:#68b14d;stop-opacity:1;"
         offset="0.5"
         id="stop3958" />
      <stop
         style="stop-color:#489034;stop-opacity:1;"
         offset="1"
         id="stop3648-8-5" />
    </linearGradient>
    <clipPath
       clipPathUnits="userSpaceOnUse"
       id="clipPath3619">
      <rect
         style="fill:#000000;fill-opacity:1;stroke:none"
         id="rect3621"
         width="80"
         height="80"
         x="507.49182"
         y="372.04135" />
    </clipPath>
  </defs>
  <sodipodi:namedview
     id="base"
     pagecolor="#ffffff"
     bordercolor="#666666"
     borderopacity="1.0"
     inkscape:pageopacity="0.0"
     inkscape:pageshadow="2"
     inkscape:zoom="2.8"
     inkscape:cx="84.659318"
     inkscape:cy="-2.3928206"
     inkscape:document-units="px"
     inkscape:current-layer="layer1"
     showgrid="false"
     inkscape:window-width="993"
     inkscape:window-height="1097"
     inkscape:window-x="925"
     inkscape:window-y="24"
     inkscape:window-maximized="0"
     showborder="true"
     inkscape:showpageshadow="true" />
  <metadata
     id="metadata3239">
    <rdf:RDF>
      <cc:Work
         rdf:about="">
        <dc:format>image/svg+xml</dc:format>
        <dc:type
           rdf:resource="http://purl.org/dc/dcmitype/StillImage" />
        <dc:title />
      </cc:Work>
    </rdf:RDF>
  </metadata>
  <g
     inkscape:label="Layer 1"
     inkscape:groupmode="layer"
     id="layer1"
     transform="translate(-166.98117,-849.96936)">
    <g
       transform="translate(-340.51066,477.92801)"
       id="g8727"
       clip-path="url(#clipPath3619)">
      <g
         style="opacity:0.67782425;fill:#060606;fill-opacity:1;filter:url(#filter8353-3)"
         transform="matrix(1,0,0,0.85149439,-35.47292,250.50401)"
         id="g3829-4-7">
        <path
           style="fill:#060606;fill-opacity:1;stroke:#000000;stroke-width:1.79999995;stroke-linecap:butt;stroke-linejoin:miter;stroke-miterlimit:4;stroke-opacity:1;stroke-dasharray:none"
           d="m 554.69146,211.71993 c 1.83586,-8.5063 2.93283,-20.43293 8.41856,-28.79358 2.73813,-4.17309 6.00135,-6.76823 11.51116,-9.57609 21.025,-10.71456 28.63961,1.24577 41.89395,2.87109 5.49752,1.43302 5.59681,6.2623 4.81132,8.48877 -2.97756,8.84093 -1.49601,18.52763 -7.67785,27.99249 -3.08485,4.72314 -7.32288,7.06157 -11.77036,9.38561 -4.44962,2.32515 -9.41578,4.12459 -14.43302,4.30546 -9.5334,0.34367 -18.48448,-2.826 -27.94244,-6.18497 -3.45065,-1.59427 -5.88947,-3.49323 -4.81132,-8.48878 z"
           id="path2816-7-3-28"
           sodipodi:nodetypes="casccsaacs" />
        <path
           style="fill:#060606;fill-opacity:1;stroke:none"
           d="m 561.16942,210.68372 c 0.005,-2.58397 0.70152,-6.23456 2.53933,-8.37528 0.60587,-0.91156 2.32962,-1.42603 2.5396,-1.69552 -0.56621,1.17268 -1.30364,2.60025 -2.0212,3.99825 -0.86689,1.79183 -1.50704,3.83891 -1.89528,6.22172 -0.35959,0.46345 -0.93704,0.15963 -1.16245,-0.14915 l 0,-2e-5 z"
           id="path3598-3-7-8"
           sodipodi:nodetypes="ccccccc" />
        <path
           style="fill:#060606;fill-opacity:1;stroke:none"
           d="m 556.99125,204.56351 c 1.81594,-4.87234 6.76924,-14.55538 13.40851,-19.80713 5.07711,-3.91906 10.89881,-6.52443 16.81813,-8.95755 6.25524,-1.26832 12.04641,-2.82387 18.44096,-1.91207 -6.61073,-3.15589 -11.57951,-4.13828 -14.34457,-4.07582 -5.93287,-0.68246 -21.72134,4.37493 -26.95919,12.91714 -3.47738,4.66153 -5.46921,11.7219 -6.12927,15.37226 -0.52481,2.78071 -1.08004,4.87631 -1.23457,6.46317 z"
           id="path3600-0-8-7"
           sodipodi:nodetypes="cccccccc" />
        <path
           style="fill:#060606;fill-opacity:1;stroke:none"
           d="m 557.94693,206.38541 c 2.24078,-6.80463 8.4474,-15.97703 13.07423,-19.26934 3.93298,-2.79858 10.18545,-8.0421 17.33537,-9.5293 4.04119,-0.84062 12.55867,-2.97477 19.12052,-2.535 -1.74434,-1.55548 -3.98412,-2.43742 -13.60848,-2.144 -7.40136,0.58496 -17.52646,3.45534 -25.89795,11.40076 -2.10435,1.88546 -7.03153,9.92482 -7.84324,12.15094 -2.83797,5.71486 -2.79704,7.20121 -3.10822,10.1406 0.27367,0.3853 0.58653,0.26783 0.92777,-0.21466 z"
           id="path3600-1-3-2-7"
           sodipodi:nodetypes="csscccccc" />
        <path
           style="fill:#060606;fill-opacity:1;stroke:none"
           d="m 565.29668,217.02096 c 4.95166,1.89809 10.95368,2.20728 17.61902,2.47667 1.10026,0.0334 1.18596,1.37255 0.96304,1.71941 -0.60451,0.94116 -1.01959,1.09875 -2.26812,1.35956 -3.46536,-0.43304 -6.82412,-0.30194 -9.92289,-1.30804 -3.15658,-0.49578 -4.26752,-2.11051 -6.39129,-4.24752 z"
           id="path3624-0-8-3"
           sodipodi:nodetypes="ccsccc" />
        <path
           style="fill:#060606;fill-opacity:1;stroke:none"
           d="m 601.43359,178.97267 c 0.67001,0.51268 1.10965,1.48949 2.46035,1.86816 2.83221,0.57163 5.69186,0.76228 8.58811,0.44428 l -1.11283,-1.33931 c -3.67024,-0.6425 -6.49161,-0.72936 -9.93561,-0.97315 z"
           id="path3626-9-8-5"
           sodipodi:nodetypes="ccccc" />
        <path
           style="fill:#060606;fill-opacity:1;stroke:none"
           d="m 608.17463,207.37547 c 3.38299,-4.47318 7.1569,-15.89116 6.164,-17.35585 l 0.94978,0.61574 c 0.19084,4.22556 0.28718,6.18292 -0.0971,7.31382 -0.68147,3.06698 -1.75649,4.49598 -2.65581,6.05934 -1.04835,1.49131 -3.22785,3.11865 -4.3609,3.36695 z"
           id="path3628-2-7-3"
           sodipodi:nodetypes="cccccc" />
      </g>
      <g
         id="g3115">
        <path
           style="fill:url(#radialGradient3956);fill-opacity:1;stroke:#000000;stroke-width:1.79999995;stroke-linecap:butt;stroke-linejoin:miter;stroke-miterlimit:4;stroke-opacity:1;stroke-dasharray:none"
           d="m 514.14957,426.93777 c 1.83586,-8.5063 2.93283,-20.43293 8.41856,-28.79358 2.73813,-4.17309 6.00135,-6.76823 11.51116,-9.57609 21.025,-10.71456 28.63961,1.24577 41.89395,2.87109 5.49752,1.43302 5.59681,6.2623 4.81132,8.48877 -2.97756,8.84093 -1.49601,18.52763 -7.67785,27.99249 -3.08485,4.72314 -7.32288,7.06157 -11.77036,9.38561 -4.44962,2.32515 -9.41578,4.12459 -14.43302,4.30546 -9.5334,0.34367 -18.48448,-2.826 -27.94244,-6.18497 -3.45065,-1.59427 -5.88947,-3.49323 -4.81132,-8.48878 z"
           id="path2816-7-1"
           sodipodi:nodetypes="casccsaacs" />
        <path
           style="fill:#edf4c6;fill-opacity:1;stroke:none"
           d="m 520.62753,425.90156 c 0.005,-2.58397 0.70152,-6.23456 2.53933,-8.37528 0.60587,-0.91156 2.32962,-1.42603 2.5396,-1.69552 -0.56621,1.17268 -1.30364,2.60025 -2.0212,3.99825 -0.86689,1.79183 -1.50704,3.83891 -1.89528,6.22172 -0.35959,0.46345 -0.93704,0.15963 -1.16245,-0.14915 l 0,-2e-5 z"
           id="path3598-3-8"
           sodipodi:nodetypes="ccccccc" />
        <path
           style="fill:#b4dc5f;fill-opacity:1;stroke:none"
           d="m 516.44936,419.78135 c 1.81594,-4.87234 6.76924,-14.55538 13.40851,-19.80713 5.07711,-3.91906 10.89881,-6.52443 16.81813,-8.95755 6.25524,-1.26832 12.04641,-2.82387 18.44096,-1.91207 -6.61073,-3.15589 -11.57951,-4.13828 -14.34457,-4.07582 -5.93287,-0.68246 -21.72134,4.37493 -26.95919,12.91714 -3.47738,4.66153 -5.46921,11.7219 -6.12927,15.37226 -0.52481,2.78071 -1.08004,4.87631 -1.23457,6.46317 z"
           id="path3600-0-5"
           sodipodi:nodetypes="cccccccc" />
        <path
           style="fill:#edf4c6;fill-opacity:1;stroke:none"
           d="m 517.40504,421.60325 c 2.24078,-6.80463 8.4474,-15.97703 13.07423,-19.26934 3.93298,-2.79858 10.18545,-8.0421 17.33537,-9.5293 4.04119,-0.84062 12.55867,-2.97477 19.12052,-2.535 -1.74434,-1.55548 -3.98412,-2.43742 -13.60848,-2.144 -7.40136,0.58496 -17.52646,3.45534 -25.89795,11.40076 -2.10435,1.88546 -7.03153,9.92482 -7.84324,12.15094 -2.83797,5.71486 -2.79704,7.20121 -3.10822,10.1406 0.27367,0.3853 0.58653,0.26783 0.92777,-0.21466 z"
           id="path3600-1-3-9"
           sodipodi:nodetypes="csscccccc" />
        <path
           style="fill:#506559;fill-opacity:1;stroke:none"
           d="m 524.75479,432.2388 c 4.95166,1.89809 10.95368,2.20728 17.61902,2.47667 1.10026,0.0334 1.18596,1.37255 0.96304,1.71941 -0.60451,0.94116 -1.01959,1.09875 -2.26812,1.35956 -3.46536,-0.43304 -6.82412,-0.30194 -9.92289,-1.30804 -3.15658,-0.49578 -4.26752,-2.11051 -6.39129,-4.24752 z"
           id="path3624-0-7"
           sodipodi:nodetypes="ccsccc" />
        <path
           style="fill:#edf4c6;fill-opacity:1;stroke:none"
           d="m 560.8917,394.19051 c 0.67001,0.51268 1.10965,1.48949 2.46035,1.86816 2.83221,0.57163 5.69186,0.76228 8.58811,0.44428 l -1.11283,-1.33931 c -3.67024,-0.6425 -6.49161,-0.72936 -9.93561,-0.97315 z"
           id="path3626-9-5"
           sodipodi:nodetypes="ccccc" />
        <path
           style="fill:#506559;fill-opacity:1;stroke:none"
           d="m 567.63274,422.59331 c 3.38299,-4.47318 7.1569,-15.89116 6.164,-17.35585 l 0.94978,0.61574 c 0.19084,4.22556 0.28718,6.18292 -0.0971,7.31382 -0.68147,3.06698 -1.75649,4.49598 -2.65581,6.05934 -1.04835,1.49131 -3.22785,3.11865 -4.3609,3.36695 z"
           id="path3628-2-38"
           sodipodi:nodetypes="cccccc" />
      </g>
    </g>
  </g>
</svg>
