<?xml version="1.0" encoding="UTF-8" standalone="no"?>
<!-- Created with Inkscape (http://www.inkscape.org/) -->

<svg
   xmlns:dc="http://purl.org/dc/elements/1.1/"
   xmlns:cc="http://creativecommons.org/ns#"
   xmlns:rdf="http://www.w3.org/1999/02/22-rdf-syntax-ns#"
   xmlns:svg="http://www.w3.org/2000/svg"
   xmlns="http://www.w3.org/2000/svg"
   xmlns:sodipodi="http://sodipodi.sourceforge.net/DTD/sodipodi-0.dtd"
   xmlns:inkscape="http://www.inkscape.org/namespaces/inkscape"
   width="80"
   height="80"
   id="svg3234"
   version="1.1"
   inkscape:version="0.47 r22583"
   sodipodi:docname="candy01.svg">
  <defs
     id="defs3236">
    <inkscape:perspective
       sodipodi:type="inkscape:persp3d"
       inkscape:vp_x="0 : 526.18109 : 1"
       inkscape:vp_y="0 : 1000 : 0"
       inkscape:vp_z="744.09448 : 526.18109 : 1"
       inkscape:persp3d-origin="372.04724 : 350.78739 : 1"
       id="perspective3242" />
    <inkscape:perspective
       id="perspective3252"
       inkscape:persp3d-origin="0.5 : 0.33333333 : 1"
       inkscape:vp_z="1 : 0.5 : 1"
       inkscape:vp_y="0 : 1000 : 0"
       inkscape:vp_x="0 : 0.5 : 1"
       sodipodi:type="inkscape:persp3d" />
    <inkscape:perspective
       id="perspective3403"
       inkscape:persp3d-origin="0.5 : 0.33333333 : 1"
       inkscape:vp_z="1 : 0.5 : 1"
       inkscape:vp_y="0 : 1000 : 0"
       inkscape:vp_x="0 : 0.5 : 1"
       sodipodi:type="inkscape:persp3d" />
    <filter
       color-interpolation-filters="sRGB"
       inkscape:collect="always"
       id="filter7743-1">
      <feGaussianBlur
         inkscape:collect="always"
         stdDeviation="2.4276696"
         id="feGaussianBlur7745-2" />
    </filter>
    <clipPath
       clipPathUnits="userSpaceOnUse"
       id="clipPath4207">
      <rect
         style="fill:#000000;fill-opacity:1;stroke:none"
         id="rect4209"
         width="80"
         height="80"
         x="204.48512"
         y="859.69366" />
    </clipPath>
  </defs>
  <sodipodi:namedview
     id="base"
     pagecolor="#ffffff"
     bordercolor="#666666"
     borderopacity="1.0"
     inkscape:pageopacity="0.0"
     inkscape:pageshadow="2"
     inkscape:zoom="1.4"
     inkscape:cx="47.15537"
     inkscape:cy="-49.811398"
     inkscape:document-units="px"
     inkscape:current-layer="layer1"
     showgrid="false"
     inkscape:window-width="993"
     inkscape:window-height="881"
     inkscape:window-x="925"
     inkscape:window-y="24"
     inkscape:window-maximized="0"
     showborder="true"
     inkscape:showpageshadow="true" />
  <metadata
     id="metadata3239">
    <rdf:RDF>
      <cc:Work
         rdf:about="">
        <dc:format>image/svg+xml</dc:format>
        <dc:type
           rdf:resource="http://purl.org/dc/dcmitype/StillImage" />
        <dc:title />
      </cc:Work>
    </rdf:RDF>
  </metadata>
  <g
     inkscape:label="Layer 1"
     inkscape:groupmode="layer"
     id="layer1"
     transform="translate(-204.48512,-859.69364)">
    <g
       id="g4170"
       clip-path="url(#clipPath4207)">
      <g
         style="opacity:0.67364017;fill:#060606;fill-opacity:1;filter:url(#filter7743-1)"
         id="g4446-8-7"
         transform="matrix(0.70740037,0,0,0.70740037,83.00869,848.02477)">
        <path
           sodipodi:type="star"
           style="fill:#060606;fill-opacity:1;stroke:#000000;stroke-width:5.79976892;stroke-miterlimit:4;stroke-opacity:1;stroke-dasharray:none"
           id="path3654-3-9-7"
           sodipodi:sides="5"
           sodipodi:cx="172.61839"
           sodipodi:cy="123.31032"
           sodipodi:r1="67.813347"
           sodipodi:r2="167.28758"
           sodipodi:arg1="0.64888185"
           sodipodi:arg2="1.2772004"
           inkscape:flatsided="false"
           inkscape:rounded="0.14"
           inkscape:randomized="0"
           d="m 226.64935,164.28964 c -10.09145,13.30552 10.36637,114.31715 -5.61858,119.14993 -15.98494,4.83278 -54.91682,-90.59353 -70.68955,-96.07945 C 134.5685,181.87421 44.82254,232.54506 35.286675,218.83589 25.750811,205.12672 104.47601,138.61194 104.81938,121.91595 105.16276,105.21995 29.238888,35.524631 39.330342,22.219118 49.421797,8.9136042 137.00853,63.231522 152.99347,58.398744 c 15.98494,-4.832778 58.80737,-98.577708 74.5801,-93.091794 15.77272,5.485914 -8.8209,105.571005 0.71496,119.280178 9.53587,13.709174 111.92545,25.466942 111.58208,42.162942 -0.34338,16.69599 -103.1298,24.23406 -113.22126,37.53957 z"
           transform="matrix(0.30285061,-0.01047751,-0.02140961,0.27169641,182.14778,46.325016)"
           inkscape:transform-center-x="-16.647605"
           inkscape:transform-center-y="-27.861721" />
        <path
           style="fill:#060606;fill-opacity:1;stroke:#000000;stroke-width:1.6613996;stroke-linecap:butt;stroke-linejoin:miter;stroke-miterlimit:4;stroke-opacity:1;stroke-dasharray:none"
           d="m 223.36017,95.919295 c 1.91401,-0.333668 3.99838,4.307785 7.22902,9.208305 0.86306,1.06888 5.58911,9.67071 6.6227,10.73893 1.52068,2.03711 3.1664,4.22077 5.68497,5.22237 -0.87827,0.91755 -4.44157,0.12884 -6.26938,-0.28642 -2.28508,-1.43871 -4.92766,-6.33085 -6.01002,-8.08929 -1.24991,-1.9293 -7.25696,-11.45292 -7.25703,-12.51415 l -2.6e-4,-4.279745 z"
           id="path3762-15-9"
           sodipodi:nodetypes="ccccccsc" />
        <g
           style="fill:#060606;fill-opacity:1"
           id="g4355-4-8">
          <path
             sodipodi:nodetypes="cccsccc"
             id="path3756-92-1"
             d="m 197.15756,59.573476 c -2.78367,-3.511752 -3.92486,-6.143136 -3.92486,-6.143136 0.47097,3.291923 3.16544,9.099171 3.87955,11.840228 3.67131,5.894424 9.68993,11.563981 11.99648,15.351297 0.75496,1.239622 3.97949,-2.166536 0.66912,-5.827801 -3.98112,-5.221881 -9.45635,-10.803673 -12.62033,-15.220588 l 4e-5,0 z"
             style="fill:#060606;fill-opacity:1;stroke:#000000;stroke-width:1.45866621;stroke-linecap:butt;stroke-linejoin:miter;stroke-miterlimit:4;stroke-opacity:1;stroke-dasharray:none" />
          <path
             sodipodi:nodetypes="cccccccc"
             id="path3758-5-0"
             d="m 188.52787,105.73001 4.8742,3.2755 c 1.92197,1.33238 7.41249,-1.06033 12.7626,-3.19663 6.06856,-2.43786 11.96749,-5.64175 16.65147,-5.07695 l 0.51091,-4.7663 c -2.79709,-0.04126 -7.06822,1.093726 -10.42342,2.376146 l -16.8787,6.789874 c -2.60999,0.55732 -5.66566,1.00204 -7.49706,0.59836 z"
             style="fill:#060606;fill-opacity:1;stroke:#000000;stroke-width:1.6613996;stroke-linecap:butt;stroke-linejoin:miter;stroke-miterlimit:4;stroke-opacity:1;stroke-dasharray:none" />
          <path
             sodipodi:nodetypes="ccsccccc"
             id="path3760-74-7"
             d="m 246.12426,92.296397 c 0.17441,-1.605629 0.51735,-3.24818 1.65948,-4.14093 0,0 4.17686,-1.802235 5.78168,-2.195772 1.40574,-0.344724 19.48438,-4.755732 19.48438,-4.755732 6.87647,-1.536558 8.26299,-2.680977 9.37817,-3.806013 l -7.22573,6.566292 c -2.48223,1.856708 -10.29809,2.929961 -20.70645,5.968311 l -8.37153,2.363844 z"
             style="fill:#060606;fill-opacity:1;stroke:#000000;stroke-width:1.56003296;stroke-linecap:butt;stroke-linejoin:miter;stroke-miterlimit:4;stroke-opacity:1;stroke-dasharray:none" />
          <path
             sodipodi:nodetypes="cssscccccc"
             id="path3955-99-6"
             d="m 194.44864,52.464313 c -1.68275,4.494223 17.69973,20.644244 17.19929,25.610236 -0.70244,6.970458 -24.55628,22.743851 -22.61597,26.671001 1.92113,3.88837 27.32581,-10.938598 35.00171,-9.375314 5.54159,1.128613 13.70176,24.996184 18.71022,24.303474 -4.23455,-11.04791 -11.52176,-21.031402 -14.63678,-32.834243 -0.46056,-5.331913 -2.30843,-8.814279 -4.70613,-9.911015 -2.62827,-1.568476 -4.57496,-2.621291 -7.63681,-4.414949 -7.3424,-5.55917 -17.6302,-15.59956 -20.66121,-19.843973 l -0.65432,-0.205217 z"
             style="fill:#060606;fill-opacity:1;stroke:#000000;stroke-width:0;stroke-miterlimit:4;stroke-opacity:1;stroke-dasharray:none" />
          <path
             sodipodi:nodetypes="ccccc"
             id="path3958-4-0"
             d="m 250.66388,45.066836 c 0.24044,-1.572925 -1.07846,-0.592807 -1.37892,0.109864 -0.30755,1.119281 -1.38223,4.673895 -2.48874,7.4601 -4.83072,13.46732 -0.46505,10.994598 0.15429,10.807981 -0.0513,-8.864898 3.05014,-14.253434 3.71337,-18.377937 z"
             style="fill:#060606;fill-opacity:1;stroke:none" />
          <path
             sodipodi:nodetypes="csccsc"
             id="path3960-5-1"
             d="m 247.18659,82.21554 c -1.25659,0.987205 -2.32349,4.981643 -0.77282,3.217939 3.12306,-3.552134 19.68012,-5.00678 19.68012,-5.00678 1.36924,-0.24327 5.16204,-0.132817 3.94961,-1.750525 -0.58561,-0.487272 -0.47704,-1.547919 -3.34612,-0.830911 -3.94532,0.985964 -17.84194,3.980605 -19.51079,4.370277 z"
             style="fill:#060606;fill-opacity:1;stroke:none" />
          <path
             sodipodi:nodetypes="ccccscccccc"
             id="path5408-9-0"
             d="m 249.73001,38.787227 c -2.93628,-0.02718 -4.44203,2.729997 -6.36473,5.269312 -3.34277,4.82116 -7.66307,12.075648 -10.04744,13.617648 -2.89175,1.609533 -3.13325,2.499241 -1.74197,2.769816 0.35326,-0.05341 1.23354,-0.127076 1.69147,-0.335756 1.4005,-0.638211 2.58609,-1.890483 2.87767,-2.440862 0.71229,-0.867432 1.51491,-2.655452 2.33766,-4.02128 2.63472,-3.567439 4.80989,-9.60261 7.61465,-12.105023 0.58733,-0.744035 1.30006,-1.174316 2.27243,-1.680758 0.28022,-0.118807 0.56043,-0.237616 0.84065,-0.356423 0.46673,-0.285762 0.42386,-0.49015 0.51961,-0.716674 z"
             style="fill:#060606;fill-opacity:1;stroke:none" />
          <path
             sodipodi:nodetypes="ccccccccc"
             id="path5426-3-2"
             d="m 253.49738,72.115991 c 3.68676,-0.498309 21.98152,3.416574 22.18079,4.162108 l -1.58163,0.389215 c 0.41092,0.03496 0.0611,0.121926 2.03293,-0.294778 1.10896,-0.35996 0.75102,-0.503785 -0.11564,-0.797677 -5.22608,-1.606309 -10.10301,-2.691119 -15.90949,-3.689178 -2.46047,-0.404692 -4.08703,-0.686992 -6.84577,-1.176356 -1.21363,-0.384091 -1.80179,0.577693 -0.0408,1.291941 l 0.2797,0.114725 z"
             style="fill:#060606;fill-opacity:1;stroke:none" />
          <path
             sodipodi:nodetypes="cccccccc"
             id="path5428-5-5"
             d="m 202.72644,91.608592 c -3.31388,2.30429 -7.32884,5.887452 -10.67949,9.063268 -0.76397,1.00928 -3.63202,4.01798 1.26048,2.79052 5.23659,-1.70714 10.19378,-3.04175 15.94154,-5.430441 1.44751,-0.598043 3.76985,-2.039041 -0.38851,-1.608304 -3.97765,2.048701 -8.54504,3.459046 -13.6712,5.156925 -1.91908,0.61761 -2.84257,0.0776 -0.63518,-1.743089 5.39592,-5.971161 12.02608,-10.990053 8.17236,-8.228879 z"
             style="fill:#060606;fill-opacity:1;stroke:none" />
          <path
             sodipodi:nodetypes="ccccccc"
             id="path5430-70-1"
             d="m 209.30055,69.862073 c 0.90877,2.574959 1.35842,-0.900991 0.79447,-1.719135 0,0 -3.39722,-4.184304 -4.18748,-4.730367 -3.22467,-3.128506 -7.60244,-6.534464 -10.07649,-9.976022 -0.4838,-0.195342 0.0734,1.917559 1.00853,3.085501 1.97282,1.833997 6.88625,6.410589 10.46652,10.368058 0.69562,0.688286 1.3808,1.849451 1.99445,2.971965 z"
             style="fill:#060606;fill-opacity:1;stroke:none" />
          <path
             sodipodi:nodetypes="ccccccc"
             id="path5432-81-9"
             d="m 225.02988,61.881371 c 0.12924,0.610752 -1.99067,0.74061 -4.39114,0.231038 l -15.6577,-6.546457 c -1.87159,-0.792504 -4.12389,-1.6326 -6.94824,-2.544198 l 5.85692,1.271165 12.49363,4.873763 c 3.50548,1.114772 4.47551,1.93269 8.64653,2.714689 z"
             style="fill:#060606;fill-opacity:1;stroke:none" />
          <path
             sodipodi:nodetypes="ccccccc"
             id="path5434-9-7"
             d="m 226.35465,95.617415 c 2.21135,-2.301754 5.58833,2.058504 6.41344,3.507124 1.49317,2.091171 2.27871,4.619321 3.21938,6.927061 2.89521,7.99023 7.64295,10.73254 6.60433,10.17691 -0.74505,0.004 -1.43637,-0.12659 -1.91494,-0.87017 -3.65702,-3.08029 -6.3663,-8.86358 -8.76504,-14.1162 -2.05923,-3.845527 -3.13885,-4.592011 -5.55717,-5.624725 z"
             style="fill:#060606;fill-opacity:1;stroke:none" />
          <path
             sodipodi:nodetypes="ccccccccc"
             id="path5436-9-1"
             d="m 242.63528,114.48634 c 0.44001,0.16515 1.02181,-0.0605 1.09237,-0.2951 0.68512,-1.29114 0.94416,-6.79516 0.65017,-10.11773 -0.48914,-7.587889 -0.59654,-11.026058 0.36099,-14.328235 -0.33516,-0.0038 -0.92664,-0.940202 -1.48914,0.364721 -1.82978,4.439834 0.66968,14.249804 0.67731,20.275004 -0.0627,2.05261 -0.46935,3.52382 -1.21917,4.10134 l -0.0726,0 5e-5,0 z"
             style="fill:#060606;fill-opacity:1;stroke:none" />
        </g>
      </g>
      <g
         transform="matrix(0.75,0,0,0.75,67.886206,756.01837)"
         id="g4523">
        <path
           sodipodi:type="star"
           style="fill:#438094;fill-opacity:1;stroke:#000000;stroke-width:5.79976892;stroke-miterlimit:4;stroke-opacity:1;stroke-dasharray:none"
           id="path3654-3-0"
           sodipodi:sides="5"
           sodipodi:cx="172.61839"
           sodipodi:cy="123.31032"
           sodipodi:r1="67.813347"
           sodipodi:r2="167.28758"
           sodipodi:arg1="0.64888185"
           sodipodi:arg2="1.2772004"
           inkscape:flatsided="false"
           inkscape:rounded="0.14"
           inkscape:randomized="0"
           d="m 226.64935,164.28964 c -10.09145,13.30552 10.36637,114.31715 -5.61858,119.14993 -15.98494,4.83278 -54.91682,-90.59353 -70.68955,-96.07945 C 134.5685,181.87421 44.82254,232.54506 35.286675,218.83589 25.750811,205.12672 104.47601,138.61194 104.81938,121.91595 105.16276,105.21995 29.238888,35.524631 39.330342,22.219118 49.421797,8.9136042 137.00853,63.231522 152.99347,58.398744 c 15.98494,-4.832778 58.80737,-98.577708 74.5801,-93.091794 15.77272,5.485914 -8.8209,105.571005 0.71496,119.280178 9.53587,13.709174 111.92545,25.466942 111.58208,42.162942 -0.34338,16.69599 -103.1298,24.23406 -113.22126,37.53957 z"
           transform="matrix(0.30285061,-0.01047751,-0.02140961,0.27169641,182.48142,161.10953)"
           inkscape:transform-center-x="-16.647605"
           inkscape:transform-center-y="-27.861721" />
        <path
           style="fill:#2d3752;fill-opacity:1;stroke:#000000;stroke-width:1.45866621;stroke-linecap:butt;stroke-linejoin:miter;stroke-miterlimit:4;stroke-opacity:1;stroke-dasharray:none"
           d="m 197.4912,174.35799 c -2.78367,-3.51175 -3.92486,-6.14314 -3.92486,-6.14314 0.47097,3.29193 3.16544,9.09917 3.87955,11.84023 3.67132,5.89442 9.68993,11.56398 11.99648,15.3513 0.75496,1.23962 3.97949,-2.16654 0.66912,-5.8278 -3.98111,-5.22188 -9.45634,-10.80368 -12.62033,-15.22059 l 4e-5,0 z"
           id="path3756-4"
           sodipodi:nodetypes="cccsccc" />
        <path
           style="fill:#2d3752;fill-opacity:1;stroke:#000000;stroke-width:1.6613996;stroke-linecap:butt;stroke-linejoin:miter;stroke-miterlimit:4;stroke-opacity:1;stroke-dasharray:none"
           d="m 188.86151,220.51452 4.87421,3.2755 c 1.92196,1.33238 7.41249,-1.06033 12.7626,-3.19663 6.06856,-2.43786 11.96749,-5.64175 16.65147,-5.07695 l 0.51091,-4.7663 c -2.7971,-0.0412 -7.06823,1.09373 -10.42343,2.37615 l -16.8787,6.78987 c -2.60999,0.55733 -5.66566,1.00204 -7.49706,0.59836 z"
           id="path3758-8"
           sodipodi:nodetypes="cccccccc" />
        <path
           style="fill:#2d3752;fill-opacity:1;stroke:#000000;stroke-width:1.56003296;stroke-linecap:butt;stroke-linejoin:miter;stroke-miterlimit:4;stroke-opacity:1;stroke-dasharray:none"
           d="m 246.45791,207.08091 c 0.17441,-1.60563 0.51734,-3.24818 1.65947,-4.14093 0,0 4.17686,-1.80224 5.78168,-2.19577 1.40574,-0.34473 19.48439,-4.75573 19.48439,-4.75573 6.87647,-1.53656 8.26298,-2.68098 9.37817,-3.80602 l -7.22573,6.56629 c -2.48224,1.85671 -10.2981,2.92997 -20.70646,5.96832 l -8.37152,2.36384 z"
           id="path3760-2"
           sodipodi:nodetypes="ccsccccc" />
        <path
           style="fill:#2d3752;fill-opacity:1;stroke:#000000;stroke-width:1.6613996;stroke-linecap:butt;stroke-linejoin:miter;stroke-miterlimit:4;stroke-opacity:1;stroke-dasharray:none"
           d="m 223.69381,210.70381 c 1.91402,-0.33367 3.99838,4.30779 7.22903,9.20831 0.86305,1.06887 5.5891,9.6707 6.6227,10.73892 1.52067,2.03711 3.1664,4.22077 5.68496,5.22237 -0.87827,0.91755 -4.44157,0.12884 -6.26937,-0.28642 -2.28509,-1.43871 -4.92767,-6.33084 -6.01002,-8.08929 -1.24991,-1.92929 -7.25696,-11.45291 -7.25703,-12.51415 l -2.7e-4,-4.27974 z"
           id="path3762-2"
           sodipodi:nodetypes="ccccccsc" />
        <path
           style="fill:#aad9ea;fill-opacity:1;stroke:#000000;stroke-width:0;stroke-miterlimit:4;stroke-opacity:1;stroke-dasharray:none"
           d="m 194.78229,167.24883 c -1.68276,4.49422 17.69972,20.64424 17.19928,25.61023 -0.70244,6.97046 -24.55627,22.74385 -22.61596,26.67101 1.92112,3.88836 27.3258,-10.93861 35.0017,-9.37532 5.5416,1.12861 13.70176,24.99618 18.71022,24.30347 -4.23455,-11.04791 -11.52176,-21.0314 -14.63678,-32.83424 -0.46056,-5.33191 -2.30843,-8.81428 -4.70613,-9.91102 -2.62826,-1.56847 -4.57496,-2.62129 -7.63681,-4.41494 -7.34239,-5.55918 -17.6302,-15.59957 -20.66121,-19.84398 l -0.65431,-0.20521 z"
           id="path3955-0"
           sodipodi:nodetypes="cssscccccc" />
        <path
           style="fill:#a3d6e8;fill-opacity:1;stroke:none"
           d="m 250.99752,159.85135 c 0.24044,-1.57293 -1.07846,-0.59281 -1.37892,0.10986 -0.30755,1.11928 -1.38223,4.6739 -2.48873,7.4601 -4.83072,13.46732 -0.46505,10.9946 0.15429,10.80798 -0.0513,-8.86489 3.05013,-14.25343 3.71336,-18.37793 z"
           id="path3958-2"
           sodipodi:nodetypes="ccccc" />
        <path
           style="fill:#a3d6e8;fill-opacity:1;stroke:none"
           d="m 247.52023,197.00005 c -1.25658,0.98721 -2.32349,4.98164 -0.77282,3.21794 3.12307,-3.55213 19.68012,-5.00678 19.68012,-5.00678 1.36924,-0.24327 5.16204,-0.13282 3.94961,-1.75052 -0.5856,-0.48728 -0.47704,-1.54792 -3.34612,-0.83091 -3.94531,0.98596 -17.84194,3.9806 -19.51079,4.37027 z"
           id="path3960-4"
           sodipodi:nodetypes="csccsc" />
        <path
           style="fill:#353e5a;fill-opacity:1;stroke:none"
           d="m 250.06365,153.57174 c -2.93628,-0.0272 -4.44203,2.73 -6.36473,5.26931 -3.34277,4.82116 -7.66307,12.07565 -10.04743,13.61765 -2.89175,1.60953 -3.13326,2.49924 -1.74198,2.76982 0.35326,-0.0534 1.23354,-0.12708 1.69147,-0.33576 1.40051,-0.63821 2.58609,-1.89048 2.87767,-2.44086 0.7123,-0.86743 1.51492,-2.65545 2.33766,-4.02128 2.63472,-3.56744 4.8099,-9.60261 7.61465,-12.10503 0.58733,-0.74403 1.30006,-1.17431 2.27243,-1.68075 0.28022,-0.11881 0.56044,-0.23762 0.84065,-0.35643 0.46674,-0.28576 0.42386,-0.49015 0.51961,-0.71667 z"
           id="path5408-5"
           sodipodi:nodetypes="ccccscccccc" />
        <path
           style="fill:#353e5a;fill-opacity:1;stroke:none"
           d="m 253.83102,186.9005 c 3.68676,-0.49831 21.98153,3.41658 22.18079,4.16211 l -1.58162,0.38922 c 0.41092,0.035 0.0611,0.12192 2.03293,-0.29478 1.10896,-0.35996 0.75101,-0.50379 -0.11564,-0.79768 -5.22608,-1.60631 -10.10301,-2.69112 -15.9095,-3.68918 -2.46046,-0.40469 -4.08702,-0.68699 -6.84577,-1.17635 -1.21363,-0.38409 -1.80179,0.57769 -0.0409,1.29194 l 0.2797,0.11472 z"
           id="path5426-8"
           sodipodi:nodetypes="ccccccccc" />
        <path
           style="fill:#fffdfd;fill-opacity:1;stroke:none"
           d="m 203.06008,206.3931 c -3.31388,2.30429 -7.32884,5.88746 -10.67948,9.06327 -0.76397,1.00928 -3.63203,4.01798 1.26047,2.79053 5.23659,-1.70715 10.19379,-3.04175 15.94154,-5.43045 1.44752,-0.59804 3.76986,-2.03904 -0.38851,-1.6083 -3.97765,2.0487 -8.54503,3.45904 -13.6712,5.15692 -1.91908,0.61761 -2.84257,0.0777 -0.63518,-1.74309 5.39592,-5.97116 12.02608,-10.99005 8.17236,-8.22888 z"
           id="path5428-4"
           sodipodi:nodetypes="cccccccc" />
        <path
           style="fill:#ffeae7;fill-opacity:1;stroke:none"
           d="m 209.6342,184.64659 c 0.90876,2.57495 1.35841,-0.901 0.79447,-1.71914 0,0 -3.39723,-4.1843 -4.18749,-4.73037 -3.22467,-3.1285 -7.60244,-6.53446 -10.07648,-9.97602 -0.48381,-0.19534 0.0734,1.91756 1.00852,3.0855 1.97282,1.834 6.88626,6.41059 10.46653,10.36806 0.69561,0.68829 1.38079,1.84945 1.99445,2.97197 z"
           id="path5430-0"
           sodipodi:nodetypes="ccccccc" />
        <path
           style="fill:#353e5a;fill-opacity:1;stroke:none"
           d="m 225.36352,176.66588 c 0.12925,0.61075 -1.99066,0.74061 -4.39114,0.23104 l -15.6577,-6.54646 c -1.87158,-0.7925 -4.12389,-1.6326 -6.94824,-2.54419 l 5.85693,1.27116 12.49362,4.87376 c 3.50548,1.11478 4.47551,1.93269 8.64653,2.71469 z"
           id="path5432-8"
           sodipodi:nodetypes="ccccccc" />
        <path
           style="fill:#fef3f0;fill-opacity:1;stroke:none"
           d="m 226.6883,210.40193 c 2.21134,-2.30176 5.58832,2.0585 6.41343,3.50712 1.49317,2.09118 2.27872,4.61932 3.21938,6.92706 2.89521,7.99023 7.64295,10.73254 6.60433,10.17691 -0.74504,0.004 -1.43637,-0.12658 -1.91494,-0.87017 -3.65701,-3.08029 -6.3663,-8.86358 -8.76504,-14.1162 -2.05922,-3.84552 -3.13885,-4.59201 -5.55716,-5.62472 z"
           id="path5434-4"
           sodipodi:nodetypes="ccccccc" />
        <path
           style="fill:#353e5a;fill-opacity:1;stroke:none"
           d="m 242.96893,229.27085 c 0.44,0.16515 1.0218,-0.0605 1.09236,-0.29509 0.68512,-1.29115 0.94416,-6.79517 0.65017,-10.11773 -0.48913,-7.5879 -0.59653,-11.02607 0.361,-14.32824 -0.33516,-0.004 -0.92665,-0.9402 -1.48915,0.36472 -1.82978,4.43983 0.66968,14.24981 0.67731,20.275 -0.0627,2.05261 -0.46935,3.52382 -1.21917,4.10134 l -0.0726,0 5e-5,0 z"
           id="path5436-2"
           sodipodi:nodetypes="ccccccccc" />
      </g>
    </g>
  </g>
</svg>
