<?xml version="1.0" encoding="UTF-8" standalone="no"?>
<!-- Created with Inkscape (http://www.inkscape.org/) -->

<svg
   xmlns:svg="http://www.w3.org/2000/svg"
   xmlns="http://www.w3.org/2000/svg"
   version="1.1"
   width="85.034691"
   height="85.710602"
   id="svg4185">
  <defs
     id="defs4187" />
  <g
     transform="translate(-191.76837,-835.22116)"
     id="layer1">
    <g
       transform="translate(34.159692,-59.613873)"
       id="g4094">
      <g
         transform="matrix(0.93500048,0,0,1,-111.14971,119.75412)"
         id="g4775-8-0">
        <rect
           width="88.111473"
           height="83.060181"
           rx="16.755211"
           ry="15.666131"
           x="288.85931"
           y="776.40613"
           id="rect4852-2-76"
           style="fill:#d66a3d;fill-opacity:1;stroke:#5b2b00;stroke-width:2.74099994;stroke-miterlimit:4;stroke-opacity:1;stroke-dasharray:none" />
        <path
           d="m 369.21204,784.6672 c -1.41648,-1.03404 -3.50661,-1.56628 -6.54191,-2.06089 -6.50965,-1.60412 -43.29178,-2.13686 -60.25428,-0.29888 -2.84393,0.17549 -3.87768,-1.10913 -5.87459,2.9366 -2.13949,7.98396 -0.56285,11.79724 1.46963,9.0844 1.91777,-2.54305 2.25675,-3.51005 4.21963,-5.20209 3.00192,-4.08573 43.96371,-4.48476 60.7615,-3.35303 3.58385,0.52652 4.99748,0.68999 6.73187,2.00763 1.13505,1.26582 1.61301,3.06154 1.99078,6.33116 0.12466,-5.95126 -1.13972,-8.42665 -2.50263,-9.4449 z"
           id="path4854-4-74"
           style="fill:#ffdab0;fill-opacity:1;stroke:none" />
        <path
           d="m 297.93497,842.94363 c 0.86361,0.93845 0.97979,2.70856 2.95462,3.86134 24.11485,3.4616 44.65171,3.97358 67.34647,2.92399 2.37516,0.24039 2.96582,-6.52593 3.41311,-11.67872 0.14881,1.76501 0.036,5.13125 -0.0281,7.39565 -0.15273,3.89653 -0.14593,5.11989 -1.01674,6.14173 -1.1895,1.81726 -0.61764,1.75559 -3.78837,2.2358 l -67.709,0.20181 c -2.71478,-1.0344 -3.30507,-1.8513 -4.95138,-5.66709 -0.68358,-2.68494 -0.83622,-3.96966 -0.82731,-8.5253 -0.0503,-3.04218 0.38077,-5.85699 1.21883,-5.59616 1.61605,1.9416 1.36829,5.43836 3.38787,8.70695 z"
           id="path4856-6-3"
           style="fill:#7f4127;fill-opacity:1;stroke:none" />
      </g>
      <path
         d="m 193.80987,914.85551 -21.16837,18.44396 -2.26804,12.97907 14.36425,-6.83109 -14.36425,23.22571 10.58418,0 13.60824,-12.97907 -0.75601,11.61286 7.56013,0.68311 9.82817,-10.24664 22.68041,-13.6622 -12.09621,-4.09866 -8.31615,4.09866 5.29209,-8.19731 12.85223,-5.46489 -6.04809,-8.1973 -15.12028,6.14799 6.0481,-10.24665 -6.80411,-3.41555 -14.36426,18.44396 -2.26804,-3.41554 6.04811,-5.46489 -5.29209,-3.41553 z"
         id="path5638-9"
         style="fill:#82d057;fill-opacity:1;stroke:#000000;stroke-width:1.11864269px;stroke-linecap:butt;stroke-linejoin:miter;stroke-opacity:1" />
    </g>
  </g>
</svg>
