<?xml version="1.0" encoding="UTF-8" standalone="no"?>
<!-- Created with Inkscape (http://www.inkscape.org/) -->

<svg
   xmlns:svg="http://www.w3.org/2000/svg"
   xmlns="http://www.w3.org/2000/svg"
   version="1.1"
   width="368.53778"
   height="373.94736"
   id="svg4183">
  <defs
     id="defs4185" />
  <g
     transform="translate(-197.47499,-363.95953)"
     id="layer1">
    <g
       transform="matrix(16.606015,0,0,16.606015,-2819.4523,-15584.588)"
       id="g4315">
      <g
         transform="translate(1.2415086,-0.31037669)"
         id="g4124">
        <path
           d="m 258.49058,577.83386 a 106.60378,106.60378 0 1 1 -213.207568,0 106.60378,106.60378 0 1 1 213.207568,0 z"
           transform="matrix(0.0758666,0.07218654,-0.07126829,0.07710007,221.18988,916.46243)"
           id="path7980-7-2-8-8"
           style="fill:#1b1d1e;fill-opacity:1;stroke:none" />
        <path
           d="m 574.28571,384.50504 a 175,175 0 1 1 -350,0 175,175 0 1 1 350,0 z"
           transform="matrix(0.05785081,0.00328328,-0.00333179,0.05870548,169.70345,948.09353)"
           id="path6247-5-8-3-9-5"
           style="fill:#34586d;fill-opacity:1;stroke:none" />
        <path
           d="m 196.06656,966.86263 c 1.28238,1.10644 4.67005,1.93783 1.96337,-1.33678 -5.3469,-5.03687 -11.1027,-1.79511 -12.9362,0.54263 -1.39636,1.5436 -2.81681,4.19672 -0.86362,1.89288 0.84506,-0.94523 5.28543,-6.20885 11.83645,-1.09873 z"
           id="path4739-6-6-7"
           style="fill:#f5f5f6;fill-opacity:1;stroke:none" />
        <path
           d="m 181.42451,973.13135 c 3.18463,6.49869 13.19465,10.97165 20.21727,-0.60032 -0.28878,4.23883 -3.31557,8.77771 -8.56313,9.78 -8.27132,0.47248 -11.1045,-5.24714 -11.65414,-9.17968 z"
           id="path4741-4-4-3"
           style="fill:#1e333f;fill-opacity:1;stroke:none" />
      </g>
      <path
         d="m 195.97282,974.79205 c 0.81978,-0.6195 1.67837,-1.1407 2.49815,-2.0648 0.65439,-1.0151 0.77262,-1.4864 0.60162,-2.5802 -0.17095,-1.0938 -0.79139,-2.212 -1.97168,-3.0949 -1.36968,-1.1382 -4.35193,-2.1094 -7.19337,-1.1263 -2.10078,0.6967 -3.57827,2.4254 -4.00827,4.3711 -0.33287,0.8412 -0.0118,2.952 0.80481,4.0548 0.86688,1.1705 1.71235,1.863 2.6984,2.2321 1.13357,0.1458 0.66079,-0.5221 0.26138,-0.8059 -0.66725,-0.6452 -1.04972,-0.9142 -1.70666,-1.7683 -0.65699,-0.854 -0.7827,-2.4513 -0.36859,-3.5497 0.42367,-1.1237 1.09373,-1.8621 2.4463,-2.2101 2.21084,-0.6148 4.53117,0.4318 4.98677,1.9133 0.45561,1.4814 -0.98766,2.2423 -0.98766,2.2423 l -2.28851,-2.6598 -0.73955,6.8804 6.95008,0.6726 -1.98322,-2.5066 z"
         id="path3777-7-3-7"
         style="fill:#e2c63e;fill-opacity:1;stroke:#1b2a2f;stroke-width:0.53399998;stroke-linecap:butt;stroke-linejoin:miter;stroke-miterlimit:4;stroke-opacity:1;stroke-dasharray:none" />
    </g>
  </g>
</svg>
