<?xml version="1.0" encoding="UTF-8" standalone="no"?>
<!-- Created with Inkscape (http://www.inkscape.org/) -->

<svg
   xmlns:dc="http://purl.org/dc/elements/1.1/"
   xmlns:cc="http://creativecommons.org/ns#"
   xmlns:rdf="http://www.w3.org/1999/02/22-rdf-syntax-ns#"
   xmlns:svg="http://www.w3.org/2000/svg"
   xmlns="http://www.w3.org/2000/svg"
   xmlns:sodipodi="http://sodipodi.sourceforge.net/DTD/sodipodi-0.dtd"
   xmlns:inkscape="http://www.inkscape.org/namespaces/inkscape"
   width="120"
   height="120"
   id="svg2992"
   version="1.1"
   inkscape:version="0.48.3.1 r9886"
   sodipodi:docname="button_sound_off.svg">
  <defs
     id="defs2994">
    <filter
       color-interpolation-filters="sRGB"
       id="filter6871"
       inkscape:collect="always">
      <feGaussianBlur
         id="feGaussianBlur6873"
         stdDeviation="5.0832983"
         inkscape:collect="always" />
    </filter>
    <filter
       color-interpolation-filters="sRGB"
       id="filter6659"
       inkscape:collect="always">
      <feGaussianBlur
         id="feGaussianBlur6661"
         stdDeviation="2.8069633"
         inkscape:collect="always" />
    </filter>
  </defs>
  <sodipodi:namedview
     id="base"
     pagecolor="#ffffff"
     bordercolor="#666666"
     borderopacity="1.0"
     inkscape:pageopacity="0.0"
     inkscape:pageshadow="2"
     inkscape:zoom="1.4"
     inkscape:cx="0.56537362"
     inkscape:cy="29.440343"
     inkscape:document-units="px"
     inkscape:current-layer="layer1"
     showgrid="false"
     inkscape:window-width="947"
     inkscape:window-height="773"
     inkscape:window-x="334"
     inkscape:window-y="15"
     inkscape:window-maximized="0"
     fit-margin-top="0"
     fit-margin-left="0"
     fit-margin-right="0"
     fit-margin-bottom="0" />
  <metadata
     id="metadata2997">
    <rdf:RDF>
      <cc:Work
         rdf:about="">
        <dc:format>image/svg+xml</dc:format>
        <dc:type
           rdf:resource="http://purl.org/dc/dcmitype/StillImage" />
        <dc:title />
      </cc:Work>
    </rdf:RDF>
  </metadata>
  <g
     inkscape:label="Layer 1"
     inkscape:groupmode="layer"
     id="layer1"
     transform="translate(-374.43463,-539.23183)">
    <g
       transform="translate(-950.91701,-214.10809)"
       id="g4115">
      <path
         clip-path="none"
         transform="matrix(0.41729804,0.34908584,-0.34908585,0.41729804,1523.6832,519.18945)"
         d="m 258.49058,577.83386 c 0,58.87565 -47.72814,106.60378 -106.60378,106.60378 -58.875648,0 -106.603788,-47.72813 -106.603788,-106.60378 0,-58.87564 47.72814,-106.60378 106.603788,-106.60378 58.87564,0 106.60378,47.72814 106.60378,106.60378 z"
         sodipodi:ry="106.60378"
         sodipodi:rx="106.60378"
         sodipodi:cy="577.83386"
         sodipodi:cx="151.8868"
         id="path4117"
         style="fill:#34586d;fill-opacity:1;stroke:#000000;stroke-width:7.35221863;stroke-miterlimit:4;stroke-opacity:1;stroke-dasharray:none"
         sodipodi:type="arc" />
      <path
         clip-path="none"
         inkscape:connector-curvature="0"
         sodipodi:nodetypes="ccccc"
         id="path4119"
         d="m 1409.1446,782.67297 c 7.1563,5.49897 25.4297,8.89911 10.0415,-7.70442 -29.9661,-25.18157 -59.6079,-6.1977 -68.6563,6.7926 -6.9625,8.63348 -13.7181,23.17689 -4.0229,10.33078 4.2104,-5.28371 26.2437,-34.62666 62.6377,-9.41896 z"
         style="fill:#f5f5f6;fill-opacity:1;stroke:none" />
      <path
         clip-path="none"
         inkscape:connector-curvature="0"
         sodipodi:nodetypes="cccc"
         id="path4121"
         d="m 1329.2531,820.08964 c 26.3289,43.15715 79.8717,54.73843 113.7379,-8.94436 -0.2563,22.63766 -13.5743,48.75884 -45.0775,56.73603 -37.143,8.19292 -64.1954,-19.25848 -68.6604,-47.79167 z"
         style="fill:#1e333f;fill-opacity:1;stroke:none" />
    </g>
    <g
       id="g4952"
       transform="translate(157.14286,-20.357143)">
      <path
         sodipodi:nodetypes="ccccccc"
         id="path4230-1"
         d="m 240.89394,608.57912 c 1.98578,9.67175 2.69272,18.44634 2.30501,28.1181 l 12.48596,-5.82222 c 16.36311,9.75504 34.86327,20.07459 36.15357,18.09674 -3.69597,-19.98964 -4.96522,-40.41804 -2.0777,-59.24319 -1.40332,-2.54533 -19.49649,12.31849 -35.18457,22.27207 l -13.68227,-3.4215 z"
         style="fill:#83acc4;fill-opacity:1;stroke:#0f1b20;stroke-width:2.62696338;stroke-miterlimit:4;stroke-opacity:1;stroke-dasharray:none"
         inkscape:connector-curvature="0" />
      <path
         sodipodi:nodetypes="ccccc"
         id="path4338"
         d="m 303.63813,583.25535 10.98145,4.55216 c -23.53487,22.89828 -43.56842,46.19459 -62.59702,68.12025 l -7.72455,-3.71686 59.34012,-68.95555 z"
         style="fill:#83acc4;fill-opacity:1;stroke:#142b2d;stroke-width:2.66426301;stroke-linecap:butt;stroke-linejoin:miter;stroke-miterlimit:4;stroke-opacity:1;stroke-dasharray:none"
         inkscape:connector-curvature="0" />
    </g>
  </g>
</svg>
