<?xml version="1.0" encoding="utf-8"?>
<!-- Generator: Adobe Illustrator 15.0.2, SVG Export Plug-In . SVG Version: 6.00 Build 0)  -->
<!DOCTYPE svg PUBLIC "-//W3C//DTD SVG 1.1//EN" "http://www.w3.org/Graphics/SVG/1.1/DTD/svg11.dtd">
<svg version="1.1" id="Layer_1" xmlns="http://www.w3.org/2000/svg" xmlns:xlink="http://www.w3.org/1999/xlink" x="0px" y="0px"
	 width="261.37px" height="135.44px" viewBox="0 0 261.37 135.44" enable-background="new 0 0 261.37 135.44" xml:space="preserve">
<g>
	<g>
		<g>
			<path fill="#010101" d="M178.763,87.895c6.893,0,10.429,3.066,10.429,8.961c0,5.359-5.555,8.582-9.921,8.582
				c0,0,11.206,16.193,12.698,18.33c7.977,11.461,18.666,11.693,18.614,11.666c-11.049-6.346-16.384-16.697-24.16-29.07
				c5.363-2.063,8.191-5.717,8.191-10.313c0-6.836-5.657-10.313-16.794-10.313c-2.829,0-5.659,0.174-8.544,0.174
				c-1.474,0-2.947-0.059-4.54-0.115v1.473c4.48,0.236,5.07,0.826,5.07,4.008v29.521c0,3.773-0.708,4.715-5.07,4.715v1.477
				c2.771-0.123,5.656-0.182,8.604-0.182c2.649,0,5.067,0.059,7.249,0.182v-1.533c-0.118,0-0.177,0-0.235,0
				c-4.772,0-4.892-1.531-4.892-6.953c0-0.234,0-0.531,0-0.768l-0.013-29.76C175.45,87.975,177.878,87.895,178.763,87.895z"/>
			<path fill="#010101" d="M0,128.898c5.133,0,5.965-1.109,5.965-5.551V88.605c0-3.746-0.693-4.441-5.965-4.717v-1.734
				c2.981,0.211,6.104,0.211,9.362,0.211c3.674,0,6.795-0.072,9.292-0.211v1.734c-5.824,0.207-6.032,1.805-6.032,7.35v12.76h27.739
				V88.605c0-4.094-0.209-4.299-5.896-4.717v-1.734c2.705,0.139,5.825,0.211,9.224,0.211c1.455,0,4.507-0.072,9.292-0.211v1.734
				c-5.756,0.275-5.894,1.73-5.894,6.658c0,0.207,0,0.484,0,0.691v32.043c0,4.229,0.832,5.545,5.894,5.617v1.732
				c-2.635-0.141-5.478-0.209-8.599-0.209c-3.605,0-6.865,0.068-9.917,0.209v-1.732c0.139,0,0.277,0,0.416,0
				c4.438,0,5.479-1.18,5.479-5.551v-16.158H12.621v12.553c0,0.277,0,0.623,0,0.9c0,6.383,0.138,8.184,5.757,8.184
				c0.067,0,0.137,0,0.275,0v1.805c-2.565-0.139-5.409-0.209-8.53-0.209c-3.467,0-6.863,0.07-10.124,0.209L0,128.898L0,128.898z"/>
			<path fill="#010101" d="M52.757,125.516c4.36,0,5.126-0.941,5.126-4.717V91.277c0-3.182-0.648-3.771-5.126-4.006v-1.475
				c3.712,0.059,7.543,0.119,11.49,0.119c7.955,0,13.612-0.119,17.09-0.178v9.131h-1.238c-0.295-5.535-3.3-7.068-10.312-7.068
				h-6.188v16.502h5.147c3.595,0,5.008-1.121,5.066-4.953h1.592c-0.233,2.182-0.354,3.949-0.354,5.42
				c0,2.418,0.176,5.07,0.412,7.898H73.93c0-0.176,0-0.295,0-0.473c0-4.832-1.886-5.303-7.365-5.303h-2.967v12.314
				c0,5.365,0.714,5.895,7.432,5.895c6.896,0,9.784-1,12.14-7.307l1.413,0.408c-0.824,2.064-1.766,5.133-2.532,9.02
				c-11.903-0.293-18.452-0.352-21.337-0.352c-2.652,0-5.306,0.059-7.956,0.117V125.516L52.757,125.516z"/>
			<path fill="#010101" d="M160.416,90.98c-4.952-4.008-10.899-5.066-18.855-5.066c-2.947,0-5.836,0.119-8.782,0.119
				c-1.71,0-7.73-0.178-10.677-0.178c-2.771,0-5.188-0.061-7.19-0.117v1.59c0.178,0,0.354,0,0.589,0
				c5.363,0,6.188,2.535,6.188,9.662v20.629L92.991,85.854c-2.182,0.119-3.831,0.119-5.066,0.119c-0.825,0-2.534,0-5.01-0.059v1.529
				c5.187,0.18,6.835,1.83,6.835,6.307v21.98c0,7.012,0,9.725-5.716,9.725c-0.06,0-0.119,0-0.176,0v1.473
				c2.771-0.119,5.187-0.178,7.307-0.178c2.239,0,5.066,0.059,8.366,0.178v-1.531c-6.599,0-7.188-2.359-7.188-9.605V93.574
				l30.584,34h1.297v-31.17c0-6.428,0.639-9.133,4.795-9.129c4.16,0.002,3.604,2.75,3.938,4.002v29.521
				c0,3.773-0.705,4.717-5.065,4.717v1.475c3.063-0.117,5.773-0.18,8.13-0.18c1.945,0,4.127,0.18,6.543,0.18
				c16.202,0,25.221-8.191,25.221-20.805C167.782,100.174,165.189,94.869,160.416,90.98z M144.504,124.867
				c-5.42,0-5.95-2.123-5.95-7.543V87.857c1.001-0.057,1.943-0.117,2.887-0.117c12.67,0,20.035,7.367,20.035,19.209
				C161.476,117.912,155.052,124.867,144.504,124.867z"/>
			<path fill="#010101" d="M200.753,125.379c4.361,0,5.066-0.807,5.066-4.58V91.277c0-3.182-0.589-3.771-5.066-4.006v-1.475
				c2.413,0.119,5.066,0.178,7.953,0.178c2.655,0,5.244,0,7.896-0.178v1.475c-4.949,0.174-5.125,1.531-5.125,6.244v24.221
				c0,0.234,0,0.531,0,0.768c0,5.42,0.117,6.953,4.89,6.953c0.061,0,0.117,0,0.235,0v1.533c-2.179-0.117-4.594-0.18-7.247-0.18
				c-2.945,0-5.834-0.076-8.604,0.041v-1.473H200.753z"/>
			<path fill="#010101" d="M218.887,125.398c3.828-0.18,5.598-1.709,7.776-4.539l10.725-13.967l-12.021-16.146
				c-0.883-1.18-1.709-2.064-3.007-2.65c-0.885-0.412-1.941-0.65-3.183-0.768v-1.475c1.945,0.236,4.423,0.293,7.485,0.293
				c3.3,0,6.188-0.057,8.722-0.293v1.418c-2.595,0.057-3.947,0.705-3.947,1.59c0,0.705,0.766,1.943,2.119,3.77l7.308,9.842
				l6.307-8.074c1.887-2.477,2.827-4.303,2.827-5.301c0-1.414-1.001-1.533-3.712-1.826v-1.418c1.943,0.18,4.008,0.236,6.129,0.236
				c1.944,0,4.536-0.057,7.838-0.236v1.418c-4.36,0.174-6.481,2.178-9.312,5.949l-8.544,11.197l10.606,14.381
				c3.182,4.299,5.187,6.717,7.956,6.717c0.176,0,0.293,0,0.412,0v1.414c-2.062-0.059-4.185-0.119-6.246-0.119
				c-2.89,0-5.776,0.063-8.781,0.18v-1.533c0.234,0,0.473,0,0.705,0c1.71,0,2.479-0.238,2.479-1.238c0-0.59-0.531-1.475-1.477-2.711
				l-9.19-12.375l-8.189,11.018c-1.355,1.828-2.063,3.008-2.063,3.713c0,1.182,1.239,1.596,3.831,1.596c0.176,0,0.412,0,0.59,0
				v1.531c-2.356-0.18-5.008-0.236-7.84-0.236c-3.533,0-5.596,0-6.302,0.059V125.398L218.887,125.398z"/>
		</g>
		<g>
			<rect x="104.268" fill="#010101" width="52.062" height="4.59"/>
			<path fill="#F58329" d="M104.106,7.37v24.849c0,0,0.712,14.083,8.979,25.718c6.552,9.219,17.224,13.833,17.224,13.833
				s10.676-4.614,17.23-13.833c8.265-11.634,8.979-25.718,8.979-25.718V7.37H104.106z M121.217,50h-12.07V35.972
				c0,0,0.163-3.245,2.066-5.924c1.511-2.125,3.971-3.188,3.971-3.188s2.457,1.063,3.967,3.188c1.904,2.679,2.066,5.924,2.066,5.924
				V50L121.217,50z M136.484,50h-12.073V35.972c0,0,0.162-3.245,2.066-5.924c1.51-2.125,3.969-3.188,3.969-3.188
				s2.459,1.063,3.97,3.188c1.901,2.679,2.067,5.924,2.067,5.924L136.484,50L136.484,50z M151.599,50h-12.074V35.972
				c0,0,0.165-3.245,2.069-5.924c1.511-2.125,3.969-3.188,3.969-3.188s2.459,1.063,3.968,3.188c1.903,2.679,2.068,5.924,2.068,5.924
				V50L151.599,50z"/>
			<g>
				<path fill="#FFFFFF" d="M118.787,19c0.098,0.087,0.323,0.174,0.441,0.174c0.107,0,0.118,0.108,0,0.108h-2.479
					c-0.118,0-0.106-0.108,0-0.108c0.12,0,0.335-0.087,0.442-0.174c0.301-0.236,0.355-0.41,0.355-0.959v-2.25
					c0-0.55-0.056-0.722-0.355-0.958c-0.107-0.088-0.322-0.175-0.442-0.175c-0.106,0-0.118-0.107,0-0.107h2.479
					c0.118,0,0.107,0.107,0,0.107c-0.118,0-0.345,0.087-0.441,0.175c-0.302,0.236-0.355,0.439-0.355,0.958v2.25
					C118.432,18.559,118.486,18.765,118.787,19z"/>
				<path fill="#FFFFFF" d="M127.912,17.784c-0.053,0.634-0.279,1.045-1.021,1.421c-0.68,0.355-1.769,0.163-2.273-0.128
					c-0.484-0.28-0.744-0.731-0.766-1.173c-0.021-0.853,0.42-1.694,1.325-1.973c-0.786-0.593-1.143-1.476-0.979-2.273
					c0.107-0.526,0.355-0.829,0.926-1.077c0.507-0.215,1.401-0.162,1.93,0.151c0.454,0.292,0.646,0.679,0.669,1.109
					c0.042,0.701-0.334,1.456-1.047,1.711C127.613,16.038,127.988,16.899,127.912,17.784z M125.575,14.938
					c0.203,0.142,0.818,0.442,0.818,0.442c0.41-0.192,0.615-0.646,0.679-1.022c0.063-0.41-0.054-1.088-0.496-1.466
					c-0.388-0.313-0.894-0.335-1.271-0.205c-0.322,0.119-0.561,0.443-0.592,0.722C124.639,13.916,124.874,14.464,125.575,14.938z
					 M124.714,18.302c0.228,0.504,0.636,0.754,1.013,0.818c0.388,0.064,0.914-0.032,1.195-0.323c0.303-0.303,0.355-0.669,0.292-0.98
					c-0.175-0.818-1.443-1.627-1.789-1.703c0,0-0.441,0.195-0.646,0.602C124.553,17.159,124.54,17.903,124.714,18.302z"/>
				<path fill="#FFFFFF" d="M136.006,14.647c-0.033,0.087-1.221,4.086-1.221,4.086c-1.028,2.979-2.349,3.485-2.349,3.485
					s0.727-1.306,1.242-2.775l1.26-4.19h-1.801c-0.938,0-1.229,0.119-1.453,0.85c-0.012,0.032-0.119,0.063-0.088-0.032l0.367-1.423
					L136.006,14.647L136.006,14.647z"/>
				<path fill="#FFFFFF" d="M143.827,12.385c-1.702,0.163-3.458,1.982-3.458,3.987c0.731-0.71,1.528-1.001,2.351-0.797
					c0.548,0.128,1.056,0.539,1.27,1.164c0.174,0.506,0.095,1.228-0.301,1.755c-0.563,0.733-1.616,0.885-2.102,0.841
					c-0.732-0.043-1.411-0.323-1.887-1.132c-0.56-0.981-0.397-2.425,0.098-3.438c0.784-1.595,3.112-2.521,4.029-2.5
					C143.883,12.266,143.883,12.376,143.827,12.385z M140.369,17.051c-0.043,0.271,0.12,1.24,0.569,1.638
					c0.421,0.367,0.928,0.419,1.306,0.312c0.494-0.151,0.666-0.398,0.808-0.873c0.099-0.378-0.013-1.196-0.332-1.563
					c-0.378-0.408-0.896-0.483-1.284-0.419c-0.172,0.032-0.271,0.063-0.39,0.107C140.682,16.416,140.423,16.728,140.369,17.051z"/>
			</g>
		</g>
	</g>
</g>
</svg>
