<?xml version="1.0" encoding="UTF-8" standalone="no"?>
<!-- Created with Inkscape (http://www.inkscape.org/) -->

<svg
   xmlns:dc="http://purl.org/dc/elements/1.1/"
   xmlns:cc="http://creativecommons.org/ns#"
   xmlns:rdf="http://www.w3.org/1999/02/22-rdf-syntax-ns#"
   xmlns:svg="http://www.w3.org/2000/svg"
   xmlns="http://www.w3.org/2000/svg"
   xmlns:sodipodi="http://sodipodi.sourceforge.net/DTD/sodipodi-0.dtd"
   xmlns:inkscape="http://www.inkscape.org/namespaces/inkscape"
   width="744.09448819"
   height="1052.3622047"
   id="svg2924"
   version="1.1"
   inkscape:version="0.47 r22583"
   sodipodi:docname="button_play.svg">
  <defs
     id="defs2926">
    <inkscape:perspective
       sodipodi:type="inkscape:persp3d"
       inkscape:vp_x="0 : 526.18109 : 1"
       inkscape:vp_y="0 : 1000 : 0"
       inkscape:vp_z="744.09448 : 526.18109 : 1"
       inkscape:persp3d-origin="372.04724 : 350.78739 : 1"
       id="perspective2932" />
    <inkscape:perspective
       id="perspective2942"
       inkscape:persp3d-origin="0.5 : 0.33333333 : 1"
       inkscape:vp_z="1 : 0.5 : 1"
       inkscape:vp_y="0 : 1000 : 0"
       inkscape:vp_x="0 : 0.5 : 1"
       sodipodi:type="inkscape:persp3d" />
    <filter
       id="filter8582"
       y="-0.25"
       height="1.5"
       inkscape:menu-tooltip="Darkens the edge with an inner blur and adds a flexible glow"
       inkscape:menu="Shadows and Glows"
       inkscape:label="Dark and Glow"
       color-interpolation-filters="sRGB">
      <feGaussianBlur
         id="feGaussianBlur8584"
         stdDeviation="5"
         result="result6" />
      <feComposite
         id="feComposite8586"
         in2="result6"
         result="result8"
         in="SourceGraphic"
         operator="atop" />
      <feComposite
         id="feComposite8588"
         in2="SourceAlpha"
         result="result9"
         operator="over"
         in="result8" />
      <feColorMatrix
         id="feColorMatrix8590"
         values="1 0 0 0 0 0 1 0 0 0 0 0 1 0 0 0 0 0 1 0 "
         result="result10" />
      <feBlend
         id="feBlend8592"
         in2="result6"
         in="result10"
         mode="normal" />
    </filter>
    <inkscape:perspective
       id="perspective5549"
       inkscape:persp3d-origin="0.5 : 0.33333333 : 1"
       inkscape:vp_z="1 : 0.5 : 1"
       inkscape:vp_y="0 : 1000 : 0"
       inkscape:vp_x="0 : 0.5 : 1"
       sodipodi:type="inkscape:persp3d" />
  </defs>
  <sodipodi:namedview
     id="base"
     pagecolor="#ffffff"
     bordercolor="#666666"
     borderopacity="1.0"
     inkscape:pageopacity="0.0"
     inkscape:pageshadow="2"
     inkscape:zoom="0.35"
     inkscape:cx="403.57143"
     inkscape:cy="491.42857"
     inkscape:document-units="px"
     inkscape:current-layer="layer1"
     showgrid="false"
     inkscape:window-width="613"
     inkscape:window-height="772"
     inkscape:window-x="985"
     inkscape:window-y="24"
     inkscape:window-maximized="0" />
  <metadata
     id="metadata2929">
    <rdf:RDF>
      <cc:Work
         rdf:about="">
        <dc:format>image/svg+xml</dc:format>
        <dc:type
           rdf:resource="http://purl.org/dc/dcmitype/StillImage" />
        <dc:title />
      </cc:Work>
    </rdf:RDF>
  </metadata>
  <g
     inkscape:label="Layer 1"
     inkscape:groupmode="layer"
     id="layer1">
    <g
       transform="translate(3.3821705,-685.00395)"
       id="g5535">
      <rect
         transform="matrix(0.99996751,-0.00806111,0.00806111,0.99996751,0,0)"
         ry="15.666134"
         y="1088.4501"
         x="281.89676"
         height="74.752914"
         width="108.45602"
         id="rect4852"
         style="fill:#69ae4c;fill-opacity:1;stroke:#003f05;stroke-width:3.37388444;stroke-miterlimit:4;stroke-opacity:1;stroke-dasharray:none"
         rx="15.666134" />
      <path
         sodipodi:nodetypes="cccccccccc"
         id="path4854"
         d="m 389.57254,1095.5138 c -1.79531,-1.2584 -4.43458,-1.8922 -8.26459,-2.4702 -8.2194,-1.9083 -54.57771,-2.1904 -75.93569,0.2442 -3.58219,0.2449 -4.89767,-1.3257 -7.37404,3.6743 -2.61698,9.8488 -0.59225,14.5264 1.94217,11.1666 2.39155,-3.1496 2.80914,-4.3433 5.26598,-6.4459 3.74249,-5.0594 55.35878,-5.9667 76.53865,-4.7444 4.5216,0.6117 6.30469,0.7986 8.50346,2.4028 1.44295,1.5465 2.0631,3.7519 2.57161,7.7725 0.098,-7.3264 -1.5199,-10.3604 -3.24755,-11.5999 z"
         style="fill:#cae3c0;fill-opacity:1;stroke:none" />
      <path
         sodipodi:nodetypes="cccccccccccc"
         id="path4856"
         d="m 302.27618,1141.0903 c 1.0723,1.1466 1.23286,3.3242 3.67503,4.7235 29.71624,4.0214 54.99923,4.4478 82.92278,2.9308 2.92587,0.2723 3.58575,-8.062 4.08517,-14.4087 0.20068,2.171 0.0952,6.3154 0.0388,9.1032 -0.14932,4.7976 -0.12881,6.3033 -1.19052,7.5697 -1.44607,2.2486 -0.7428,2.167 -4.64075,2.7895 l -83.33799,0.9203 c -3.35176,-1.2463 -4.08643,-2.2459 -6.15066,-6.9263 -0.86803,-3.298 -1.06866,-4.8778 -1.10289,-10.4852 -0.0921,-3.744 0.41055,-7.2129 1.44467,-6.9001 2.00839,2.3738 1.73813,6.6802 4.25637,10.6833 z"
         style="fill:#304f22;fill-opacity:1;stroke:none" />
      <path
         sodipodi:nodetypes="cccc"
         id="path6704"
         d="m 323.84456,1102.2057 1.72076,40.9962 58.65548,-24.8085 -60.37624,-16.1877 z"
         style="fill:#efd55a;fill-opacity:1;stroke:#00420c;stroke-width:3.29688859;stroke-linecap:butt;stroke-linejoin:miter;stroke-miterlimit:4;stroke-opacity:1;stroke-dasharray:none" />
    </g>
  </g>
</svg>
