<?xml version="1.0" encoding="UTF-8" standalone="no"?>
<!-- Created with Inkscape (http://www.inkscape.org/) -->

<svg
   xmlns:dc="http://purl.org/dc/elements/1.1/"
   xmlns:cc="http://creativecommons.org/ns#"
   xmlns:rdf="http://www.w3.org/1999/02/22-rdf-syntax-ns#"
   xmlns:svg="http://www.w3.org/2000/svg"
   xmlns="http://www.w3.org/2000/svg"
   xmlns:sodipodi="http://sodipodi.sourceforge.net/DTD/sodipodi-0.dtd"
   xmlns:inkscape="http://www.inkscape.org/namespaces/inkscape"
   width="744.09448819"
   height="1052.3622047"
   id="svg2924"
   version="1.1"
   inkscape:version="0.47 r22583"
   sodipodi:docname="New document 2">
  <defs
     id="defs2926">
    <inkscape:perspective
       sodipodi:type="inkscape:persp3d"
       inkscape:vp_x="0 : 526.18109 : 1"
       inkscape:vp_y="0 : 1000 : 0"
       inkscape:vp_z="744.09448 : 526.18109 : 1"
       inkscape:persp3d-origin="372.04724 : 350.78739 : 1"
       id="perspective2932" />
    <inkscape:perspective
       id="perspective2942"
       inkscape:persp3d-origin="0.5 : 0.33333333 : 1"
       inkscape:vp_z="1 : 0.5 : 1"
       inkscape:vp_y="0 : 1000 : 0"
       inkscape:vp_x="0 : 0.5 : 1"
       sodipodi:type="inkscape:persp3d" />
    <filter
       id="filter8582"
       y="-0.25"
       height="1.5"
       inkscape:menu-tooltip="Darkens the edge with an inner blur and adds a flexible glow"
       inkscape:menu="Shadows and Glows"
       inkscape:label="Dark and Glow"
       color-interpolation-filters="sRGB">
      <feGaussianBlur
         id="feGaussianBlur8584"
         stdDeviation="5"
         result="result6" />
      <feComposite
         id="feComposite8586"
         in2="result6"
         result="result8"
         in="SourceGraphic"
         operator="atop" />
      <feComposite
         id="feComposite8588"
         in2="SourceAlpha"
         result="result9"
         operator="over"
         in="result8" />
      <feColorMatrix
         id="feColorMatrix8590"
         values="1 0 0 0 0 0 1 0 0 0 0 0 1 0 0 0 0 0 1 0 "
         result="result10" />
      <feBlend
         id="feBlend8592"
         in2="result6"
         in="result10"
         mode="normal" />
    </filter>
  </defs>
  <sodipodi:namedview
     id="base"
     pagecolor="#ffffff"
     bordercolor="#666666"
     borderopacity="1.0"
     inkscape:pageopacity="0.0"
     inkscape:pageshadow="2"
     inkscape:zoom="0.35"
     inkscape:cx="403.57143"
     inkscape:cy="491.42857"
     inkscape:document-units="px"
     inkscape:current-layer="layer1"
     showgrid="false"
     inkscape:window-width="613"
     inkscape:window-height="772"
     inkscape:window-x="985"
     inkscape:window-y="24"
     inkscape:window-maximized="0" />
  <metadata
     id="metadata2929">
    <rdf:RDF>
      <cc:Work
         rdf:about="">
        <dc:format>image/svg+xml</dc:format>
        <dc:type
           rdf:resource="http://purl.org/dc/dcmitype/StillImage" />
        <dc:title></dc:title>
      </cc:Work>
    </rdf:RDF>
  </metadata>
  <g
     inkscape:label="Layer 1"
     inkscape:groupmode="layer"
     id="layer1">
    <g
       id="g8184"
       style="filter:url(#filter8582)"
       transform="translate(-46.852498,175.93806)">
      <rect
         rx="15.666131"
         ry="15.666131"
         y="266.05887"
         x="348.51105"
         height="60.730511"
         width="88.111473"
         id="rect4852"
         style="fill:#70bb1b;fill-opacity:1;stroke:#003f05;stroke-width:2.74099994;stroke-miterlimit:4;stroke-opacity:1;stroke-dasharray:none" />
      <path
         sodipodi:nodetypes="cccccccccc"
         id="path4854"
         d="m 428.80387,274.31994 c -1.45025,-1.03404 -3.59022,-1.56628 -6.6979,-2.06089 -6.66486,-1.60412 -44.32405,-2.13686 -61.69101,-0.29888 -2.91174,0.17549 -3.97014,-1.10913 -6.01466,2.9366 -2.19051,7.98396 -0.57627,11.79724 1.50467,9.0844 1.9635,-2.54305 2.31056,-3.51005 4.32024,-5.20209 3.0735,-4.08573 45.01201,-4.48476 62.21033,-3.35303 3.6693,0.52652 5.11664,0.68999 6.89239,2.00763 1.16211,1.26582 1.65147,3.06154 2.03825,6.33116 0.12763,-5.95126 -1.1669,-8.42665 -2.56231,-9.4449 z"
         style="fill:#d1f6b4;fill-opacity:1;stroke:none" />
      <path
         sodipodi:nodetypes="cccccccccccc"
         id="path4856"
         d="m 357.58668,310.77418 c 0.86361,0.93845 0.97979,2.70856 2.95462,3.86134 24.11485,3.4616 44.65171,3.97358 67.34647,2.92399 2.37516,0.24039 2.96582,-6.52593 3.41311,-11.67872 0.14881,1.76501 0.036,5.13125 -0.0281,7.39565 -0.15273,3.89653 -0.14593,5.11989 -1.01674,6.14173 -1.1895,1.81726 -0.61764,1.75559 -3.78837,2.2358 l -67.709,0.20181 c -2.71478,-1.0344 -3.30507,-1.8513 -4.95138,-5.66709 -0.68358,-2.68494 -0.83622,-3.96966 -0.82731,-8.5253 -0.0503,-3.04218 0.38077,-5.85699 1.21883,-5.59616 1.61605,1.9416 1.36829,5.43836 3.38787,8.70695 z"
         style="fill:#16600b;fill-opacity:1;stroke:none" />
      <path
         sodipodi:nodetypes="cccc"
         id="path6704"
         d="m 375.36327,279.32589 1.12945,33.31623 47.81361,-19.77006 -48.94306,-13.54617 z"
         style="fill:#edfc1b;fill-opacity:1;stroke:#1b2800;stroke-width:2.67844725;stroke-linecap:butt;stroke-linejoin:miter;stroke-miterlimit:4;stroke-opacity:1;stroke-dasharray:none" />
    </g>
  </g>
</svg>
