<?xml version="1.0" encoding="UTF-8" standalone="no"?>
<!-- Created with Inkscape (http://www.inkscape.org/) -->

<svg
   xmlns:dc="http://purl.org/dc/elements/1.1/"
   xmlns:cc="http://creativecommons.org/ns#"
   xmlns:rdf="http://www.w3.org/1999/02/22-rdf-syntax-ns#"
   xmlns:svg="http://www.w3.org/2000/svg"
   xmlns="http://www.w3.org/2000/svg"
   xmlns:xlink="http://www.w3.org/1999/xlink"
   xmlns:sodipodi="http://sodipodi.sourceforge.net/DTD/sodipodi-0.dtd"
   xmlns:inkscape="http://www.inkscape.org/namespaces/inkscape"
   width="744.09448819"
   height="1052.3622047"
   id="svg2993"
   version="1.1"
   inkscape:version="0.47 r22583"
   sodipodi:docname="gcardboardbox.svg">
  <defs
     id="defs2995">
    <linearGradient
       id="linearGradient5834">
      <stop
         style="stop-color:#e1c097;stop-opacity:1;"
         offset="0"
         id="stop5836" />
      <stop
         style="stop-color:#d9af7a;stop-opacity:1;"
         offset="1"
         id="stop5838" />
    </linearGradient>
    <linearGradient
       inkscape:collect="always"
       id="linearGradient5818">
      <stop
         style="stop-color:#000000;stop-opacity:1;"
         offset="0"
         id="stop5820" />
      <stop
         style="stop-color:#000000;stop-opacity:0;"
         offset="1"
         id="stop5822" />
    </linearGradient>
    <linearGradient
       id="linearGradient5790">
      <stop
         style="stop-color:#e2c299;stop-opacity:1;"
         offset="0"
         id="stop5792" />
      <stop
         style="stop-color:#d1a975;stop-opacity:1;"
         offset="1"
         id="stop5794" />
    </linearGradient>
    <linearGradient
       id="linearGradient5428">
      <stop
         style="stop-color:#000000;stop-opacity:1;"
         offset="0"
         id="stop5430" />
      <stop
         style="stop-color:#99bce2;stop-opacity:0;"
         offset="1"
         id="stop5432" />
    </linearGradient>
    <linearGradient
       id="linearGradient3937">
      <stop
         style="stop-color:#644527;stop-opacity:1;"
         offset="0"
         id="stop3939" />
      <stop
         id="stop3945"
         offset="0.51319259"
         style="stop-color:#936639;stop-opacity:1;" />
      <stop
         style="stop-color:#674728;stop-opacity:0.99199998;"
         offset="1"
         id="stop3941" />
    </linearGradient>
    <linearGradient
       id="linearGradient3929">
      <stop
         style="stop-color:#583d22;stop-opacity:1;"
         offset="0"
         id="stop3931" />
      <stop
         style="stop-color:#8d6237;stop-opacity:0.97600001;"
         offset="1"
         id="stop3933" />
    </linearGradient>
    <linearGradient
       id="linearGradient3895">
      <stop
         style="stop-color:#d5a869;stop-opacity:1;"
         offset="0"
         id="stop3897" />
      <stop
         style="stop-color:#ecd6b9;stop-opacity:1;"
         offset="1"
         id="stop3899" />
    </linearGradient>
    <linearGradient
       id="linearGradient3115">
      <stop
         style="stop-color:#bdb695;stop-opacity:1;"
         offset="0"
         id="stop3117" />
      <stop
         style="stop-color:#000000;stop-opacity:0;"
         offset="1"
         id="stop3119" />
    </linearGradient>
    <inkscape:perspective
       sodipodi:type="inkscape:persp3d"
       inkscape:vp_x="0 : 526.18109 : 1"
       inkscape:vp_y="0 : 1000 : 0"
       inkscape:vp_z="744.09448 : 526.18109 : 1"
       inkscape:persp3d-origin="372.04724 : 350.78739 : 1"
       id="perspective3001" />
    <inkscape:perspective
       id="perspective3071"
       inkscape:persp3d-origin="0.5 : 0.33333333 : 1"
       inkscape:vp_z="1 : 0.5 : 1"
       inkscape:vp_y="0 : 1000 : 0"
       inkscape:vp_x="0 : 0.5 : 1"
       sodipodi:type="inkscape:persp3d" />
    <linearGradient
       inkscape:collect="always"
       xlink:href="#linearGradient3895"
       id="linearGradient3901"
       x1="517.28571"
       y1="414.14789"
       x2="200.21429"
       y2="414.14789"
       gradientUnits="userSpaceOnUse" />
    <linearGradient
       inkscape:collect="always"
       xlink:href="#linearGradient3929"
       id="linearGradient3935"
       x1="290.30786"
       y1="335.02032"
       x2="280.83411"
       y2="474.41101"
       gradientUnits="userSpaceOnUse" />
    <linearGradient
       inkscape:collect="always"
       xlink:href="#linearGradient3937"
       id="linearGradient3943"
       x1="257.14459"
       y1="353.58691"
       x2="465.60645"
       y2="353.58691"
       gradientUnits="userSpaceOnUse" />
    <filter
       inkscape:collect="always"
       id="filter5728"
       x="-0.18321708"
       width="1.3664342"
       y="-0.2142707"
       height="1.4285414">
      <feGaussianBlur
         inkscape:collect="always"
         stdDeviation="1.5498066"
         id="feGaussianBlur5730" />
    </filter>
    <filter
       inkscape:collect="always"
       id="filter5746"
       x="-0.37559085"
       width="1.7511817"
       y="-0.51551679"
       height="2.0310336">
      <feGaussianBlur
         inkscape:collect="always"
         stdDeviation="3.2231141"
         id="feGaussianBlur5748" />
    </filter>
    <filter
       inkscape:collect="always"
       id="filter5776"
       x="-0.32592599"
       width="1.651852"
       y="-0.41583643"
       height="1.8316729">
      <feGaussianBlur
         inkscape:collect="always"
         stdDeviation="2.9567408"
         id="feGaussianBlur5778" />
    </filter>
    <filter
       inkscape:collect="always"
       id="filter5786"
       x="-0.38157177"
       width="1.7631435"
       y="-0.50465957"
       height="2.0093191">
      <feGaussianBlur
         inkscape:collect="always"
         stdDeviation="3.7289737"
         id="feGaussianBlur5788" />
    </filter>
    <radialGradient
       inkscape:collect="always"
       xlink:href="#linearGradient5818"
       id="radialGradient5826"
       cx="361.59781"
       cy="414.49069"
       fx="361.59781"
       fy="414.49069"
       r="129.36888"
       gradientTransform="matrix(1,0,0,0.86354315,0,56.560097)"
       gradientUnits="userSpaceOnUse" />
    <radialGradient
       inkscape:collect="always"
       xlink:href="#linearGradient5834"
       id="radialGradient5840"
       cx="362.03326"
       cy="413.11804"
       fx="362.03326"
       fy="413.11804"
       r="72.87841"
       gradientTransform="matrix(-0.05503632,-2.0418492,0.84101521,-0.02268502,34.519684,1162.2355)"
       gradientUnits="userSpaceOnUse" />
    <linearGradient
       inkscape:collect="always"
       xlink:href="#linearGradient3895"
       id="linearGradient6808"
       gradientUnits="userSpaceOnUse"
       x1="517.28571"
       y1="414.14789"
       x2="200.21429"
       y2="414.14789" />
    <linearGradient
       inkscape:collect="always"
       xlink:href="#linearGradient3895"
       id="linearGradient7574"
       gradientUnits="userSpaceOnUse"
       x1="517.28571"
       y1="414.14789"
       x2="200.21429"
       y2="414.14789" />
    <linearGradient
       inkscape:collect="always"
       xlink:href="#linearGradient3895"
       id="linearGradient7576"
       gradientUnits="userSpaceOnUse"
       x1="517.28571"
       y1="414.14789"
       x2="200.21429"
       y2="414.14789" />
    <linearGradient
       inkscape:collect="always"
       xlink:href="#linearGradient3895"
       id="linearGradient7578"
       gradientUnits="userSpaceOnUse"
       x1="517.28571"
       y1="414.14789"
       x2="200.21429"
       y2="414.14789" />
    <linearGradient
       inkscape:collect="always"
       xlink:href="#linearGradient3895"
       id="linearGradient7580"
       gradientUnits="userSpaceOnUse"
       x1="517.28571"
       y1="414.14789"
       x2="200.21429"
       y2="414.14789" />
    <linearGradient
       inkscape:collect="always"
       xlink:href="#linearGradient3895"
       id="linearGradient7582"
       gradientUnits="userSpaceOnUse"
       x1="517.28571"
       y1="414.14789"
       x2="200.21429"
       y2="414.14789" />
    <radialGradient
       inkscape:collect="always"
       xlink:href="#linearGradient5834"
       id="radialGradient7600"
       gradientUnits="userSpaceOnUse"
       gradientTransform="matrix(-0.0115255,-2.0289487,0.84130744,-0.00479512,38.096585,1191.3627)"
       cx="362.03326"
       cy="413.11804"
       fx="362.03326"
       fy="413.11804"
       r="72.87841" />
    <linearGradient
       inkscape:collect="always"
       xlink:href="#linearGradient3937"
       id="linearGradient7605"
       gradientUnits="userSpaceOnUse"
       gradientTransform="translate(19.449988,41.188211)"
       x1="257.14459"
       y1="353.58691"
       x2="465.60645"
       y2="353.58691" />
    <linearGradient
       inkscape:collect="always"
       xlink:href="#linearGradient3929"
       id="linearGradient7608"
       gradientUnits="userSpaceOnUse"
       gradientTransform="translate(19.449988,41.188211)"
       x1="290.30786"
       y1="335.02032"
       x2="280.83411"
       y2="474.41101" />
    <filter
       id="filter5859"
       inkscape:label="Drop shadow"
       width="1.5"
       height="1.5"
       x="-.25"
       y="-.25">
      <feGaussianBlur
         id="feGaussianBlur5861"
         in="SourceAlpha"
         stdDeviation="5.000000"
         result="blur" />
      <feColorMatrix
         id="feColorMatrix5863"
         result="bluralpha"
         type="matrix"
         values="1 0 0 0 0 0 1 0 0 0 0 0 1 0 0 0 0 0 0.600000 0 " />
      <feOffset
         id="feOffset5865"
         in="bluralpha"
         dx="-4.000000"
         dy="5.000000"
         result="offsetBlur" />
      <feMerge
         id="feMerge5867">
        <feMergeNode
           id="feMergeNode5869"
           in="offsetBlur" />
        <feMergeNode
           id="feMergeNode5871"
           in="SourceGraphic" />
      </feMerge>
    </filter>
  </defs>
  <sodipodi:namedview
     id="base"
     pagecolor="#ffffff"
     bordercolor="#666666"
     borderopacity="1.0"
     inkscape:pageopacity="0.0"
     inkscape:pageshadow="2"
     inkscape:zoom="2.2743299"
     inkscape:cx="453.33254"
     inkscape:cy="575.21183"
     inkscape:document-units="px"
     inkscape:current-layer="layer1"
     showgrid="false"
     showguides="true"
     inkscape:guide-bbox="true"
     inkscape:window-width="1600"
     inkscape:window-height="1125"
     inkscape:window-x="0"
     inkscape:window-y="24"
     inkscape:window-maximized="1" />
  <metadata
     id="metadata2998">
    <rdf:RDF>
      <cc:Work
         rdf:about="">
        <dc:format>image/svg+xml</dc:format>
        <dc:type
           rdf:resource="http://purl.org/dc/dcmitype/StillImage" />
        <dc:title />
      </cc:Work>
    </rdf:RDF>
  </metadata>
  <g
     inkscape:label="Layer 1"
     inkscape:groupmode="layer"
     id="layer1"
     style="display:inline">
    <rect
       style="opacity:0;fill:#99bce2;fill-opacity:1;stroke:#000000;stroke-width:2.5999999;stroke-miterlimit:4;stroke-opacity:1;stroke-dasharray:none"
       id="rect3981"
       width="793.22028"
       height="809.69666"
       x="-976.81427"
       y="169.69868"
       ry="320.11264" />
    <g
       id="g5795"
       style="filter:url(#filter5859)">
      <path
         d="m 225.54726,385.457 c -0.3549,2.29742 -0.49737,4.61945 -0.5953,6.93974 -0.18041,1.81911 0.11929,3.61311 0.31681,5.41456 0.21179,1.85244 0.26552,3.71577 0.30431,5.57809 -0.0936,1.61531 0.21699,3.19323 0.42298,4.7848 0.22216,1.8693 0.25762,3.75373 0.28918,5.63382 0.0227,1.70422 0.0356,3.40865 0.0253,5.113 -0.0116,2.14643 -0.0288,4.29289 -0.027,6.43937 -0.004,1.64875 0.0301,3.29718 0.0425,4.94578 0.01,1.03892 0.004,2.07779 -7.3e-4,3.11672 -0.0107,1.26927 -0.004,2.5385 -7.6e-4,3.80775 0.0135,0.93463 0.0119,1.86926 0.006,2.80394 0.065,1.32373 -0.0706,2.61894 -0.29705,3.92003 -0.2431,1.22543 -0.34125,2.4672 -0.40232,3.71256 -0.0591,1.87658 -0.0518,3.75432 -0.0581,5.63157 0.006,1.96346 0.0135,3.92687 0.008,5.89033 0.003,2.26688 -0.0186,4.53367 -0.0145,6.80054 -0.003,2.37004 -0.002,4.74007 0.0106,7.11008 0.016,1.82427 0.0168,3.64855 0.008,5.47285 0.16242,2.07738 0.42451,4.14452 0.56168,6.22445 0.15537,1.78697 0.0633,3.58779 0.22476,5.3726 0.39414,1.78373 0.25605,3.59129 0.14359,5.39539 -0.12778,1.95684 -0.17071,3.91726 -0.19299,5.87765 -0.0154,1.5575 -0.005,3.11507 -0.015,4.67258 -0.004,1.60894 0.002,3.21789 0.005,4.82683 0.0789,1.63595 -0.0627,3.2502 -0.29364,4.8671 -0.19357,1.70351 -0.38857,3.39826 -0.68383,5.08781 -0.29148,1.56695 -0.38293,3.15748 -0.43108,4.74728 -0.12802,1.54072 -0.42693,3.05849 -0.57784,4.59729 -0.07,0.71386 -0.10438,1.43096 -0.10988,2.14812 0.007,0.0344 -0.0275,0.0645 -0.0413,0.0967 0,0 -9.45449,5.03907 -9.45449,5.03907 l 0,0 c -0.0494,-0.10138 -0.0544,-0.19323 -0.0426,-0.30719 0.0325,-0.75293 0.0919,-1.50444 0.14568,-2.25605 0.16116,-1.52115 0.36996,-3.03327 0.64035,-4.53926 0.0366,-1.6335 0.0715,-3.2723 0.3598,-4.88554 0.29528,-1.68395 0.58459,-3.35241 0.69756,-5.06112 0.2346,-1.57342 0.46752,-3.12651 0.35252,-4.72464 0.002,-1.6101 0.007,-3.22022 0.001,-4.83033 -0.011,-1.56375 -0.002,-3.12761 0.0183,-4.69126 0.0335,-1.97676 0.0813,-3.95395 0.19015,-5.92815 0.0939,-1.7436 0.32352,-3.49743 -0.0913,-5.21829 -0.24273,-1.80001 -0.0579,-3.62948 -0.21097,-5.4398 -0.12715,-2.09972 -0.34556,-4.18873 -0.60798,-6.27565 -0.009,-1.82709 -0.008,-3.65416 0.008,-5.48122 0.0127,-2.3736 0.0141,-4.74723 0.0106,-7.12086 0.004,-2.26158 -0.0175,-4.52307 -0.0159,-6.78465 -0.008,-1.96465 -0.003,-3.92926 -4e-4,-5.89391 -0.008,-1.87935 -0.0152,-3.75886 -0.002,-5.63818 0.0166,-1.28711 0.0652,-2.57966 0.33213,-3.84354 0.21369,-1.24879 0.4801,-2.46587 0.34988,-3.74361 -0.006,-0.93659 -0.008,-1.87313 0.006,-2.80967 0.004,-1.26899 0.01,-2.53795 -7.9e-4,-3.80695 -0.005,-1.03868 -0.0103,-2.0773 -7.7e-4,-3.11597 0.0125,-1.66328 0.0469,-3.32639 0.0434,-4.98981 0.003,-2.13874 -0.013,-4.27748 -0.0201,-6.4162 -0.007,-1.70253 0.0129,-3.40506 -4.5e-4,-5.10759 -0.0218,-1.84069 -0.0504,-3.68546 -0.25313,-5.51689 -0.20918,-1.62949 -0.5819,-3.24098 -0.46721,-4.8951 -0.0218,-1.83345 -0.0667,-3.66864 -0.25118,-5.49422 -0.20621,-1.85398 -0.5812,-3.69639 -0.37349,-5.56958 0.11262,-2.33256 0.26954,-4.66254 0.50166,-6.98651 0,0 9.50828,-4.6967 9.50828,-4.6967 z"
         id="path3077"
         style="opacity:0;fill:#333333;fill-opacity:1;stroke:#000000;stroke-width:0.535;stroke-miterlimit:4;stroke-opacity:1;stroke-dasharray:none" />
      <g
         transform="translate(19.449988,41.188211)"
         style="fill:url(#linearGradient7582);fill-opacity:1;stroke:#000000;stroke-width:0.535;stroke-miterlimit:4;stroke-opacity:1;stroke-dasharray:none"
         id="g3109">
        <path
           sodipodi:nodetypes="ccccc"
           style="fill:url(#linearGradient7574);fill-opacity:1;stroke:#000000;stroke-width:0.535;stroke-linecap:butt;stroke-linejoin:miter;stroke-miterlimit:4;stroke-opacity:1;stroke-dasharray:none"
           d="m 200.95318,344.8752 1.19337,139.98313 70.40796,-2.75792 -0.18046,-135.04899 -71.42087,-2.17622 z"
           id="path3085" />
        <path
           sodipodi:nodetypes="ccccc"
           style="fill:url(#linearGradient7576);fill-opacity:1;stroke:#000000;stroke-width:0.535;stroke-linecap:butt;stroke-linejoin:miter;stroke-miterlimit:4;stroke-opacity:1;stroke-dasharray:none"
           d="m 272.5902,481.79438 -8.29803,68.41848 195.34423,-2.49953 -8.79599,-66.41612 -178.25021,0.49717 z"
           id="path3087" />
        <path
           style="fill:url(#linearGradient7578);fill-opacity:1;stroke:#000000;stroke-width:0.535;stroke-linecap:butt;stroke-linejoin:miter;stroke-miterlimit:4;stroke-opacity:1;stroke-dasharray:none"
           d="m 450.01283,347.07371 66.76922,-5.77929 -0.71421,146.0641 -65.46286,-5.58379 -0.59215,-134.70102 z"
           id="path3089"
           sodipodi:nodetypes="ccccc" />
        <path
           style="fill:url(#linearGradient7580);fill-opacity:1;stroke:#000000;stroke-width:0.535;stroke-linecap:butt;stroke-linejoin:miter;stroke-miterlimit:4;stroke-opacity:1;stroke-dasharray:none"
           d="m 272.41745,347.58202 -6.70317,-69.50555 191.42858,0.35714 -7.02992,68.79731 -177.69549,0.3511 z"
           id="path3091"
           sodipodi:nodetypes="ccccc" />
      </g>
      <path
         sodipodi:nodetypes="ccccc"
         id="path3903"
         d="m 291.60457,388.65566 0.42516,134.88591 16.60149,-12.89497 0.62662,-109.39861 -17.65327,-12.59233 z"
         style="fill:url(#linearGradient7608);fill-opacity:1;stroke:#000000;stroke-width:0.535;stroke-linecap:butt;stroke-linejoin:miter;stroke-miterlimit:4;stroke-opacity:1;stroke-dasharray:none" />
      <path
         sodipodi:nodetypes="ccccc"
         id="path3905"
         d="m 454.01465,401.248 15.59372,-12.94574 -178.0038,0.58844 17.06811,12.35729 145.34197,10e-6 z"
         style="fill:url(#linearGradient7605);fill-opacity:1;stroke:#000000;stroke-width:0.535;stroke-linecap:butt;stroke-linejoin:miter;stroke-miterlimit:4;stroke-opacity:1;stroke-dasharray:none" />
      <path
         sodipodi:nodetypes="ccccc"
         id="path3907"
         d="m 470.41665,522.76133 -17.1392,-12.2862 0.22901,-109.22714 16.00429,-12.94573 0.9059,134.45907 z"
         style="fill:#97663b;fill-opacity:1;stroke:#000000;stroke-opacity:1;stroke-width:0.535;stroke-miterlimit:4;stroke-dasharray:none" />
      <path
         id="path3909"
         d="m 291.60457,523.34978 c 1.17688,0 17.06482,-12.94573 17.06482,-12.94573 l 144.16837,-0.29423 17.35905,12.65151 -178.59224,0.58845 z"
         style="fill:#99693a;fill-opacity:1;stroke:#000000;stroke-width:0.535;stroke-linecap:butt;stroke-linejoin:miter;stroke-miterlimit:4;stroke-opacity:1;stroke-dasharray:none" />
      <path
         sodipodi:nodetypes="ccccc"
         id="path3911"
         d="m 309.08837,401.29271 -0.82349,109.92036 145.10854,-0.35341 0.11836,-109.50776 -144.40341,-0.0592 z"
         style="fill:url(#radialGradient7600);fill-opacity:1;stroke:#000000;stroke-opacity:1;stroke-width:0.535;stroke-miterlimit:4;stroke-dasharray:none" />
      <path
         id="path3913"
         d="m 295.34613,510.32067 c 0,-0.32691 -0.19614,-0.58844 -0.44133,-0.58844 -0.24273,0 -0.44133,-0.1986 -0.44133,-0.44133 0,-0.24274 0.1986,-0.44134 0.44133,-0.44134 0.30823,0 0.44133,-0.31056 0.44133,-1.02977 0,-0.71921 0.1331,-1.02977 0.44134,-1.02977 0.24273,0 0.44133,-0.211 0.44133,-0.46888 0,-0.25788 0.2648,-0.53812 0.58844,-0.62276 0.51092,-0.13361 0.58844,-0.40132 0.58844,-2.032 0,-1.4733 0.0951,-1.87812 0.44133,-1.87812 0.24274,0 0.44134,0.1986 0.44134,0.44133 0,0.24273 0.1986,0.44133 0.44133,0.44133 0.24273,0 0.44133,-0.1986 0.44133,-0.44133 0,-0.30823 0.31057,-0.44133 1.02977,-0.44133 l 1.02978,0 0,-1.47111 c 0,-1.27496 0.0785,-1.47111 0.58844,-1.47111 0.47636,0 0.58844,-0.19614 0.58844,-1.02977 0,-0.71921 0.1331,-1.02977 0.44133,-1.02977 0.24519,0 0.44134,-0.26153 0.44134,-0.58845 0,-0.47635 0.19614,-0.58844 1.02977,-0.58844 0.94805,0 1.02977,-0.07 1.02977,-0.88266 0,-0.58844 0.14711,-0.88267 0.44134,-0.88267 0.33453,0 0.44133,-0.36266 0.44133,-1.49865 0,-1.25121 0.0972,-1.52405 0.58844,-1.65253 0.41681,-0.109 0.58844,-0.40132 0.58844,-1.00223 0,-0.46659 0.1324,-0.84834 0.29422,-0.84834 0.17654,0 0.29422,1.17688 0.29422,2.94221 0,1.76532 -0.11768,2.94221 -0.29422,2.94221 -0.17653,0 -0.29422,1.17688 -0.29422,2.94221 0,2.31436 -0.0872,2.94221 -0.40859,2.94221 -0.23401,0 -0.49112,0.43999 -0.60177,1.02978 -0.11564,0.61641 -0.36499,1.02977 -0.62119,1.02977 -0.2354,0 -0.428,0.2648 -0.428,0.58844 0,0.32691 -0.19614,0.58844 -0.44133,0.58844 -0.24273,0 -0.44133,-0.21099 -0.44133,-0.46887 0,-0.25788 -0.2648,-0.53813 -0.58844,-0.62276 -0.32364,-0.0846 -0.58844,-0.33704 -0.58844,-0.5609 0,-0.22386 -0.1986,-0.40701 -0.44134,-0.40701 -0.30823,0 -0.44133,0.31056 -0.44133,1.02977 0,0.71921 -0.1331,1.02977 -0.44133,1.02977 -0.24273,0 -0.44133,0.1986 -0.44133,0.44134 0,0.24518 -0.26153,0.44133 -0.58844,0.44133 -0.32692,0 -0.58845,0.19615 -0.58845,0.44133 0,0.24273 -0.19859,0.44133 -0.44133,0.44133 -0.24518,0 -0.44133,0.26153 -0.44133,0.58844 0,0.32692 0.19615,0.58845 0.44133,0.58845 0.24274,0 0.44133,0.1986 0.44133,0.44133 0,0.30823 -0.31056,0.44133 -1.02977,0.44133 -0.98074,0 -1.02977,0.049 -1.02977,1.02977 0,0.71921 -0.1331,1.02978 -0.44134,1.02978 -0.24273,0 -0.44133,-0.1986 -0.44133,-0.44133 0,-0.90826 -0.85876,-0.42662 -1.04918,0.58844 -0.20592,1.09762 -1.01037,1.44901 -1.01037,0.44133 z"
         style="opacity:0;fill:#875a30;fill-opacity:1;stroke:#000000;stroke-width:0.535;stroke-miterlimit:4;stroke-opacity:1;stroke-dasharray:none" />
      <path
         id="path3915"
         d="m 294.22398,490.82852 c 0.0856,-0.88632 0.0225,-0.96296 -0.86384,-1.04842 -0.95394,-0.092 -1.41832,-0.93757 -0.51489,-0.93757 0.37039,0 0.44134,-0.63509 0.44134,-3.95042 0,-3.49973 0.0576,-3.96151 0.50527,-4.04772 0.43993,-0.0847 0.49377,-0.42993 0.41636,-2.66956 -0.0843,-2.43943 -0.0572,-2.57226 0.52451,-2.57226 0.48541,0 0.6134,-0.18417 0.6134,-0.88266 0,-0.58844 0.14712,-0.88266 0.44134,-0.88266 0.24273,0 0.44133,-0.1986 0.44133,-0.44134 0,-0.24273 -0.1986,-0.44133 -0.44133,-0.44133 -0.3388,0 -0.44134,-0.37595 -0.44134,-1.61821 0,-1.24227 0.10254,-1.61822 0.44134,-1.61822 0.24273,0 0.44133,-0.1986 0.44133,-0.44133 0,-0.24273 -0.1986,-0.44133 -0.44133,-0.44133 -0.35768,0 -0.44134,-0.47403 -0.44134,-2.50088 0,-2.30474 0.0462,-2.50088 0.58845,-2.50088 0.34227,0 0.58844,-0.19615 0.58844,-0.46888 0,-0.25788 -0.2648,-0.53812 -0.58844,-0.62276 -0.51092,-0.13361 -0.58845,-0.40132 -0.58845,-2.032 0,-1.4733 0.0951,-1.87812 0.44134,-1.87812 0.30823,0 0.44133,-0.31057 0.44133,-1.02978 0,-0.98073 0.049,-1.02977 1.02977,-1.02977 0.84123,0 1.02978,-0.11018 1.02978,-0.60178 0,-0.52879 -0.12533,-0.57826 -1.03337,-0.40791 -0.85442,0.16029 -1.00337,0.1157 -0.86017,-0.25748 0.11892,-0.30989 -0.0413,-0.49222 -0.51129,-0.58179 -0.37647,-0.0718 0.0106,-0.14849 0.86017,-0.17052 1.15907,-0.0301 1.54466,-0.15024 1.54466,-0.4814 0,-0.30823 0.31056,-0.44133 1.02977,-0.44133 0.71921,0 1.02977,0.1331 1.02977,0.44133 0,0.24273 0.18048,0.44133 0.40105,0.44133 0.28211,0 0.44703,0.57271 0.55605,1.93097 0.20117,2.50615 0.0511,2.99647 -0.98702,3.22447 -1.10875,0.24352 -1.10038,0.72898 0.0126,0.72898 1.15099,0 1.28505,0.30389 1.04532,2.36947 -0.19593,1.68808 -0.23311,1.74963 -1.05684,1.74963 -0.65763,0 -0.85378,0.13519 -0.85378,0.58844 0,0.32691 0.19615,0.58844 0.44133,0.58844 0.24274,0 0.44133,0.1986 0.44133,0.44134 0,0.24518 -0.26153,0.44133 -0.58844,0.44133 -0.50998,0 -0.58844,0.19615 -0.58844,1.4711 0,1.11151 -0.10788,1.47111 -0.44133,1.47111 -0.24519,0 -0.44133,0.26153 -0.44133,0.58844 0,0.32691 0.19614,0.58844 0.44133,0.58844 0.33345,0 0.44133,0.35961 0.44133,1.47111 0,1.43841 -0.0196,1.47111 -0.88266,1.47111 -0.70273,0 -0.88267,0.12695 -0.88267,0.62275 0,0.49227 0.13247,0.58812 0.63219,0.45744 0.7815,-0.20437 2.31002,0.0786 2.31002,0.42769 0,0.14159 -0.21099,0.25744 -0.46887,0.25744 -0.25788,0 -0.53813,0.2648 -0.62276,0.58844 -0.109,0.41681 -0.40132,0.58845 -1.00223,0.58845 -0.6522,0 -0.84835,0.13605 -0.84835,0.58844 0,0.45768 0.19615,0.58844 0.88267,0.58844 0.48546,0 0.88447,0.0993 0.88668,0.22067 0.002,0.12136 0.0787,0.4989 0.17,0.83897 0.14949,0.55687 0.0104,0.63673 -1.39978,0.80374 -0.86117,0.102 -1.6107,0.32026 -1.66563,0.48503 -0.0549,0.16477 -0.28742,0.29958 -0.51667,0.29958 -0.22925,0 -0.41682,0.2648 -0.41682,0.58844 0,0.47636 0.19615,0.58845 1.02978,0.58845 0.71921,0 1.02977,0.1331 1.02977,0.44133 0,0.24518 -0.26153,0.44133 -0.58844,0.44133 -0.39229,0 -0.58844,0.19615 -0.58844,0.58844 0,0.32692 -0.19615,0.58845 -0.44133,0.58845 -0.24274,0 -0.44134,0.19859 -0.44134,0.44133 0,0.24273 -0.19859,0.44133 -0.44133,0.44133 -0.24518,0 -0.44133,0.26153 -0.44133,0.58844 0,0.32691 0.19615,0.58844 0.44133,0.58844 0.29422,0 0.44133,0.29422 0.44133,0.88267 0,0.58844 -0.14711,0.88266 -0.44133,0.88266 -0.30823,0 -0.44133,0.31057 -0.44133,1.02977 0,0.71921 0.1331,1.02978 0.44133,1.02978 0.24274,0 0.44133,-0.1986 0.44133,-0.44133 0,-0.24274 0.1986,-0.44133 0.44134,-0.44133 0.30823,0 0.44133,0.31056 0.44133,1.02977 0,0.71921 -0.1331,1.02977 -0.44133,1.02977 -0.24274,0 -0.44134,0.1986 -0.44134,0.44133 0,0.24975 -0.26362,0.44134 -0.60726,0.44134 -0.50792,0 -0.59215,-0.15643 -0.51489,-0.95622 z m 4.94703,-26.40635 c 0,-0.32691 -0.19615,-0.58844 -0.44133,-0.58844 -0.24519,0 -0.44133,0.26153 -0.44133,0.58844 0,0.32691 0.19614,0.58844 0.44133,0.58844 0.24518,0 0.44133,-0.26153 0.44133,-0.58844 z m 2.05955,-6.03154 c 0,-0.24273 -0.1986,-0.44133 -0.44133,-0.44133 -0.30824,0 -0.44134,-0.31056 -0.44134,-1.02977 0,-0.83363 -0.11208,-1.02978 -0.58844,-1.02978 -0.50998,0 -0.58844,0.19615 -0.58844,1.47111 l 0,1.47111 1.02977,0 c 0.71921,0 1.02978,-0.1331 1.02978,-0.44134 z m -0.88267,-3.08932 c 0,-0.16182 -0.19859,-0.29422 -0.44133,-0.29422 -0.24273,0 -0.44133,0.1324 -0.44133,0.29422 0,0.16182 0.1986,0.29422 0.44133,0.29422 0.24274,0 0.44133,-0.1324 0.44133,-0.29422 z"
         style="opacity:0;fill:#875a30;fill-opacity:1;stroke:#000000;stroke-width:0.535;stroke-miterlimit:4;stroke-opacity:1;stroke-dasharray:none" />
      <path
         id="path3917"
         d="m 292.40392,489.28386 c 0,-0.24274 0.1986,-0.44133 0.44133,-0.44133 0.37039,0 0.44134,-0.63509 0.44134,-3.95042 0,-3.49973 0.0576,-3.96151 0.50527,-4.04772 0.43993,-0.0847 0.49377,-0.42993 0.41636,-2.66956 -0.0843,-2.43943 -0.0572,-2.57226 0.52451,-2.57226 0.48541,0 0.6134,-0.18417 0.6134,-0.88266 0,-0.58844 0.14712,-0.88266 0.44134,-0.88266 0.24273,0 0.44133,-0.1986 0.44133,-0.44134 0,-0.24273 -0.1986,-0.44133 -0.44133,-0.44133 -0.3388,0 -0.44134,-0.37595 -0.44134,-1.61821 0,-1.24227 0.10254,-1.61822 0.44134,-1.61822 0.24273,0 0.44133,-0.1986 0.44133,-0.44133 0,-0.24273 -0.1986,-0.44133 -0.44133,-0.44133 -0.35768,0 -0.44134,-0.47403 -0.44134,-2.50088 0,-2.30474 0.0462,-2.50088 0.58845,-2.50088 0.77155,0 0.77155,-0.88987 0,-1.09164 -0.51092,-0.13361 -0.58845,-0.40132 -0.58845,-2.032 0,-1.4733 0.0951,-1.87812 0.44134,-1.87812 0.30823,0 0.44133,-0.31057 0.44133,-1.02978 0,-0.98073 0.049,-1.02977 1.02977,-1.02977 0.84123,0 1.02978,-0.11018 1.02978,-0.60178 0,-0.52879 -0.12533,-0.57826 -1.03337,-0.40791 -0.85909,0.16117 -1.0038,0.11683 -0.85808,-0.26291 0.0964,-0.25122 0.56142,-0.54158 1.03336,-0.64524 0.47195,-0.10365 0.85809,-0.37654 0.85809,-0.60642 0,-0.28151 0.33616,-0.41795 1.02977,-0.41795 0.71921,0 1.02977,0.1331 1.02977,0.44133 0,0.24273 0.1986,0.44133 0.44134,0.44133 0.24518,0 0.44133,0.26153 0.44133,0.58844 0,0.32691 -0.19615,0.58844 -0.44133,0.58844 -0.33345,0 -0.44134,0.35961 -0.44134,1.47111 0,1.1115 0.10789,1.47111 0.44134,1.47111 0.81064,0 0.45354,0.83322 -0.44134,1.02977 -1.1632,0.25548 -1.12546,0.6748 0.0711,0.79047 0.62818,0.0607 0.98711,0.26798 1.05135,0.60708 0.0799,0.42206 -0.11852,0.51489 -1.10092,0.51489 -0.86915,0 -1.19846,0.12127 -1.19846,0.44133 0,0.24518 0.26153,0.44133 0.58844,0.44133 0.47636,0 0.58844,0.19615 0.58844,1.02978 0,0.83362 -0.11208,1.02977 -0.58844,1.02977 -0.32691,0 -0.58844,-0.19615 -0.58844,-0.44133 0,-0.24273 -0.1986,-0.44133 -0.44133,-0.44133 -0.24519,0 -0.44133,0.26153 -0.44133,0.58844 0,0.32364 0.18315,0.58844 0.40701,0.58844 0.56144,0 0.69635,0.71766 0.53924,2.86866 -0.0951,1.30233 -0.25277,1.83888 -0.54028,1.83888 -0.22329,0 -0.40597,0.2648 -0.40597,0.58844 0,0.32691 0.19614,0.58844 0.44133,0.58844 0.33345,0 0.44133,0.35961 0.44133,1.47111 0,1.43841 -0.0196,1.47111 -0.88266,1.47111 -0.69776,0 -0.88267,0.12816 -0.88267,0.61182 0,0.52227 0.12508,0.58434 0.85466,0.4241 0.99883,-0.21938 1.29677,0.11377 1.03489,1.1572 -0.14723,0.58658 -0.37257,0.74909 -1.03878,0.74909 -0.65462,0 -0.85077,0.13566 -0.85077,0.58844 0,0.45768 0.19615,0.58844 0.88267,0.58844 0.48546,0 0.88447,0.0993 0.88668,0.22067 0.002,0.12136 0.0787,0.4989 0.17,0.83897 0.14949,0.55687 0.0104,0.63673 -1.39978,0.80374 -0.86117,0.102 -1.6107,0.32026 -1.66563,0.48503 -0.0549,0.16477 -0.28742,0.29958 -0.51667,0.29958 -0.22925,0 -0.41682,0.2648 -0.41682,0.58844 0,0.47636 0.19615,0.58845 1.02978,0.58845 0.71921,0 1.02977,0.1331 1.02977,0.44133 0,0.24518 -0.26153,0.44133 -0.58844,0.44133 -0.39229,0 -0.58844,0.19615 -0.58844,0.58844 0,0.32692 -0.19615,0.58845 -0.44133,0.58845 -0.24274,0 -0.44134,0.19859 -0.44134,0.44133 0,0.24273 -0.19859,0.44133 -0.44133,0.44133 -0.24518,0 -0.44133,0.26153 -0.44133,0.58844 0,0.32691 0.19615,0.58844 0.44133,0.58844 0.29422,0 0.44133,0.29422 0.44133,0.88267 0,0.557 -0.15074,0.88266 -0.40858,0.88266 -0.23402,0 -0.49113,0.43999 -0.60178,1.02977 -0.16902,0.90095 -0.30194,1.02978 -1.06252,1.02978 -0.57659,0 -0.86933,-0.14862 -0.86933,-0.44133 z"
         style="opacity:0;fill:#875a30;fill-opacity:1;stroke:#000000;stroke-width:0.535;stroke-miterlimit:4;stroke-opacity:1;stroke-dasharray:none" />
      <path
         id="path3919"
         d="m 305.34965,437.20671 c 0,-0.24518 -0.26153,-0.44133 -0.58844,-0.44133 -0.32364,0 -0.58844,-0.18808 -0.58844,-0.41796 0,-0.22987 -0.3972,-0.50519 -0.88266,-0.61182 -0.48547,-0.10662 -0.88267,-0.30522 -0.88267,-0.44133 0,-0.1361 0.3972,-0.3347 0.88267,-0.44133 0.735,-0.16143 0.88266,-0.33762 0.88266,-1.05315 0,-0.56766 -0.14978,-0.85929 -0.44133,-0.85929 -0.33345,0 -0.44133,-0.3596 -0.44133,-1.4711 0,-1.1115 -0.10788,-1.47111 -0.44134,-1.47111 -0.34703,0 -0.44133,0.40864 -0.44133,1.91244 0,1.5038 -0.0943,1.91244 -0.44133,1.91244 -0.24273,0 -0.44133,0.1986 -0.44133,0.44133 0,0.24518 -0.26153,0.44133 -0.58844,0.44133 -0.32692,0 -0.58845,-0.19615 -0.58845,-0.44133 0,-0.24273 0.1986,-0.44133 0.44134,-0.44133 0.24273,0 0.44133,-0.1986 0.44133,-0.44133 0,-0.24274 -0.1986,-0.44134 -0.44133,-0.44134 -0.36428,0 -0.44134,-0.5394 -0.44134,-3.08932 l 0,-3.08932 -1.02977,0 c -0.71921,0 -1.02977,0.1331 -1.02977,0.44133 0,0.29422 -0.29422,0.44133 -0.88267,0.44133 -0.78459,0 -0.88266,-0.0981 -0.88266,-0.88266 0,-0.78459 0.0981,-0.88266 0.88266,-0.88266 l 0.88267,0 0,-2.50088 c 0,-2.02686 0.0836,-2.50088 0.44133,-2.50088 0.24273,0 0.44133,0.1986 0.44133,0.44133 0,0.30533 0.30675,0.44133 0.99546,0.44133 0.74802,0 1.03371,0.14627 1.14934,0.58844 0.0846,0.32365 0.36487,0.58844 0.62276,0.58844 0.32482,0 0.46887,0.27118 0.46887,0.88267 0,0.58844 0.14711,0.88266 0.44133,0.88266 0.24519,0 0.44134,0.26153 0.44134,0.58844 0,0.32692 0.19614,0.58845 0.44133,0.58845 0.34767,0 0.44133,0.4117 0.44133,1.93998 0,1.69254 0.075,1.95961 0.58844,2.09386 0.32365,0.0846 0.58844,0.33704 0.58844,0.5609 0,0.22386 0.1986,0.40702 0.44134,0.40702 0.32243,0 0.44241,0.33687 0.44535,1.25044 0.006,1.73292 0.27442,2.56844 0.8394,2.60856 0.40808,0.029 0.4029,0.0544 -0.0343,0.16869 -0.28319,0.074 -0.51489,0.25724 -0.51489,0.4072 0,0.14995 0.2317,0.288 0.51489,0.30677 0.49036,0.0325 0.49036,0.0405 0,0.16869 -0.34244,0.0895 -0.51489,0.42296 -0.51489,0.99564 0,0.66494 -0.13404,0.86109 -0.58844,0.86109 -0.32692,0 -0.58845,-0.19615 -0.58845,-0.44133 z m 0,-1.91244 c 0,-0.16182 -0.19859,-0.29422 -0.44133,-0.29422 -0.24273,0 -0.44133,0.1324 -0.44133,0.29422 0,0.16182 0.1986,0.29422 0.44133,0.29422 0.24274,0 0.44133,-0.1324 0.44133,-0.29422 z"
         style="opacity:0;fill:#875a30;fill-opacity:1;stroke:#000000;stroke-width:0.535;stroke-miterlimit:4;stroke-opacity:1;stroke-dasharray:none" />
      <path
         transform="translate(19.449988,41.188211)"
         d="m 298.33765,464.00873 a 3.5367782,2.4965494 0 1 1 -7.07356,0 3.5367782,2.4965494 0 1 1 7.07356,0 z"
         sodipodi:ry="2.4965494"
         sodipodi:rx="3.5367782"
         sodipodi:cy="464.00873"
         sodipodi:cx="294.80087"
         id="path3947"
         style="opacity:0;fill:#e2c299;fill-opacity:1;stroke:#000000;stroke-width:0.535;stroke-miterlimit:4;stroke-opacity:1;stroke-dasharray:none"
         sodipodi:type="arc" />
      <path
         sodipodi:nodetypes="ccccccc"
         id="path5550"
         d="m 466.37194,388.8907 2.05954,0.88267 0.88267,2.64798 -15.59372,11.47463 0.29423,-2.05955 -3.53065,-0.88267 15.88793,-12.06306 z"
         style="opacity:0.26359832999999999;fill:#000000;fill-opacity:1;stroke:#000000;stroke-width:0.535;stroke-miterlimit:4;stroke-opacity:1;stroke-dasharray:none;filter:url(#filter5728)" />
      <path
         sodipodi:nodetypes="ccccccc"
         id="path5732"
         d="m 293.3699,390.06759 -0.88267,2.94221 16.77061,10.29774 -0.29422,-2.35377 3.23643,0 -12.35728,-11.76885 -6.47287,0.88267 z"
         style="opacity:0.44933058999999997;fill:#000000;stroke:#000000;stroke-width:0.535;stroke-miterlimit:4;stroke-opacity:1;stroke-dasharray:none;filter:url(#filter5746)" />
      <path
         sodipodi:nodetypes="ccccccc"
         id="path5750"
         d="m 291.60457,523.34978 0.58844,-8.53241 16.18216,-8.53242 0.29422,3.53065 4.70754,1.17689 -7.0613,11.76885 -14.71106,0.58844 z"
         style="opacity:0.26359832999999999;fill:#000000;stroke:#000000;stroke-width:0.535;stroke-miterlimit:4;stroke-opacity:1;stroke-dasharray:none;filter:url(#filter5776)" />
      <path
         sodipodi:nodetypes="ccccccc"
         id="path5780"
         d="m 446.49165,509.76471 6.00662,0.28602 0.28602,-4.57646 16.73271,7.72279 c 1.09644,3.28933 -0.20316,5.29154 0.14302,9.00992 l -11.7272,0.71507 -11.44117,-13.15734 z"
         style="opacity:0.37238494000000000;fill:#000000;stroke:#000000;stroke-width:0.535;stroke-miterlimit:4;stroke-opacity:1;stroke-dasharray:none;filter:url(#filter5786)" />
    </g>
  </g>
</svg>
