<?xml version="1.0" encoding="UTF-8" standalone="no"?>
<!-- Created with Inkscape (http://www.inkscape.org/) -->
<svg
   xmlns:dc="http://purl.org/dc/elements/1.1/"
   xmlns:cc="http://creativecommons.org/ns#"
   xmlns:rdf="http://www.w3.org/1999/02/22-rdf-syntax-ns#"
   xmlns:svg="http://www.w3.org/2000/svg"
   xmlns="http://www.w3.org/2000/svg"
   xmlns:xlink="http://www.w3.org/1999/xlink"
   xmlns:sodipodi="http://sodipodi.sourceforge.net/DTD/sodipodi-0.dtd"
   xmlns:inkscape="http://www.inkscape.org/namespaces/inkscape"
   width="200"
   height="76.50824"
   id="svg2"
   sodipodi:version="0.32"
   inkscape:version="0.46"
   sodipodi:docname="hand-pointing-red.svg"
   inkscape:output_extension="org.inkscape.output.svg.inkscape"
   version="1.0">
  <sodipodi:namedview
     id="base"
     pagecolor="#ffffff"
     bordercolor="#666666"
     borderopacity="1.0"
     gridtolerance="10000"
     guidetolerance="10"
     objecttolerance="10"
     inkscape:pageopacity="0.0"
     inkscape:pageshadow="2"
     inkscape:zoom="2.8"
     inkscape:cx="99.232657"
     inkscape:cy="57.283779"
     inkscape:document-units="px"
     inkscape:current-layer="svg2"
     showgrid="false"
     inkscape:window-width="1245"
     inkscape:window-height="669"
     inkscape:window-x="19"
     inkscape:window-y="138" />
  <defs
     id="defs4">
    <linearGradient
       id="linearGradient3556">
      <stop
         id="stop3558"
         offset="0"
         style="stop-color:#fbf7f7;stop-opacity:0.00392157;" />
      <stop
         id="stop3560"
         offset="1"
         style="stop-color:#810202;stop-opacity:0.99622643;" />
    </linearGradient>
    <inkscape:perspective
       id="perspective10"
       inkscape:persp3d-origin="372.04724 : 350.78739 : 1"
       inkscape:vp_z="744.09448 : 526.18109 : 1"
       inkscape:vp_y="0 : 1000 : 0"
       inkscape:vp_x="0 : 526.18109 : 1"
       sodipodi:type="inkscape:persp3d" />
    <inkscape:perspective
       sodipodi:type="inkscape:persp3d"
       inkscape:vp_x="0 : 526.18109 : 1"
       inkscape:vp_y="0 : 1000 : 0"
       inkscape:vp_z="744.09448 : 526.18109 : 1"
       inkscape:persp3d-origin="372.04724 : 350.78739 : 1"
       id="perspective2726" />
    <radialGradient
       gradientUnits="userSpaceOnUse"
       gradientTransform="matrix(-2.2628854,0.3501556,-0.6125969,-3.9589176,1311.3363,2541.0432)"
       r="9.2992697"
       fy="533.83978"
       fx="302.5098"
       cy="533.83978"
       cx="302.5098"
       id="radialGradient3562"
       xlink:href="#linearGradient3556"
       inkscape:collect="always" />
    <radialGradient
       r="9.2992697"
       fy="533.83978"
       fx="302.5098"
       cy="533.83978"
       cx="302.5098"
       gradientTransform="matrix(-2.2628854,0.3501556,-0.6125969,-3.9589176,1311.3363,2541.0432)"
       gradientUnits="userSpaceOnUse"
       id="radialGradient3614"
       xlink:href="#linearGradient3556"
       inkscape:collect="always" />
    <radialGradient
       r="9.2992697"
       fy="533.83978"
       fx="302.5098"
       cy="533.83978"
       cx="302.5098"
       gradientTransform="matrix(-3.5610043,0.5510246,-0.9640171,-6.2299764,1832.4465,3679.9193)"
       gradientUnits="userSpaceOnUse"
       id="radialGradient3632"
       xlink:href="#linearGradient3556"
       inkscape:collect="always" />
    <radialGradient
       r="9.2992697"
       fy="533.83978"
       fx="302.5098"
       cy="533.83978"
       cx="302.5098"
       gradientTransform="matrix(-3.5610043,0.5510246,-0.9640171,-6.2299764,1832.4465,3679.9193)"
       gradientUnits="userSpaceOnUse"
       id="radialGradient3632-439"
       xlink:href="#linearGradient3556-522"
       inkscape:collect="always" />
    <linearGradient
       id="linearGradient3556-522">
      <stop
         id="stop5895"
         offset="0"
         style="stop-color:#fdfbfb;stop-opacity:0.00392157;" />
      <stop
         id="stop5897"
         offset="1"
         style="stop-color:#c08181;stop-opacity:0.99622643;" />
    </linearGradient>
  </defs>
  <metadata
     id="metadata7">
    <rdf:RDF>
      <cc:Work
         rdf:about="">
        <dc:format>image/svg+xml</dc:format>
        <dc:type
           rdf:resource="http://purl.org/dc/dcmitype/StillImage" />
      </cc:Work>
    </rdf:RDF>
  </metadata>
  <g
     transform="translate(-207.98975,-479.24226)"
     id="layer1"
     inkscape:groupmode="layer"
     inkscape:label="Layer 1">
    <path
       sodipodi:nodetypes="cccccc"
       id="path3508"
       d="M 238.19278,486.79301 L 256.47357,482.62022 L 256.67226,550.37833 L 230.11408,548.49356 L 222.49515,516.99604 L 238.19278,486.79301 z"
       style="fill:#ffffff;fill-opacity:1;fill-rule:evenodd;stroke:#bf7f7f;stroke-width:0.78682828;stroke-linecap:butt;stroke-linejoin:miter;stroke-miterlimit:4;stroke-dasharray:none;stroke-opacity:1" />
    <path
       transform="matrix(1.5736565,0,0,1.5736565,-282.01466,-317.61764)"
       d="M 347.74502,529.92389 A 5.5558391,21.402607 0 1 1 336.63334,529.92389 A 5.5558391,21.402607 0 1 1 347.74502,529.92389 z"
       sodipodi:ry="21.402607"
       sodipodi:rx="5.5558391"
       sodipodi:cy="529.92389"
       sodipodi:cx="342.18918"
       id="path3506"
       style="fill:#912222;fill-opacity:1;stroke:none;stroke-width:0.5;stroke-linecap:square;stroke-miterlimit:4;stroke-dasharray:none;stroke-dashoffset:0;stroke-opacity:1"
       sodipodi:type="arc" />
    <path
       sodipodi:nodetypes="cccc"
       id="path3532"
       d="M 245.24679,555.54465 C 248.49497,555.54465 249.12153,552.69656 249.32022,550.37833 L 227.86017,549.98092 L 245.24679,555.54465 z"
       style="fill:#912222;fill-opacity:1;fill-rule:evenodd;stroke:none;stroke-width:0.5;stroke-linecap:butt;stroke-linejoin:miter;stroke-miterlimit:4;stroke-dasharray:none;stroke-opacity:1" />
    <path
       sodipodi:nodetypes="ccccccccccccc"
       id="path3504"
       d="M 250.74936,490.67239 C 279.65713,488.11384 323.96944,479.24226 338.73708,479.24226 C 362.03139,479.24226 383.95493,485.4461 404.70685,493.74766 C 407.8234,496.19834 408.64891,499.04643 407.48871,501.69582 C 405.70038,504.92182 400.93148,506.57747 397.95091,505.6699 C 392.71836,504.94328 367.01929,497.68466 357.21656,497.52303 C 348.77652,497.4948 339.63436,496.76444 333.17337,498.71525 C 343.14519,503.21921 362.86532,520.63895 363.17768,525.34161 C 363.35865,532.04896 352.00159,545.72421 338.33967,553.95502 C 329.05846,557.36408 315.64982,556.95774 310.71979,543.42368 C 296.14816,542.92383 281.57652,545.74793 267.00489,538.45609 C 260.34085,533.03561 254.24718,534.5919 249.02215,533.48848 C 246.31519,515.75616 248.34375,501.06216 250.74936,490.67239 z"
       style="fill:#800101;fill-opacity:1;fill-rule:evenodd;stroke:none;stroke-width:0.5;stroke-linecap:butt;stroke-linejoin:miter;stroke-miterlimit:4;stroke-dasharray:none;stroke-opacity:1" />
    <path
       sodipodi:nodetypes="cccccc"
       id="path3554"
       d="M 247.39137,549.44301 C 242.39921,542.75551 235.60964,530.46427 235.60964,521.56624 C 235.60964,513.68198 236.73358,503.21921 238.39149,492.15801 L 218.12366,499.51007 L 225.87313,547.66465 L 247.39137,549.44301 z"
       style="fill:url(#radialGradient3632-439);fill-opacity:1;fill-rule:evenodd;stroke:none;stroke-width:0.5;stroke-linecap:butt;stroke-linejoin:miter;stroke-miterlimit:4;stroke-dasharray:none;stroke-opacity:1" />
    <path
       transform="matrix(1.5736565,0,0,1.5736565,-281.41855,-316.028)"
       d="M 331.58258,538.38391 A 4.2931485,7.7655478 0 1 1 322.99628,538.38391 A 4.2931485,7.7655478 0 1 1 331.58258,538.38391 z"
       sodipodi:ry="7.7655478"
       sodipodi:rx="4.2931485"
       sodipodi:cy="538.38391"
       sodipodi:cx="327.28943"
       id="path3510"
       style="fill:#a24444;fill-opacity:1;stroke:none;stroke-width:0.50000000000000000;stroke-linecap:square;stroke-miterlimit:4;stroke-dasharray:none;stroke-dashoffset:0;stroke-opacity:1"
       sodipodi:type="arc" />
    <path
       sodipodi:type="arc"
       style="fill:#cc9999;fill-opacity:1;stroke:none;stroke-width:0.5;stroke-linecap:square;stroke-miterlimit:4;stroke-dasharray:none;stroke-dashoffset:0;stroke-opacity:1"
       id="path3512"
       sodipodi:cx="327.28943"
       sodipodi:cy="538.38391"
       sodipodi:rx="2.9998198"
       sodipodi:ry="6.7553954"
       d="M 330.28925,538.38391 A 2.9998198,6.7553954 0 1 1 324.28961,538.38391 A 2.9998198,6.7553954 0 1 1 330.28925,538.38391 z"
       transform="matrix(1.5736565,0,0,1.5736565,-281.40443,-315.38368)" />
    <path
       sodipodi:nodetypes="cccc"
       id="path3528"
       d="M 373.37733,523.72253 C 373.37733,530.59865 367.59314,532.15282 350.3345,532.15282 L 348.36743,516.41626 C 368.21653,512.11017 373.37733,519.09177 373.37733,523.72253 z"
       style="fill:#800101;fill-opacity:1;fill-rule:evenodd;stroke:none;stroke-width:1px;stroke-linecap:butt;stroke-linejoin:miter;stroke-opacity:1" />
    <path
       sodipodi:nodetypes="cc"
       id="path3514"
       d="M 305.85845,517.25928 C 311.29646,519.61896 316.0501,519.24985 320.75199,518.66434"
       style="fill:none;fill-rule:evenodd;stroke:#b36666;stroke-width:1.25;stroke-linecap:round;stroke-linejoin:miter;stroke-miterlimit:4;stroke-dasharray:none;stroke-opacity:1" />
    <path
       sodipodi:nodetypes="cc"
       id="path3516"
       d="M 314.28875,504.61383 C 317.19874,505.35698 321.08084,505.12801 324.68613,505.17585"
       style="fill:none;fill-rule:evenodd;stroke:#b36666;stroke-width:1.25;stroke-linecap:round;stroke-linejoin:miter;stroke-miterlimit:4;stroke-dasharray:none;stroke-opacity:1" />
    <path
       sodipodi:nodetypes="cc"
       id="path3518"
       d="M 327.77724,514.16818 C 339.21007,518.89596 352.11435,530.33479 351.94412,535.80594"
       style="fill:none;fill-rule:evenodd;stroke:#b36666;stroke-width:1.25;stroke-linecap:round;stroke-linejoin:miter;stroke-miterlimit:4;stroke-dasharray:none;stroke-opacity:1" />
    <path
       sodipodi:nodetypes="cc"
       id="path3520"
       d="M 323.00007,525.9706 C 331.92409,532.32401 345.83537,542.29856 337.33158,548.73241"
       style="fill:none;fill-rule:evenodd;stroke:#b36666;stroke-width:1.25;stroke-linecap:round;stroke-linejoin:miter;stroke-miterlimit:4;stroke-dasharray:none;stroke-opacity:1" />
    <path
       id="path3522"
       d="M 305.57744,532.99585 L 313.44573,533.27685"
       style="fill:none;fill-rule:evenodd;stroke:#b36666;stroke-width:1.25;stroke-linecap:round;stroke-linejoin:miter;stroke-miterlimit:4;stroke-dasharray:none;stroke-opacity:1" />
    <path
       id="path3524"
       d="M 345.76188,487.47221 L 346.32391,494.49747"
       style="fill:none;fill-rule:evenodd;stroke:#b36666;stroke-width:1.25;stroke-linecap:round;stroke-linejoin:miter;stroke-miterlimit:4;stroke-dasharray:none;stroke-opacity:1" />
    <path
       id="path3526"
       d="M 377.23501,492.5304 L 377.23501,496.74555"
       style="fill:none;fill-rule:evenodd;stroke:#b36666;stroke-width:1.25;stroke-linecap:round;stroke-linejoin:miter;stroke-miterlimit:4;stroke-dasharray:none;stroke-opacity:1" />
    <path
       style="fill:#e3c8c8;fill-opacity:1;fill-rule:evenodd;stroke:none;stroke-width:0.5;stroke-linecap:butt;stroke-linejoin:miter;stroke-miterlimit:4;stroke-dasharray:none;stroke-opacity:1"
       d="M 231.40489,482.42153 C 236.7906,478.25377 242.55433,486.4912 240.74398,489.17746 C 232.41408,501.53765 228.90009,509.53549 230.39294,522.98756 C 231.8858,536.43964 238.38552,555.34594 245.31419,555.34594 L 217.2969,555.54465 C 213.54156,555.54465 228.59348,484.57058 231.40489,482.42153 z"
       id="path3530"
       sodipodi:nodetypes="cssccc" />
    <path
       sodipodi:nodetypes="cccsccccccccc"
       id="path2732"
       d="M 209.97679,483.21634 C 216.02087,483.00092 225.44616,484.57058 228.25758,482.42153 C 233.64329,478.25377 244.74446,478.66572 244.35261,484.80597 C 231.43872,495.43917 226.93837,506.34224 227.34538,518.62361 C 227.75239,530.90498 234.9952,556.58969 240.37853,555.14723 L 214.14959,555.54465 C 210.39425,555.54465 207.98975,552.37069 207.98975,549.98092 C 207.98975,544.94706 216.33532,541.52318 216.33532,538.05868 C 216.33532,534.00272 209.67592,529.76924 210.77161,524.1494 C 211.98178,521.51966 215.54051,519.29931 215.54051,515.40641 C 215.54051,510.78211 208.38716,497.19675 208.38716,493.15154 C 208.38716,490.07558 211.16902,489.77831 211.16902,487.19042 C 211.16902,485.27183 210.93293,484.35479 209.97679,483.21634 z"
       style="fill:#800000;fill-opacity:1;fill-rule:evenodd;stroke:none;stroke-width:0.5;stroke-linecap:butt;stroke-linejoin:miter;stroke-miterlimit:4;stroke-dasharray:none;stroke-opacity:1" />
    <path
       sodipodi:nodetypes="cc"
       id="path3534"
       d="M 356.5862,515.85424 C 360.13885,519.4137 363.94948,522.97317 363.18994,526.53262"
       style="fill:none;fill-rule:evenodd;stroke:#b36666;stroke-width:1.25;stroke-linecap:round;stroke-linejoin:miter;stroke-miterlimit:4;stroke-dasharray:none;stroke-opacity:1" />
    <path
       sodipodi:nodetypes="cc"
       id="path3536"
       d="M 332.27884,547.04635 C 328.78894,548.56373 325.26307,549.82919 321.03843,546.20333"
       style="fill:none;fill-rule:evenodd;stroke:#b36666;stroke-width:1.25;stroke-linecap:round;stroke-linejoin:miter;stroke-miterlimit:4;stroke-dasharray:none;stroke-opacity:1" />
    <path
       style="fill:none;fill-rule:evenodd;stroke:#b36666;stroke-width:1.25;stroke-linecap:round;stroke-linejoin:miter;stroke-miterlimit:4;stroke-dasharray:none;stroke-opacity:1"
       d="M 329.39027,496.86436 C 332.10155,496.61399 332.00957,497.57725 333.82653,498.2212"
       id="path3570"
       sodipodi:nodetypes="cc" />
  </g>
</svg>
