<?xml version="1.0" encoding="UTF-8" standalone="no"?>
<!-- Created with Inkscape (http://www.inkscape.org/) -->

<svg
   xmlns:dc="http://purl.org/dc/elements/1.1/"
   xmlns:cc="http://creativecommons.org/ns#"
   xmlns:rdf="http://www.w3.org/1999/02/22-rdf-syntax-ns#"
   xmlns:svg="http://www.w3.org/2000/svg"
   xmlns="http://www.w3.org/2000/svg"
   xmlns:xlink="http://www.w3.org/1999/xlink"
   xmlns:inkscape="http://www.inkscape.org/namespaces/inkscape"
   version="1.1"
   width="128"
   height="128"
   id="svg3268">
  <defs
     id="defs3270">
    <linearGradient
       id="linearGradient3644">
      <stop
         id="stop3646"
         style="stop-color:#ff5e2b;stop-opacity:1"
         offset="0" />
      <stop
         id="stop3652"
         style="stop-color:#ed2c00;stop-opacity:1"
         offset="0.5" />
      <stop
         id="stop3648"
         style="stop-color:#ff2300;stop-opacity:1"
         offset="1" />
    </linearGradient>
    <radialGradient
       cx="484.19061"
       cy="79.880104"
       r="70.37822"
       fx="484.19061"
       fy="79.880104"
       id="radialGradient4151"
       xlink:href="#linearGradient3644"
       gradientUnits="userSpaceOnUse"
       gradientTransform="matrix(2.0017447,-2.0965148,0.80402993,0.76768485,-680.1194,1449.3421)" />
  </defs>
  <metadata
     id="metadata3273">
    <rdf:RDF>
      <cc:Work
         rdf:about="">
        <dc:format>image/svg+xml</dc:format>
        <dc:type
           rdf:resource="http://purl.org/dc/dcmitype/StillImage" />
        <dc:title />
      </cc:Work>
    </rdf:RDF>
  </metadata>
  <g
     transform="translate(-127.5418,-544.46773)"
     id="layer1">
    <g
       transform="matrix(0.36643764,0.01557431,-0.01557431,0.36643764,67.576049,422.92008)"
       id="g4136">
      <path
         d="m 295.55385,586.48223 c -1.9966,26.36894 4.90386,56.93217 -8.81639,77.77431 -17.18006,-6.26347 -34.1889,-11.93298 -49.30536,-13.5574 -8.694,-5.20772 -18.61119,-10.34645 -27.53502,-25.49227 1.58205,1.51054 -9.59471,-23.68576 -17.98721,-36.32795 -9.34501,-14.07698 76.06393,-24.11447 82.76985,-22.32724 9.47928,2.52638 8.42745,-6.31888 8.42745,-6.31888 -1.46593,-29.75679 -3.29822,-59.60915 6.03962,-86.5476 3.68428,-10.62866 9.9824,-21.45975 17.85306,-30.99635 50.8895,-45.88833 79.83098,-26.13062 117.97524,-32.71224 8.30745,0.28394 9.22151,-2.91755 8.82605,-6.73636 2.22368,-23.551 -6.52218,-30.3285 16.78864,-86.12396 l 40.87792,19.87625 c 10.62808,5.87373 15.44202,13.83607 19.69719,21.99912 1.84368,-0.66231 18.37659,43.97557 16.20173,47.39239 -7.95419,12.49638 -72.28047,16.64606 -75.61369,13.9965 -9.56827,-2.48846 -5.9574,4.79303 -6.32118,9.12801 -0.86468,27.02759 8.02696,18.22596 -2.99052,82.53877 2.23365,0.34906 -13.93319,28.97721 -19.23002,33.51418 -1.77521,1.52052 -32.51499,27.05438 -40.61829,26.66002 -21.39391,8.10251 -49.96988,8.95004 -79.02907,7.54323 -5.21729,-0.83837 -8.53154,0.62244 -8.01,6.71747 z"
         inkscape:connector-curvature="0"
         id="path2816"
         style="fill:url(#radialGradient4151);fill-opacity:1;stroke:#000000;stroke-width:5.21762705;stroke-linecap:butt;stroke-linejoin:miter;stroke-miterlimit:4;stroke-opacity:1;stroke-dasharray:none" />
      <path
         d="m 199.38111,596.50615 c 26.83136,-14.12757 52.81056,-20.7435 76.95114,-18.89584 l 2.44259,-2.55823 c -21.36046,-3.08901 -45.83377,-2.1161 -82.42716,16.9482 l 3.03343,4.50587 z"
         inkscape:connector-curvature="0"
         id="path3592"
         style="fill:#f68c7c;fill-opacity:1;stroke:none" />
      <path
         d="m 271.24175,653.99594 c 8.78108,-12.36367 13.7746,-27.01005 12.25476,-44.43296 0.78133,-11.02098 2.401,-21.74652 9.63981,-29.38631 0.78458,0.18266 0.43209,2.83898 -0.88822,4.42135 -4.82005,4.08568 -5.27194,10.00149 -2.73412,23.25548 0.5671,8.034 1.35582,14.30649 0.62185,21.11346 -1.17663,7.33107 -3.6648,15.86217 -6.14412,21.41329 0.77944,-0.81634 0.80612,-20.22288 0.97198,-16.17453 0.12536,3.05984 -12.60387,22.46951 -13.72194,19.79022 z"
         inkscape:connector-curvature="0"
         id="path3594"
         style="fill:#ffa292;fill-opacity:1;stroke:none" />
      <path
         d="m 272.00936,577.10529 -31.74849,11.02091 c -11.56982,4.43709 -25.88512,7.77195 -24.91612,17.24296 0,0 2.2319,5.55029 9.03818,5.99375 8.83574,0.57569 40.10997,-21.5598 41.77888,-23.00021 3.56818,-3.0797 14.60914,-12.31556 14.31496,-12.00745 1.43466,0.76215 1.79138,2.89013 0.92031,4.16913 -6.66889,2.26952 -10.94243,7.58358 -14.76102,13.47587 -3.54711,3.53958 -2.50818,4.83461 -13.37732,13.85871 -3.62187,2.87253 -6.57187,4.01849 -9.50277,3.90953 -7.76248,-1.66248 -10.13413,3.17441 -12.10177,5.6793 4.41511,-1.65401 9.31735,-3.30717 13.32488,-2.64618 3.45952,0.53613 5.40747,-1.31982 7.46094,-3.00878 l -11.1726,18.32721 c 0.75357,3.98119 3.3264,5.13715 6.26511,3.58946 2.07183,-1.09114 14.14559,-17.79536 17.94107,-24.74912 13.59534,-19.10565 10.53036,-17.03699 16.20039,-22.48871 3.54937,-2.80673 5.09938,-2.51425 4.95021,-4.30491 0.57468,0.69658 1.26545,1.27157 -1.70287,5.67883 l -2.19004,4.36889 c -6.63355,11.12116 -10.48446,18.46434 -14.89671,30.54002 -2.24204,7.74031 -3.83095,12.53106 -4.01822,16.68306 -0.34151,5.78112 0.31571,7.77701 2.01096,9.42789 1.14011,2.45927 3.51841,2.71115 5.04426,1.93778 l 2.38702,-1.73603 1.61725,-0.0374 -2.34483,3.56013 c 0.79647,0.0921 1.49178,-0.17106 3.47557,-2.42993 2.72697,7.50717 7.76015,9.13311 12.41603,12.1221 0.14319,-1.19968 -43.64248,-12.29407 -45.90411,-13.04336 -16.59107,-5.49655 -29.66314,-20.66865 -30.84917,-27.87313 L 198.79242,595.8135 c 10.13969,-5.78987 20.29079,-10.40475 29.58177,-12.92481 8.84981,-2.86045 17.89639,-5.11333 24.89765,-5.0952 8.9262,-2.10952 14.63049,-1.73982 18.73744,-0.68812 z"
         inkscape:connector-curvature="0"
         id="path3596"
         style="fill:#be1901;fill-opacity:1;stroke:none" />
      <path
         d="m 292.27043,563.14096 c -2.14395,-7.17678 -3.71349,-16.42613 -0.40084,-23.9035 1.40701,-2.9504 5.72654,-7.36974 6.08432,-8.29307 l -1.77842,13.06629 -1.51454,18.98275 c -0.61091,1.58683 -1.50686,0.81627 -2.39052,0.14753 z"
         inkscape:connector-curvature="0"
         id="path3598"
         style="fill:#ff8e7c;fill-opacity:1;stroke:none" />
      <path
         d="m 285.1485,535.25511 c 1.2035,-15.29444 5.11959,-41.88363 19.65713,-62.5458 11.19527,-15.52833 25.55634,-28.03392 40.3325,-40.14323 16.66612,-9.13988 29.40029,-15.7968 48.2197,-18.94236 -20.84645,-0.005 -34.48325,1.90315 -42.25235,4.54515 -14.06463,5.5734 -45.72554,19.34482 -59.45567,55.5132 -5.50362,17.64827 -7.12294,37.44831 -7.63438,46.57917 0.66031,7.4409 -0.21751,5.13155 1.13307,14.99387 z"
         inkscape:connector-curvature="0"
         id="path3600"
         style="fill:#ff8a78;fill-opacity:1;stroke:none" />
      <path
         d="m 285.08673,534.52956 c 3.2308,-23.89437 12.17074,-50.15027 16.11624,-56.53714 7.42174,-13.10295 32.7227,-38.7575 52.29307,-49.55344 12.74197,-6.21254 21.1036,-8.97917 39.90317,-14.52202 -12.85761,0.50772 -20.72866,1.34246 -31.68152,5.3842 -20.5071,9.19831 -46.334,25.03683 -64.82792,55.29327 -4.72105,7.3009 -11.46749,34.33111 -12.32117,41.2325 -0.35276,6.39705 0.48044,18.07798 0.51813,18.70263 z"
         inkscape:connector-curvature="0"
         id="path3600-1"
         style="fill:#fbc1b5;fill-opacity:1;stroke:none" />
      <path
         d="m 299.49698,566.64205 c 15.35979,-0.60382 32.21243,-5.04677 50.27544,-11.94791 l -0.46757,8.09906 c -9.72599,2.80752 -18.52324,6.99591 -27.92774,7.8579 -8.97516,2.28745 -13.78019,-0.74404 -21.88013,-4.00905 z"
         inkscape:connector-curvature="0"
         id="path3624"
         style="fill:#a61701;fill-opacity:1;stroke:none" />
      <path
         d="m 400.56272,421.81282 c 2.28804,0.86329 4.32436,3.20734 8.38987,3.12991 8.33892,-0.77946 16.43564,-2.63935 24.20903,-5.94166 l -4.20783,-2.78775 c -10.72417,1.28294 -18.62798,3.39891 -28.39107,5.5995 z"
         inkscape:connector-curvature="0"
         id="path3626"
         style="fill:#fc5539;fill-opacity:1;stroke:none" />
      <path
         d="m 422.22623,475.69025 c 8.04959,-14.12415 14.62315,-48.35683 11.22085,-52.19528 l 2.96058,1.41438 c 2.13032,12.07453 3.13995,17.66474 2.45883,21.05925 -0.81074,9.07084 -3.36587,13.58082 -5.36565,18.41119 -2.45513,4.67907 -8.11071,10.17259 -11.27461,11.31046 z"
         inkscape:connector-curvature="0"
         id="path3628"
         style="fill:#971401;fill-opacity:1;stroke:none" />
      <path
         d="m 471.79745,330.06766 c -9.17314,15.66693 -19.83905,34.15337 -25.24572,61.00868 l -1.65081,14.17485 c 3.43881,-2.41926 13.03357,-12.05917 19.85884,-20.33628 10.00113,-11.36845 9.58495,-15.47705 14.05165,-24.33075 7.23349,-21.30921 6.72467,-1.91644 6.94255,3.31991 13.37744,-3.68255 13.125,-8.99165 14.02406,-14.16332 2.93091,-2.94131 3.77972,2.74867 6.26585,4.98067 -32.35503,30.7387 -38.9814,35.26268 -59.23673,53.32884 0.99078,0.92595 1.58791,1.53216 5.05677,-0.13729 13.11672,-8.75043 16.9729,-11.53743 23.79529,-16.49545 4.96938,-3.94699 19.44195,-16.08678 26.23707,-24.46602 l 6.04735,-7.9653 c 2.08457,1.73424 3.24773,4.63851 4.62367,7.47444 l -13.71797,12.99137 14.87323,-9.68647 1.67927,4.57417 -29.30992,15.07107 c -10.94656,5.6456 -14.12824,7.19152 -29.48032,18.80817 -5.43595,4.05346 -8.1193,5.88413 -11.15521,8.421 -3.60564,-10.54211 -3.82409,-19.84737 -3.94004,-27.28256 0.21367,-7.75062 1.45023,-12.49793 2.39493,-19.55814 1.03895,-8.89976 3.13773,-17.19647 6.74581,-24.63443 3.22476,-7.27506 4.31352,-16.34 11.49359,-19.39708 l 9.64679,4.29992 z"
         inkscape:connector-curvature="0"
         id="path3630"
         style="fill:#861200;fill-opacity:1;stroke:none" />
      <path
         d="m 445.19815,416.84003 c 3.78027,-3.0755 7.1983,-6.12491 12.47875,-7.76804 5.49637,-1.23846 8.70274,-1.6543 11.19951,-1.81524 5.56533,0.22837 10.51231,0.42382 13.198,-0.18092 7.97878,-0.89917 14.54035,-4.10037 20.12184,-6.36739 7.63657,-2.86369 10.7434,-8.09628 15.27448,-11.64927 2.24158,1.19129 3.09534,2.97546 0.33601,6.30239 -6.05709,4.54446 -10.81197,6.80022 -15.42914,8.81398 l -10.43663,3.06041 c 4.0226,-0.49136 4.82275,-0.17634 23.73227,-4.39299 -2.48762,3.50022 -6.05362,4.55712 -11.37828,6.67007 -3.12019,1.5597 -15.97829,3.86475 -20.33029,4.24832 -2.41899,0.0482 -8.37082,-1.53438 -14.73142,-2.15613 -5.33046,0.59152 -9.29247,0.77474 -13.59414,2.69457 -2.85284,1.14254 -5.59643,2.3366 -10.44096,2.54024 z"
         inkscape:connector-curvature="0"
         id="path3632"
         style="fill:#feb0a5;fill-opacity:1;stroke:none" />
      <path
         d="m 436.56402,377.34389 c -0.42493,9.70149 2.33578,13.02686 4.79032,15.87313 2.46901,-14.79161 2.8716,-21.60859 4.83812,-32.7406 2.76674,-11.607 10.2276,-34.46876 16.55224,-34.54375 l -10.90663,-5.60909 -8.86463,23.85629 c -2.56368,7.40058 -4.46416,13.84856 -5.73311,22.01945 -0.54345,3.72222 -0.76816,7.43705 -0.67631,11.14457 z"
         inkscape:connector-curvature="0"
         id="path3634"
         style="fill:#fea293;fill-opacity:1;stroke:none" />
    </g>
  </g>
</svg>
