<?xml version="1.0" encoding="UTF-8" standalone="no"?>
<!-- Created with Inkscape (http://www.inkscape.org/) -->

<svg
   xmlns:dc="http://purl.org/dc/elements/1.1/"
   xmlns:cc="http://creativecommons.org/ns#"
   xmlns:rdf="http://www.w3.org/1999/02/22-rdf-syntax-ns#"
   xmlns:svg="http://www.w3.org/2000/svg"
   xmlns="http://www.w3.org/2000/svg"
   xmlns:sodipodi="http://sodipodi.sourceforge.net/DTD/sodipodi-0.dtd"
   xmlns:inkscape="http://www.inkscape.org/namespaces/inkscape"
   width="368.53778"
   height="373.94736"
   id="svg4183"
   version="1.1"
   inkscape:version="0.47 r22583"
   sodipodi:docname="to-floor.svg">
  <defs
     id="defs4185">
    <inkscape:perspective
       sodipodi:type="inkscape:persp3d"
       inkscape:vp_x="0 : 526.18109 : 1"
       inkscape:vp_y="0 : 1000 : 0"
       inkscape:vp_z="744.09448 : 526.18109 : 1"
       inkscape:persp3d-origin="372.04724 : 350.78739 : 1"
       id="perspective4191" />
    <inkscape:perspective
       id="perspective4160"
       inkscape:persp3d-origin="0.5 : 0.33333333 : 1"
       inkscape:vp_z="1 : 0.5 : 1"
       inkscape:vp_y="0 : 1000 : 0"
       inkscape:vp_x="0 : 0.5 : 1"
       sodipodi:type="inkscape:persp3d" />
    <inkscape:perspective
       id="perspective4210"
       inkscape:persp3d-origin="0.5 : 0.33333333 : 1"
       inkscape:vp_z="1 : 0.5 : 1"
       inkscape:vp_y="0 : 1000 : 0"
       inkscape:vp_x="0 : 0.5 : 1"
       sodipodi:type="inkscape:persp3d" />
    <inkscape:perspective
       id="perspective4331"
       inkscape:persp3d-origin="0.5 : 0.33333333 : 1"
       inkscape:vp_z="1 : 0.5 : 1"
       inkscape:vp_y="0 : 1000 : 0"
       inkscape:vp_x="0 : 0.5 : 1"
       sodipodi:type="inkscape:persp3d" />
  </defs>
  <sodipodi:namedview
     id="base"
     pagecolor="#ffffff"
     bordercolor="#666666"
     borderopacity="1.0"
     inkscape:pageopacity="0.0"
     inkscape:pageshadow="2"
     inkscape:zoom="0.35"
     inkscape:cx="177.52501"
     inkscape:cy="205.5447"
     inkscape:document-units="px"
     inkscape:current-layer="layer1"
     showgrid="false"
     inkscape:window-width="613"
     inkscape:window-height="504"
     inkscape:window-x="883"
     inkscape:window-y="43"
     inkscape:window-maximized="0" />
  <metadata
     id="metadata4188">
    <rdf:RDF>
      <cc:Work
         rdf:about="">
        <dc:format>image/svg+xml</dc:format>
        <dc:type
           rdf:resource="http://purl.org/dc/dcmitype/StillImage" />
        <dc:title />
      </cc:Work>
    </rdf:RDF>
  </metadata>
  <g
     inkscape:label="Layer 1"
     inkscape:groupmode="layer"
     id="layer1"
     transform="translate(-197.47499,-363.95953)">
    <g
       transform="matrix(16.606015,0,0,16.606015,-2819.4523,-15584.588)"
       id="g4315">
      <g
         transform="translate(1.2415086,-0.31037669)"
         id="g4124">
        <path
           sodipodi:type="arc"
           style="fill:#1b1d1e;fill-opacity:1;stroke:none"
           id="path7980-7-2-8-8"
           sodipodi:cx="151.8868"
           sodipodi:cy="577.83386"
           sodipodi:rx="106.60378"
           sodipodi:ry="106.60378"
           d="m 258.49058,577.83386 c 0,58.87565 -47.72814,106.60378 -106.60378,106.60378 -58.875648,0 -106.603788,-47.72813 -106.603788,-106.60378 0,-58.87564 47.72814,-106.60378 106.603788,-106.60378 58.87564,0 106.60378,47.72814 106.60378,106.60378 z"
           transform="matrix(0.0758666,0.07218654,-0.07126829,0.07710007,221.18988,916.46243)" />
        <path
           sodipodi:type="arc"
           style="fill:#34586d;fill-opacity:1;stroke:none"
           id="path6247-5-8-3-9-5"
           sodipodi:cx="399.28571"
           sodipodi:cy="384.50504"
           sodipodi:rx="175"
           sodipodi:ry="175"
           d="m 574.28571,384.50504 c 0,96.64983 -78.35017,175 -175,175 -96.64984,0 -175,-78.35017 -175,-175 0,-96.64984 78.35016,-175 175,-175 96.64983,0 175,78.35016 175,175 z"
           transform="matrix(0.05785081,0.00328328,-0.00333179,0.05870548,169.70345,948.09353)" />
        <path
           style="fill:#f5f5f6;fill-opacity:1;stroke:none"
           d="m 196.06656,966.86263 c 1.28238,1.10644 4.67005,1.93783 1.96337,-1.33678 -5.3469,-5.03687 -11.1027,-1.79511 -12.9362,0.54263 -1.39636,1.5436 -2.81681,4.19672 -0.86362,1.89288 0.84506,-0.94523 5.28543,-6.20885 11.83645,-1.09873 z"
           id="path4739-6-6-7"
           sodipodi:nodetypes="ccccc" />
        <path
           style="fill:#1e333f;fill-opacity:1;stroke:none"
           d="m 181.42451,973.13135 c 3.18463,6.49869 13.19465,10.97165 20.21727,-0.60032 -0.28878,4.23883 -3.31557,8.77771 -8.56313,9.78 -8.27132,0.47248 -11.1045,-5.24714 -11.65414,-9.17968 z"
           id="path4741-4-4-3"
           sodipodi:nodetypes="cccc" />
      </g>
      <path
         sodipodi:nodetypes="ccscccsccssccccccc"
         d="m 195.97282,974.79205 c 0.81978,-0.6195 1.67837,-1.1407 2.49815,-2.0648 0.65439,-1.0151 0.77262,-1.4864 0.60162,-2.5802 -0.17095,-1.0938 -0.79139,-2.212 -1.97168,-3.0949 -1.36968,-1.1382 -4.35193,-2.1094 -7.19337,-1.1263 -2.10078,0.6967 -3.57827,2.4254 -4.00827,4.3711 -0.33287,0.8412 -0.0118,2.952 0.80481,4.0548 0.86688,1.1705 1.71235,1.863 2.6984,2.2321 1.13357,0.1458 0.66079,-0.5221 0.26138,-0.8059 -0.66725,-0.6452 -1.04972,-0.9142 -1.70666,-1.7683 -0.65699,-0.854 -0.7827,-2.4513 -0.36859,-3.5497 0.42367,-1.1237 1.09373,-1.8621 2.4463,-2.2101 2.21084,-0.6148 4.53117,0.4318 4.98677,1.9133 0.45561,1.4814 -0.98766,2.2423 -0.98766,2.2423 l -2.28851,-2.6598 -0.73955,6.8804 6.95008,0.6726 -1.98322,-2.5066 z"
         style="fill:#e2c63e;fill-opacity:1;stroke:#1b2a2f;stroke-width:0.53399998;stroke-linecap:butt;stroke-linejoin:miter;stroke-miterlimit:4;stroke-opacity:1;stroke-dasharray:none"
         id="path3777-7-3-7" />
    </g>
  </g>
</svg>
