<?xml version="1.0" encoding="UTF-8" standalone="no"?>
<!-- Created with Inkscape (http://www.inkscape.org/) -->

<svg
   xmlns:dc="http://purl.org/dc/elements/1.1/"
   xmlns:cc="http://creativecommons.org/ns#"
   xmlns:rdf="http://www.w3.org/1999/02/22-rdf-syntax-ns#"
   xmlns:svg="http://www.w3.org/2000/svg"
   xmlns="http://www.w3.org/2000/svg"
   xmlns:sodipodi="http://sodipodi.sourceforge.net/DTD/sodipodi-0.dtd"
   xmlns:inkscape="http://www.inkscape.org/namespaces/inkscape"
   width="744.09448819"
   height="1052.3622047"
   id="svg2992"
   version="1.1"
   inkscape:version="0.47 r22583"
   sodipodi:docname="button_previous level.svg"
   inkscape:export-filename="/export/home/s12/childressme/Desktop/button_previous level.png"
   inkscape:export-xdpi="90"
   inkscape:export-ydpi="90">
  <defs
     id="defs2994">
    <inkscape:perspective
       sodipodi:type="inkscape:persp3d"
       inkscape:vp_x="0 : 526.18109 : 1"
       inkscape:vp_y="0 : 1000 : 0"
       inkscape:vp_z="744.09448 : 526.18109 : 1"
       inkscape:persp3d-origin="372.04724 : 350.78739 : 1"
       id="perspective3000" />
    <inkscape:perspective
       id="perspective3010"
       inkscape:persp3d-origin="0.5 : 0.33333333 : 1"
       inkscape:vp_z="1 : 0.5 : 1"
       inkscape:vp_y="0 : 1000 : 0"
       inkscape:vp_x="0 : 0.5 : 1"
       sodipodi:type="inkscape:persp3d" />
    <inkscape:perspective
       id="perspective3074"
       inkscape:persp3d-origin="0.5 : 0.33333333 : 1"
       inkscape:vp_z="1 : 0.5 : 1"
       inkscape:vp_y="0 : 1000 : 0"
       inkscape:vp_x="0 : 0.5 : 1"
       sodipodi:type="inkscape:persp3d" />
    <inkscape:perspective
       id="perspective3138"
       inkscape:persp3d-origin="0.5 : 0.33333333 : 1"
       inkscape:vp_z="1 : 0.5 : 1"
       inkscape:vp_y="0 : 1000 : 0"
       inkscape:vp_x="0 : 0.5 : 1"
       sodipodi:type="inkscape:persp3d" />
    <inkscape:perspective
       id="perspective3284"
       inkscape:persp3d-origin="0.5 : 0.33333333 : 1"
       inkscape:vp_z="1 : 0.5 : 1"
       inkscape:vp_y="0 : 1000 : 0"
       inkscape:vp_x="0 : 0.5 : 1"
       sodipodi:type="inkscape:persp3d" />
    <inkscape:perspective
       id="perspective3356"
       inkscape:persp3d-origin="0.5 : 0.33333333 : 1"
       inkscape:vp_z="1 : 0.5 : 1"
       inkscape:vp_y="0 : 1000 : 0"
       inkscape:vp_x="0 : 0.5 : 1"
       sodipodi:type="inkscape:persp3d" />
  </defs>
  <sodipodi:namedview
     id="base"
     pagecolor="#ffffff"
     bordercolor="#666666"
     borderopacity="1.0"
     inkscape:pageopacity="0.0"
     inkscape:pageshadow="2"
     inkscape:zoom="0.35"
     inkscape:cx="375"
     inkscape:cy="520"
     inkscape:document-units="px"
     inkscape:current-layer="layer1"
     showgrid="false"
     inkscape:window-width="635"
     inkscape:window-height="722"
     inkscape:window-x="927"
     inkscape:window-y="24"
     inkscape:window-maximized="0" />
  <metadata
     id="metadata2997">
    <rdf:RDF>
      <cc:Work
         rdf:about="">
        <dc:format>image/svg+xml</dc:format>
        <dc:type
           rdf:resource="http://purl.org/dc/dcmitype/StillImage" />
        <dc:title></dc:title>
      </cc:Work>
    </rdf:RDF>
  </metadata>
  <g
     inkscape:label="Layer 1"
     inkscape:groupmode="layer"
     id="layer1">
    <g
       transform="matrix(26.430596,0,0,26.430596,-5707.0819,-23211.122)"
       id="g3334">
      <g
         id="g3895-1-3"
         transform="translate(14.011634,-0.4292942)">
        <rect
           style="fill:#34586d;fill-opacity:1;stroke:#040505;stroke-width:0.48986334;stroke-miterlimit:4;stroke-opacity:1;stroke-dasharray:none"
           id="rect4852-7-0-7-6"
           width="15.226646"
           height="15.351572"
           x="208.45717"
           y="890.6004"
           ry="1.7925079"
           rx="1.9036002" />
        <path
           style="fill:#e0e0e0;fill-opacity:1;stroke:none"
           d="m 222.34302,892.12727 c -0.24478,-0.19111 -0.60598,-0.28949 -1.13051,-0.3809 -1.12494,-0.29648 -7.4813,-0.39495 -10.41261,-0.0552 -0.49147,0.0324 -0.67011,-0.205 -1.0152,0.54275 -0.36973,1.47564 -0.0973,2.18043 0.25397,1.67903 0.33141,-0.47002 0.38999,-0.64875 0.7292,-0.96148 0.51877,-0.75514 7.59742,-0.82889 10.50027,-0.61972 0.61932,0.0973 0.86362,0.12753 1.16334,0.37106 0.19615,0.23395 0.27874,0.56585 0.34403,1.17015 0.0215,-1.09994 -0.19696,-1.55745 -0.43249,-1.74565 z"
           id="path4854-6-4-1-3"
           sodipodi:nodetypes="cccccccccc" />
        <path
           style="fill:#1b1d1e;fill-opacity:1;stroke:none"
           d="m 210.02555,902.8982 c 0.14924,0.17344 0.16932,0.5006 0.51059,0.71367 4.16732,0.63979 7.71632,0.73441 11.63822,0.54042 0.41046,0.0444 0.51253,-1.20615 0.58983,-2.15851 0.0257,0.32621 0.006,0.94838 -0.005,1.36689 -0.0264,0.72018 -0.0252,0.94629 -0.1757,1.13515 -0.20556,0.33587 -0.10674,0.32447 -0.65467,0.41323 l -11.70088,0.0373 c -0.46914,-0.19118 -0.57115,-0.34217 -0.85565,-1.04742 -0.11813,-0.49624 -0.14451,-0.73369 -0.14297,-1.57569 -0.009,-0.56227 0.0658,-1.08251 0.21063,-1.0343 0.27927,0.35885 0.23645,1.00514 0.58546,1.60926 z"
           id="path4856-2-9-9-7"
           sodipodi:nodetypes="cccccccccccc" />
      </g>
      <path
         id="path4061"
         d="m 224.75271,893.4789 0.40101,1.3033 1.30331,-0.10025 -0.10024,-1.70432 -1.60407,0.50127 z"
         style="fill:#e2c63e;fill-opacity:1;stroke:#040505;stroke-width:0.352;stroke-linecap:butt;stroke-linejoin:miter;stroke-miterlimit:4;stroke-opacity:1;stroke-dasharray:none" />
      <path
         id="path4061-5"
         d="m 224.85214,895.7272 -0.005,1.36358 1.27404,0.29238 0.4118,-1.65685 -1.68057,8.9e-4 z"
         style="fill:#e2c63e;fill-opacity:1;stroke:#040505;stroke-width:0.352;stroke-linecap:butt;stroke-linejoin:miter;stroke-miterlimit:4;stroke-opacity:1;stroke-dasharray:none" />
      <path
         id="path4061-5-5"
         d="m 226.4492,899.6352 -0.27454,-1.33567 -1.30692,-0.0251 -0.0635,1.70607 1.64473,-0.34526 z"
         style="fill:#e2c63e;fill-opacity:1;stroke:#040505;stroke-width:0.352;stroke-linecap:butt;stroke-linejoin:miter;stroke-miterlimit:4;stroke-opacity:1;stroke-dasharray:none" />
      <path
         id="path4061-5-5-0"
         d="m 224.87932,902.18562 0.38731,-1.30742 1.30431,0.0863 -0.082,1.70529 -1.60933,-0.48411 z"
         style="fill:#e2c63e;fill-opacity:1;stroke:#040505;stroke-width:0.352;stroke-linecap:butt;stroke-linejoin:miter;stroke-miterlimit:4;stroke-opacity:1;stroke-dasharray:none" />
      <path
         id="path4129"
         d="m 227.68042,893.30596 -0.26727,1.06905 6.9488,0.26726 -0.17818,-1.51448 -6.50335,0.17817 z"
         style="fill:#e2c63e;fill-opacity:1;stroke:#000000;stroke-width:0.352;stroke-linecap:butt;stroke-linejoin:miter;stroke-miterlimit:4;stroke-opacity:1;stroke-dasharray:none" />
      <path
         id="path4129-4"
         d="m 227.83423,896.06371 -0.26727,1.06905 6.9488,0.26726 -0.17818,-1.51448 -6.50335,0.17817 z"
         style="fill:#e2c63e;fill-opacity:1;stroke:#000000;stroke-width:0.352;stroke-linecap:butt;stroke-linejoin:miter;stroke-miterlimit:4;stroke-opacity:1;stroke-dasharray:none" />
      <path
         id="path4129-1"
         d="m 227.48079,898.67299 -0.26727,1.06905 6.9488,0.26726 -0.17818,-1.51448 -6.50335,0.17817 z"
         style="fill:#e2c63e;fill-opacity:1;stroke:#000000;stroke-width:0.352;stroke-linecap:butt;stroke-linejoin:miter;stroke-miterlimit:4;stroke-opacity:1;stroke-dasharray:none" />
      <path
         id="path4129-9"
         d="m 227.76661,901.27138 -0.26727,1.06905 6.9488,0.26726 -0.17818,-1.51448 -6.50335,0.17817 z"
         style="fill:#e2c63e;fill-opacity:1;stroke:#000000;stroke-width:0.352;stroke-linecap:butt;stroke-linejoin:miter;stroke-miterlimit:4;stroke-opacity:1;stroke-dasharray:none" />
    </g>
  </g>
</svg>
