<?xml version="1.0" encoding="UTF-8" standalone="no"?>
<!-- Created with Inkscape (http://www.inkscape.org/) -->

<svg
   xmlns:dc="http://purl.org/dc/elements/1.1/"
   xmlns:cc="http://creativecommons.org/ns#"
   xmlns:rdf="http://www.w3.org/1999/02/22-rdf-syntax-ns#"
   xmlns:svg="http://www.w3.org/2000/svg"
   xmlns="http://www.w3.org/2000/svg"
   xmlns:inkscape="http://www.inkscape.org/namespaces/inkscape"
   version="1.1"
   width="120"
   height="120"
   id="svg2992">
  <defs
     id="defs2994" />
  <metadata
     id="metadata2997">
    <rdf:RDF>
      <cc:Work
         rdf:about="">
        <dc:format>image/svg+xml</dc:format>
        <dc:type
           rdf:resource="http://purl.org/dc/dcmitype/StillImage" />
        <dc:title />
      </cc:Work>
    </rdf:RDF>
  </metadata>
  <g
     transform="translate(-374.43463,-539.23183)"
     id="layer1">
    <g
       transform="translate(-950.91701,-214.10809)"
       id="g4115">
      <path
         d="m 258.49058,577.83386 a 106.60378,106.60378 0 1 1 -213.207568,0 106.60378,106.60378 0 1 1 213.207568,0 z"
         transform="matrix(0.41729804,0.34908584,-0.34908585,0.41729804,1523.6832,519.18945)"
         id="path4117"
         style="fill:#34586d;fill-opacity:1;stroke:#000000;stroke-width:7.35221863;stroke-miterlimit:4;stroke-opacity:1;stroke-dasharray:none" />
      <path
         d="m 1409.1446,782.67297 c 7.1563,5.49897 25.4297,8.89911 10.0415,-7.70442 -29.9661,-25.18157 -59.6079,-6.1977 -68.6563,6.7926 -6.9625,8.63348 -13.7181,23.17689 -4.0229,10.33078 4.2104,-5.28371 26.2437,-34.62666 62.6377,-9.41896 z"
         inkscape:connector-curvature="0"
         id="path4119"
         style="fill:#f5f5f6;fill-opacity:1;stroke:none" />
      <path
         d="m 1329.2531,820.08964 c 26.3289,43.15715 79.8717,54.73843 113.7379,-8.94436 -0.2563,22.63766 -13.5743,48.75884 -45.0775,56.73603 -37.143,8.19292 -64.1954,-19.25848 -68.6604,-47.79167 z"
         inkscape:connector-curvature="0"
         id="path4121"
         style="fill:#1e333f;fill-opacity:1;stroke:none" />
    </g>
    <g
       transform="translate(157.14286,-20.357143)"
       id="g4952">
      <path
         d="m 240.89394,608.57912 c 1.98578,9.67175 2.69272,18.44634 2.30501,28.1181 l 12.48596,-5.82222 c 16.36311,9.75504 34.86327,20.07459 36.15357,18.09674 -3.69597,-19.98964 -4.96522,-40.41804 -2.0777,-59.24319 -1.40332,-2.54533 -19.49649,12.31849 -35.18457,22.27207 l -13.68227,-3.4215 z"
         inkscape:connector-curvature="0"
         id="path4230-1"
         style="fill:#83acc4;fill-opacity:1;stroke:#0f1b20;stroke-width:2.62696338;stroke-miterlimit:4;stroke-opacity:1;stroke-dasharray:none" />
      <path
         d="m 303.63813,583.25535 10.98145,4.55216 c -23.53487,22.89828 -43.56842,46.19459 -62.59702,68.12025 l -7.72455,-3.71686 59.34012,-68.95555 z"
         inkscape:connector-curvature="0"
         id="path4338"
         style="fill:#83acc4;fill-opacity:1;stroke:#142b2d;stroke-width:2.66426301;stroke-linecap:butt;stroke-linejoin:miter;stroke-miterlimit:4;stroke-opacity:1;stroke-dasharray:none" />
    </g>
  </g>
</svg>
