<?xml version="1.0" encoding="UTF-8" standalone="no"?>
<!-- Created with Inkscape (http://www.inkscape.org/) -->

<svg
   xmlns:dc="http://purl.org/dc/elements/1.1/"
   xmlns:cc="http://creativecommons.org/ns#"
   xmlns:rdf="http://www.w3.org/1999/02/22-rdf-syntax-ns#"
   xmlns:svg="http://www.w3.org/2000/svg"
   xmlns="http://www.w3.org/2000/svg"
   xmlns:xlink="http://www.w3.org/1999/xlink"
   xmlns:inkscape="http://www.inkscape.org/namespaces/inkscape"
   version="1.1"
   width="2048"
   height="338.56"
   id="svg2">
  <defs
     id="defs4">
    <linearGradient
       id="linearGradient5863">
      <stop
         id="stop5865"
         style="stop-color:#5e5e5e;stop-opacity:1"
         offset="0" />
      <stop
         id="stop5867"
         style="stop-color:#3b3b3b;stop-opacity:1"
         offset="1" />
    </linearGradient>
    <linearGradient
       id="linearGradient5831">
      <stop
         id="stop5833"
         style="stop-color:#8b8b8b;stop-opacity:1"
         offset="0" />
      <stop
         id="stop5835"
         style="stop-color:#c2c2c2;stop-opacity:1"
         offset="1" />
    </linearGradient>
    <linearGradient
       id="linearGradient5821">
      <stop
         id="stop5823"
         style="stop-color:#dedede;stop-opacity:1"
         offset="0" />
      <stop
         id="stop5825"
         style="stop-color:#606060;stop-opacity:1"
         offset="1" />
    </linearGradient>
    <filter
       x="-0.029415239"
       y="-0.14625551"
       width="1.0588305"
       height="1.292511"
       color-interpolation-filters="sRGB"
       id="filter5945">
      <feGaussianBlur
         id="feGaussianBlur5947"
         stdDeviation="1.296875" />
    </filter>
    <filter
       color-interpolation-filters="sRGB"
       id="filter6659">
      <feGaussianBlur
         id="feGaussianBlur6661"
         stdDeviation="2.8069633" />
    </filter>
    <linearGradient
       x1="239.1516"
       y1="789.26337"
       x2="239.15015"
       y2="788.1991"
       id="linearGradient4151"
       xlink:href="#linearGradient5863"
       gradientUnits="userSpaceOnUse"
       gradientTransform="matrix(7.3057007,0,0,7.3057007,-534.81504,-4861.4793)" />
    <linearGradient
       x1="148.18658"
       y1="778.23444"
       x2="136.27452"
       y2="763.24628"
       id="linearGradient4156"
       xlink:href="#linearGradient5821"
       gradientUnits="userSpaceOnUse"
       gradientTransform="matrix(3.7319434,0,0,3.7319434,654.79995,-2167.2578)" />
    <linearGradient
       x1="121.61147"
       y1="761.59668"
       x2="118.2017"
       y2="753.95569"
       id="linearGradient4159"
       xlink:href="#linearGradient5831"
       gradientUnits="userSpaceOnUse"
       gradientTransform="matrix(3.7319434,0,0,3.7319434,654.79995,-2167.2578)" />
  </defs>
  <metadata
     id="metadata7">
    <rdf:RDF>
      <cc:Work
         rdf:about="">
        <dc:format>image/svg+xml</dc:format>
        <dc:type
           rdf:resource="http://purl.org/dc/dcmitype/StillImage" />
        <dc:title />
      </cc:Work>
    </rdf:RDF>
  </metadata>
  <g
     transform="translate(-161.43777,-586.69385)"
     id="layer1">
    <path
       d="m 232.92946,748.96512 c -7.59601,0 -13.74441,6.1484 -13.74441,13.74442 0,0.0633 -10e-4,0.12849 0,0.19156 l -1.58037,0.0319 -0.87798,4.16643 c -0.66198,3.60021 -2.9664,4.24257 -5.49139,3.9589 l -5.66697,-2.64991 c 0,0 -4.95716,2.80732 -8.98735,4.50166 l -5.69891,0.0159 c -3.91951,1.08336 -7.03224,3.15467 -8.33285,7.43891 l -0.66096,8.72586 103.30852,-0.72618 -0.72177,-9.29266 c -1.44462,-2.71156 -1.7102,-5.86983 -9.00331,-6.3534 l -5.73083,-0.22349 -7.63047,-4.64532 c 0,0 -5.21591,2.6793 -6.08202,3.51193 -5.24522,0.0456 -5.79469,-2.72973 -5.79469,-2.72973 l -1.48459,-5.50734 -2.07523,-0.0479 c 0.003,-0.12062 0.0159,-0.24577 0.0159,-0.36715 0,-7.59602 -6.16437,-13.74442 -13.76038,-13.74442 z m -0.17559,6.32147 c 3.95803,0 7.16753,3.19115 7.16753,7.11964 0,3.9285 -3.2095,7.10368 -7.16753,7.10368 -3.95804,0 -7.16753,-3.17518 -7.16753,-7.10368 0,-3.92849 3.20949,-7.11964 7.16753,-7.11964 z"
       inkscape:connector-curvature="0"
       transform="matrix(7.408673,0,0,7.408673,-548.51373,-4948.6566)"
       id="path5709-20"
       style="fill:#414141;fill-opacity:1;stroke:none;filter:url(#filter6659)" />
    <path
       d="m 204.72991,770.50727 c -1.62104,0.83643 -3.49435,1.7619 -5.25,2.5 l -5.6875,0.0312 c -3.91951,1.08336 -7.04314,3.15326 -8.34375,7.4375 l -1.28125,11.25 105.8125,0.0625 -2.59375,-12.59375 c -1.44462,-2.71156 -1.70689,-5.89143 -9,-6.375 l -5.75,-0.21875 -3.4375,-2.09375 -8.84375,0 c -0.6616,0.39534 -1.20819,0.7483 -1.4375,0.96875 -2.13567,0.0186 -3.45391,-0.42974 -4.3125,-0.96875 l -36.8125,0 c -1.00792,0.69385 -2.30218,0.80837 -3.65625,0.65625 l -1.40625,-0.65625 -8,0 z"
       inkscape:connector-curvature="0"
       transform="matrix(7.3057007,0,0,7.3057007,-526.26782,-4862.844)"
       id="path5709-2"
       style="fill:#222222;fill-opacity:1;stroke:none;filter:url(#filter5945)" />
    <path
       d="m 1175.4451,608.87089 c -55.4943,0 -100.4126,44.9184 -100.4126,100.41259 0,0.46153 -0.01,0.93811 0,1.39953 l -11.5457,0.23345 -6.4142,30.43868 c -4.8363,26.30207 -21.6716,30.99488 -40.1185,28.92254 l -41.40109,-19.3594 c 0,0 -36.21559,20.50933 -65.65893,32.88777 l -41.63458,0.11619 c -28.63475,7.91466 -51.37543,23.04707 -60.87736,54.34641 l -9.4464,82.21937 773.21206,0.46691 -19.1263,-92.13237 c -10.5539,-19.80984 -12.4942,-42.88306 -65.7755,-46.41604 l -41.8677,-1.63266 -55.746,-33.93733 c 0,0 -38.1058,19.57424 -44.4334,25.65711 -38.3199,0.3335 -42.3342,-19.9426 -42.3342,-19.9426 l -10.8459,-40.23494 -15.1612,-0.34964 c 0.022,-0.88109 0.1162,-1.79554 0.1162,-2.68233 0,-55.4942 -45.0351,-100.41248 -100.5292,-100.41248 z m -1.2828,46.1828 c 28.9162,0 52.3637,23.31356 52.3637,52.01394 0,28.70037 -23.4475,51.89731 -52.3637,51.89731 -28.9163,0 -52.3639,-23.19694 -52.3639,-51.89731 0,-28.70038 23.4476,-52.01394 52.3639,-52.01394 z"
       inkscape:connector-curvature="0"
       id="path5709"
       style="fill:url(#linearGradient4159);fill-opacity:1;stroke:#000000;stroke-width:8.58346939;stroke-linecap:butt;stroke-linejoin:miter;stroke-miterlimit:4;stroke-opacity:1;stroke-dasharray:none" />
    <path
       d="m 1174.6287,635.49999 c -39.7504,0 -71.9564,32.20614 -71.9564,71.95664 0,39.75029 32.206,71.95632 71.9564,71.95632 39.7505,0 71.9566,-32.20603 71.9566,-71.95632 0,-39.7505 -32.2061,-71.95664 -71.9566,-71.95664 z m -0.9327,18.6598 c 28.9162,0 52.3638,23.31345 52.3638,52.01393 0,28.70038 -23.4476,51.89732 -52.3638,51.89732 -28.9162,0 -52.3639,-23.19694 -52.3639,-51.89732 0,-28.70048 23.4477,-52.01393 52.3639,-52.01393 z"
       inkscape:connector-curvature="0"
       id="path5723"
       style="opacity:0.49372385;fill:url(#linearGradient4156);fill-opacity:1;stroke:#000000;stroke-width:6.85557985;stroke-miterlimit:4;stroke-opacity:1;stroke-dasharray:none" />
    <path
       d="m 1072.0831,743.68062 c 0.6476,-1.9199 -3.4377,0.36363 -5.4891,5.82963 -1.4971,8.2018 -3.3776,15.11413 -8.0405,22.61428 -4.0432,6.05963 -10.8136,9.47319 -20.8902,12.42813 -8.6019,1.35177 -22.9425,2.72096 -34.2807,-5.44437 -3.55458,-2.10677 -7.13543,-1.28721 -10.47433,1.04139 10.93283,10.4481 28.73083,15.18846 37.33663,15.65536 6.613,-0.19041 24.5335,-2.18874 34.4477,-20.48566 2.0424,-2.70342 6.0846,-15.76898 7.3905,-31.63843 z"
       inkscape:connector-curvature="0"
       id="path5785"
       style="fill:#e5e5e5;fill-opacity:0.9665072;stroke:none" />
    <path
       d="m 906.84253,799.19526 c -0.85312,-2.47158 -14.61613,-1.85901 -19.35154,-1.883 -10.77278,0.24636 -25.92908,2.6123 -36.00097,6.44575 -6.34612,2.41531 -16.34152,6.5374 -24.15075,17.67973 -5.20996,7.43366 -6.91943,14.42151 -9.21425,23.95119 -1.961,8.1437 -3.44132,13.07438 5.06881,2.01199 5.1198,-8.62481 9.3101,-14.82247 11.93434,-17.89758 6.15818,-7.21625 19.25784,-17.06813 33.56876,-21.57956 10.87929,-3.42959 21.41442,-6.89738 35.58161,-5.34992 0.69283,-0.14093 1.93152,-1.36371 2.56399,-3.3786 z"
       inkscape:connector-curvature="0"
       id="path5787"
       style="fill:#e5e5e5;fill-opacity:0.9665072;stroke:none" />
    <path
       d="m 821.96934,905.47893 c 1.68763,-3.41399 2.94784,-7.25971 7.23786,-8.04549 l 702.6402,-0.894 c 8.7825,1.96035 14.3613,5.13132 14.6907,9.83349 l -724.56876,-0.894 z"
       inkscape:connector-curvature="0"
       id="path5789"
       style="fill:url(#linearGradient4151);fill-opacity:1;stroke:none" />
    <path
       d="m 1506.606,800.01277 c 6.0173,2.02834 12.2837,8.00256 12.8435,1.12692 -13.5457,-7.53576 -41.9476,-8.64676 -54.36,-6.06265 -9.5914,1.57865 -29.2728,3.53405 -35.6995,-3.02993 -4.5837,-4.29841 -10.0261,-8.35897 -24.3945,-22.43321 -2.8428,-1.65127 -5.4506,-3.95061 -13.6893,-3.12245 14.946,17.3629 14.1905,17.02219 28.5553,32.02336 5.4919,4.33467 13.5866,8.29625 32.84,4.55231 21.264,-7.14126 46.9347,-5.00684 53.9045,-3.05435 z"
       inkscape:connector-curvature="0"
       id="path5791"
       style="fill:#dedede;fill-opacity:0.71291863;stroke:none" />
    <path
       d="m 1526.278,813.28951 c 6.6552,1.57833 8.8956,3.46068 12.8498,11.82644 10.0362,17.6042 11.4724,40.82147 9.0158,53.58978 -1.4863,1.46344 -6.6504,3.71167 -8.6441,-0.90368 1.2319,-11.4315 0.1894,-32.35836 -3.7835,-44.3225 -3.4421,-10.28081 -5.0983,-13.5372 -9.438,-20.18928 z"
       inkscape:connector-curvature="0"
       id="path5793"
       style="fill:#4c4c4c;fill-opacity:1;stroke:none" />
  </g>
</svg>
