<?xml version="1.0" encoding="UTF-8" standalone="no"?>
<!-- Created with Inkscape (http://www.inkscape.org/) -->

<svg
   xmlns:dc="http://purl.org/dc/elements/1.1/"
   xmlns:cc="http://creativecommons.org/ns#"
   xmlns:rdf="http://www.w3.org/1999/02/22-rdf-syntax-ns#"
   xmlns:svg="http://www.w3.org/2000/svg"
   xmlns="http://www.w3.org/2000/svg"
   xmlns:inkscape="http://www.inkscape.org/namespaces/inkscape"
   version="1.1"
   width="261.37"
   height="135.44"
   viewBox="0 0 261.37 135.44"
   id="Layer_1"
   xml:space="preserve"><metadata
   id="metadata41"><rdf:RDF><cc:Work
       rdf:about=""><dc:format>image/svg+xml</dc:format><dc:type
         rdf:resource="http://purl.org/dc/dcmitype/StillImage" /></cc:Work></rdf:RDF></metadata><defs
   id="defs39" />
<g
   id="g3">
	<g
   id="g5">
		<g
   id="g7">
			<path
   d="m 178.763,87.895 c 6.893,0 10.429,3.066 10.429,8.961 0,5.359 -5.555,8.582 -9.921,8.582 0,0 11.206,16.193 12.698,18.33 7.977,11.461 18.666,11.693 18.614,11.666 -11.049,-6.346 -16.384,-16.697 -24.16,-29.07 5.363,-2.063 8.191,-5.717 8.191,-10.313 0,-6.836 -5.657,-10.313 -16.794,-10.313 -2.829,0 -5.659,0.174 -8.544,0.174 -1.474,0 -2.947,-0.059 -4.54,-0.115 v 1.473 c 4.48,0.236 5.07,0.826 5.07,4.008 v 29.521 c 0,3.773 -0.708,4.715 -5.07,4.715 v 1.477 c 2.771,-0.123 5.656,-0.182 8.604,-0.182 2.649,0 5.067,0.059 7.249,0.182 v -1.533 c -0.118,0 -0.177,0 -0.235,0 -4.772,0 -4.892,-1.531 -4.892,-6.953 0,-0.234 0,-0.531 0,-0.768 l -0.013,-29.76 c 10e-4,-0.002 2.429,-0.082 3.314,-0.082 z"
   inkscape:connector-curvature="0"
   id="path9"
   style="fill:#010101" />
			<path
   d="m 0,128.898 c 5.133,0 5.965,-1.109 5.965,-5.551 V 88.605 C 5.965,84.859 5.272,84.164 0,83.888 v -1.734 c 2.981,0.211 6.104,0.211 9.362,0.211 3.674,0 6.795,-0.072 9.292,-0.211 v 1.734 c -5.824,0.207 -6.032,1.805 -6.032,7.35 v 12.76 H 40.361 V 88.605 c 0,-4.094 -0.209,-4.299 -5.896,-4.717 v -1.734 c 2.705,0.139 5.825,0.211 9.224,0.211 1.455,0 4.507,-0.072 9.292,-0.211 v 1.734 c -5.756,0.275 -5.894,1.73 -5.894,6.658 0,0.207 0,0.484 0,0.691 v 32.043 c 0,4.229 0.832,5.545 5.894,5.617 v 1.732 c -2.635,-0.141 -5.478,-0.209 -8.599,-0.209 -3.605,0 -6.865,0.068 -9.917,0.209 v -1.732 c 0.139,0 0.277,0 0.416,0 4.438,0 5.479,-1.18 5.479,-5.551 V 107.188 H 12.621 v 12.553 c 0,0.277 0,0.623 0,0.9 0,6.383 0.138,8.184 5.757,8.184 0.067,0 0.137,0 0.275,0 v 1.805 c -2.565,-0.139 -5.409,-0.209 -8.53,-0.209 -3.467,0 -6.863,0.07 -10.124,0.209 L 0,128.898 l 0,0 z"
   inkscape:connector-curvature="0"
   id="path11"
   style="fill:#010101" />
			<path
   d="m 52.757,125.516 c 4.36,0 5.126,-0.941 5.126,-4.717 V 91.277 c 0,-3.182 -0.648,-3.771 -5.126,-4.006 v -1.475 c 3.712,0.059 7.543,0.119 11.49,0.119 7.955,0 13.612,-0.119 17.09,-0.178 v 9.131 H 80.099 C 79.804,89.333 76.799,87.8 69.787,87.8 h -6.188 v 16.502 h 5.147 c 3.595,0 5.008,-1.121 5.066,-4.953 h 1.592 c -0.233,2.182 -0.354,3.949 -0.354,5.42 0,2.418 0.176,5.07 0.412,7.898 H 73.93 c 0,-0.176 0,-0.295 0,-0.473 0,-4.832 -1.886,-5.303 -7.365,-5.303 h -2.967 v 12.314 c 0,5.365 0.714,5.895 7.432,5.895 6.896,0 9.784,-1 12.14,-7.307 l 1.413,0.408 c -0.824,2.064 -1.766,5.133 -2.532,9.02 -11.903,-0.293 -18.452,-0.352 -21.337,-0.352 -2.652,0 -5.306,0.059 -7.956,0.117 v -1.47 l -0.001,0 z"
   inkscape:connector-curvature="0"
   id="path13"
   style="fill:#010101" />
			<path
   d="m 160.416,90.98 c -4.952,-4.008 -10.899,-5.066 -18.855,-5.066 -2.947,0 -5.836,0.119 -8.782,0.119 -1.71,0 -7.73,-0.178 -10.677,-0.178 -2.771,0 -5.188,-0.061 -7.19,-0.117 v 1.59 c 0.178,0 0.354,0 0.589,0 5.363,0 6.188,2.535 6.188,9.662 v 20.629 L 92.991,85.854 c -2.182,0.119 -3.831,0.119 -5.066,0.119 -0.825,0 -2.534,0 -5.01,-0.059 v 1.529 c 5.187,0.18 6.835,1.83 6.835,6.307 v 21.98 c 0,7.012 0,9.725 -5.716,9.725 -0.06,0 -0.119,0 -0.176,0 v 1.473 c 2.771,-0.119 5.187,-0.178 7.307,-0.178 2.239,0 5.066,0.059 8.366,0.178 v -1.531 c -6.599,0 -7.188,-2.359 -7.188,-9.605 V 93.574 l 30.584,34 h 1.297 v -31.17 c 0,-6.428 0.639,-9.133 4.795,-9.129 4.16,0.002 3.604,2.75 3.938,4.002 v 29.521 c 0,3.773 -0.705,4.717 -5.065,4.717 v 1.475 c 3.063,-0.117 5.773,-0.18 8.13,-0.18 1.945,0 4.127,0.18 6.543,0.18 16.202,0 25.221,-8.191 25.221,-20.805 -0.004,-6.011 -2.597,-11.316 -7.37,-15.205 z m -15.912,33.887 c -5.42,0 -5.95,-2.123 -5.95,-7.543 V 87.857 c 1.001,-0.057 1.943,-0.117 2.887,-0.117 12.67,0 20.035,7.367 20.035,19.209 0,10.963 -6.424,17.918 -16.972,17.918 z"
   inkscape:connector-curvature="0"
   id="path15"
   style="fill:#010101" />
			<path
   d="m 200.753,125.379 c 4.361,0 5.066,-0.807 5.066,-4.58 V 91.277 c 0,-3.182 -0.589,-3.771 -5.066,-4.006 v -1.475 c 2.413,0.119 5.066,0.178 7.953,0.178 2.655,0 5.244,0 7.896,-0.178 v 1.475 c -4.949,0.174 -5.125,1.531 -5.125,6.244 v 24.221 c 0,0.234 0,0.531 0,0.768 0,5.42 0.117,6.953 4.89,6.953 0.061,0 0.117,0 0.235,0 v 1.533 c -2.179,-0.117 -4.594,-0.18 -7.247,-0.18 -2.945,0 -5.834,-0.076 -8.604,0.041 v -1.473 h 0.002 z"
   inkscape:connector-curvature="0"
   id="path17"
   style="fill:#010101" />
			<path
   d="m 218.887,125.398 c 3.828,-0.18 5.598,-1.709 7.776,-4.539 l 10.725,-13.967 -12.021,-16.146 c -0.883,-1.18 -1.709,-2.064 -3.007,-2.65 -0.885,-0.412 -1.941,-0.65 -3.183,-0.768 v -1.475 c 1.945,0.236 4.423,0.293 7.485,0.293 3.3,0 6.188,-0.057 8.722,-0.293 v 1.418 c -2.595,0.057 -3.947,0.705 -3.947,1.59 0,0.705 0.766,1.943 2.119,3.77 l 7.308,9.842 6.307,-8.074 c 1.887,-2.477 2.827,-4.303 2.827,-5.301 0,-1.414 -1.001,-1.533 -3.712,-1.826 v -1.418 c 1.943,0.18 4.008,0.236 6.129,0.236 1.944,0 4.536,-0.057 7.838,-0.236 v 1.418 c -4.36,0.174 -6.481,2.178 -9.312,5.949 l -8.544,11.197 10.606,14.381 c 3.182,4.299 5.187,6.717 7.956,6.717 0.176,0 0.293,0 0.412,0 v 1.414 c -2.062,-0.059 -4.185,-0.119 -6.246,-0.119 -2.89,0 -5.776,0.063 -8.781,0.18 v -1.533 c 0.234,0 0.473,0 0.705,0 1.71,0 2.479,-0.238 2.479,-1.238 0,-0.59 -0.531,-1.475 -1.477,-2.711 l -9.19,-12.375 -8.189,11.018 c -1.355,1.828 -2.063,3.008 -2.063,3.713 0,1.182 1.239,1.596 3.831,1.596 0.176,0 0.412,0 0.59,0 v 1.531 c -2.356,-0.18 -5.008,-0.236 -7.84,-0.236 -3.533,0 -5.596,0 -6.302,0.059 v -1.417 l -0.001,0 z"
   inkscape:connector-curvature="0"
   id="path19"
   style="fill:#010101" />
		</g>
		<g
   id="g21">
			<rect
   width="52.062"
   height="4.5900002"
   x="104.268"
   y="0"
   id="rect23"
   style="fill:#010101" />
			<path
   d="m 104.106,7.37 v 24.849 c 0,0 0.712,14.083 8.979,25.718 6.552,9.219 17.224,13.833 17.224,13.833 0,0 10.676,-4.614 17.23,-13.833 8.265,-11.634 8.979,-25.718 8.979,-25.718 V 7.37 H 104.106 z M 121.217,50 h -12.07 V 35.972 c 0,0 0.163,-3.245 2.066,-5.924 1.511,-2.125 3.971,-3.188 3.971,-3.188 0,0 2.457,1.063 3.967,3.188 1.904,2.679 2.066,5.924 2.066,5.924 V 50 l 0,0 z m 15.267,0 H 124.411 V 35.972 c 0,0 0.162,-3.245 2.066,-5.924 1.51,-2.125 3.969,-3.188 3.969,-3.188 0,0 2.459,1.063 3.97,3.188 1.901,2.679 2.067,5.924 2.067,5.924 l 0.001,14.028 0,0 z m 15.115,0 H 139.525 V 35.972 c 0,0 0.165,-3.245 2.069,-5.924 1.511,-2.125 3.969,-3.188 3.969,-3.188 0,0 2.459,1.063 3.968,3.188 1.903,2.679 2.068,5.924 2.068,5.924 V 50 l 0,0 z"
   inkscape:connector-curvature="0"
   id="path25"
   style="fill:#f58329" />
			<g
   id="g27">
				<path
   d="m 118.787,19 c 0.098,0.087 0.323,0.174 0.441,0.174 0.107,0 0.118,0.108 0,0.108 h -2.479 c -0.118,0 -0.106,-0.108 0,-0.108 0.12,0 0.335,-0.087 0.442,-0.174 0.301,-0.236 0.355,-0.41 0.355,-0.959 v -2.25 c 0,-0.55 -0.056,-0.722 -0.355,-0.958 -0.107,-0.088 -0.322,-0.175 -0.442,-0.175 -0.106,0 -0.118,-0.107 0,-0.107 h 2.479 c 0.118,0 0.107,0.107 0,0.107 -0.118,0 -0.345,0.087 -0.441,0.175 -0.302,0.236 -0.355,0.439 -0.355,0.958 v 2.25 c 0,0.518 0.054,0.724 0.355,0.959 z"
   inkscape:connector-curvature="0"
   id="path29"
   style="fill:#ffffff" />
				<path
   d="m 127.912,17.784 c -0.053,0.634 -0.279,1.045 -1.021,1.421 -0.68,0.355 -1.769,0.163 -2.273,-0.128 -0.484,-0.28 -0.744,-0.731 -0.766,-1.173 -0.021,-0.853 0.42,-1.694 1.325,-1.973 -0.786,-0.593 -1.143,-1.476 -0.979,-2.273 0.107,-0.526 0.355,-0.829 0.926,-1.077 0.507,-0.215 1.401,-0.162 1.93,0.151 0.454,0.292 0.646,0.679 0.669,1.109 0.042,0.701 -0.334,1.456 -1.047,1.711 0.937,0.486 1.312,1.347 1.236,2.232 z m -2.337,-2.846 c 0.203,0.142 0.818,0.442 0.818,0.442 0.41,-0.192 0.615,-0.646 0.679,-1.022 0.063,-0.41 -0.054,-1.088 -0.496,-1.466 -0.388,-0.313 -0.894,-0.335 -1.271,-0.205 -0.322,0.119 -0.561,0.443 -0.592,0.722 -0.074,0.507 0.161,1.055 0.862,1.529 z m -0.861,3.364 c 0.228,0.504 0.636,0.754 1.013,0.818 0.388,0.064 0.914,-0.032 1.195,-0.323 0.303,-0.303 0.355,-0.669 0.292,-0.98 -0.175,-0.818 -1.443,-1.627 -1.789,-1.703 0,0 -0.441,0.195 -0.646,0.602 -0.226,0.443 -0.239,1.187 -0.065,1.586 z"
   inkscape:connector-curvature="0"
   id="path31"
   style="fill:#ffffff" />
				<path
   d="m 136.006,14.647 c -0.033,0.087 -1.221,4.086 -1.221,4.086 -1.028,2.979 -2.349,3.485 -2.349,3.485 0,0 0.727,-1.306 1.242,-2.775 l 1.26,-4.19 h -1.801 c -0.938,0 -1.229,0.119 -1.453,0.85 -0.012,0.032 -0.119,0.063 -0.088,-0.032 l 0.367,-1.423 4.043,-10e-4 0,0 z"
   inkscape:connector-curvature="0"
   id="path33"
   style="fill:#ffffff" />
				<path
   d="m 143.827,12.385 c -1.702,0.163 -3.458,1.982 -3.458,3.987 0.731,-0.71 1.528,-1.001 2.351,-0.797 0.548,0.128 1.056,0.539 1.27,1.164 0.174,0.506 0.095,1.228 -0.301,1.755 -0.563,0.733 -1.616,0.885 -2.102,0.841 -0.732,-0.043 -1.411,-0.323 -1.887,-1.132 -0.56,-0.981 -0.397,-2.425 0.098,-3.438 0.784,-1.595 3.112,-2.521 4.029,-2.5 0.056,10e-4 0.056,0.111 0,0.12 z m -3.458,4.666 c -0.043,0.271 0.12,1.24 0.569,1.638 0.421,0.367 0.928,0.419 1.306,0.312 0.494,-0.151 0.666,-0.398 0.808,-0.873 0.099,-0.378 -0.013,-1.196 -0.332,-1.563 -0.378,-0.408 -0.896,-0.483 -1.284,-0.419 -0.172,0.032 -0.271,0.063 -0.39,0.107 -0.364,0.163 -0.623,0.475 -0.677,0.798 z"
   inkscape:connector-curvature="0"
   id="path35"
   style="fill:#ffffff" />
			</g>
		</g>
	</g>
</g>
</svg>