<?xml version="1.0" encoding="UTF-8" standalone="no"?>
<!-- Created with Inkscape (http://www.inkscape.org/) -->

<svg
   xmlns:svg="http://www.w3.org/2000/svg"
   xmlns="http://www.w3.org/2000/svg"
   version="1.1"
   width="110"
   height="110"
   id="svg2">
  <defs
     id="defs4" />
  <g
     transform="translate(-509.80567,-494.80991)"
     id="layer1">
    <path
       d="m 540.35168,530.5176 c -0.4633,0.60577 -1.04376,1.15453 -1.15351,1.95799 -0.091,0.66667 0.27969,1.4359 -0.0582,2.01774 -0.30262,0.52103 -1.28445,0.32647 -1.60105,0.83913 -0.44025,0.71289 -0.29665,1.64928 -0.44497,2.47392 -0.55264,0.64401 -1.10529,1.28803 -1.65793,1.93205 -0.60438,1.45267 -2.04949,2.43592 -2.67459,3.87577 -1.15372,2.65749 -0.0526,1.99938 -0.82768,4.59761 -1.2338,4.13618 -0.98572,-0.12934 -0.95279,3.87578 0.311,1.34876 -1.1376,2.17487 -1.24973,3.36665 -0.055,0.5844 0.46033,1.11033 0.46934,1.69724 0.009,0.5825 -0.3537,1.11807 -0.41724,1.69716 -0.22646,2.06391 0.054,2.1487 0.73233,4.12063 1.63434,7.26244 -0.2857,-3.30178 -0.5383,4.01689 -0.0226,0.65438 0.71446,1.12496 0.87062,1.76083 0.16617,0.67666 -0.0232,1.39913 0.0748,2.08896 0.14476,1.01861 0.63948,1.88721 1.0692,2.79699 -0.41433,2.63758 0.42981,2.60868 1.82054,4.456 0.32188,0.42756 0.45013,0.99754 0.83044,1.37408 3.92205,3.8831 -0.84185,-2.24431 2.47484,2.27543 1.40761,3.39642 -0.10747,1.31257 3.00445,2.67665 0.67109,0.29417 1.16341,0.94031 1.85723,1.17596 1.79268,0.60887 2.86689,-0.17979 4.59546,0.75519 0.95092,0.51436 1.66775,1.37617 2.50163,2.06426 1.01257,0.15717 2.01303,0.47804 3.0377,0.47151 1.08424,-0.007 2.13925,-0.35611 3.21234,-0.51131 1.85635,-0.26849 4.51712,-0.5118 6.33858,-0.96375 1.10667,-0.27459 2.16295,-0.7243 3.25696,-1.04567 1.11488,-0.3275 2.24513,-0.60024 3.36769,-0.90036 6.45581,-0.54304 1.31159,0.49689 6.92622,-2.39113 1.07155,-0.55118 2.23707,-0.90017 3.37959,-1.28312 1.16701,-0.39116 2.47744,-0.42268 3.54373,-1.03745 11.21492,-6.46606 -4.36134,0.20347 6.26132,-4.05043 0.5831,-1.08623 0.87935,-2.38515 1.7493,-3.2587 0.70413,-0.70705 2.04349,-0.50837 2.72659,-1.23576 0.61612,-0.65606 2.00823,-5.78754 2.22246,-6.35831 3.255,-8.67242 0.10386,1.69076 2.89187,-8.17741 -0.0127,-7.23698 -0.30045,-3.55757 0.86884,-10.72006 0.26982,-1.65279 0.81623,-3.28479 0.80305,-4.95941 -0.0189,-2.39442 -1.45379,-6.0134 -1.85503,-8.39805 -0.17458,-1.03752 -0.13439,-2.09991 -0.20159,-3.14987 -0.80821,-0.32557 -1.47085,-4.98753 -1.99951,-5.65194 -0.31857,-0.40037 -1.02286,-0.33546 -1.35155,-0.72757 -2.82281,-3.36739 1.71319,-0.39167 -2.39401,-2.67478 -0.40323,-0.67781 -0.68036,-1.44876 -1.20968,-2.03342 -0.55632,-0.61447 -1.30931,-1.01775 -1.98605,-1.49637 -1.6325,-1.15459 -2.35454,-1.67292 -4.29896,-2.25451 -0.86256,-0.25799 -1.87294,-0.0861 -2.64426,-0.55041 -0.83555,-0.50302 -1.2847,-1.46773 -1.92705,-2.2016 -0.9095,-0.13198 -1.86473,-0.0821 -2.7285,-0.39592 -0.70548,-0.25633 -1.15908,-0.99952 -1.85891,-1.27091 -0.58126,-0.22541 -1.25071,-0.0516 -1.86238,-0.17219 -0.58207,-0.11476 -1.12541,-0.37873 -1.69908,-0.52998 -1.52232,-0.40138 -1.72084,-0.36609 -3.2359,-0.52463 -1.08368,0.16678 -1.79591,1.13033 -2.79288,1.46263 -0.40445,0.13481 -0.92159,-0.15073 -1.27605,0.0861 -0.42219,0.28211 -0.29752,1.20344 -0.79629,1.29862 -3.70445,0.70695 -0.13879,-2.58265 -2.67568,0.24297 -2.88044,-0.1566 -2.60129,3.35686 -5.12577,4.07507 -0.81168,0.23093 -1.74388,-0.33333 -2.53148,-0.0303 -0.7491,0.28824 -1.08964,1.19199 -1.73344,1.67133 -0.61476,0.45772 -1.34019,0.74404 -2.01029,1.11607 -2.52397,3.31035 -0.0688,1.0602 -3.12879,1.94909 -0.42605,0.12376 -0.73462,0.49875 -1.11694,0.72386 -0.40789,0.24016 -0.82614,0.46338 -1.25166,0.67075 -0.24643,0.1201 -0.57138,0.11298 -0.7616,0.31039 -0.19399,0.2013 -0.19619,0.52357 -0.29428,0.78535 -0.31525,-0.0567 -0.70936,-0.38634 -0.94575,-0.17018 -0.40427,0.36967 -0.0132,1.24014 -0.44016,1.58338 -0.27988,0.22502 -0.60827,0.38193 -0.91241,0.5729 -5.94081,8.37769 -17.78865,-0.0239 -11.84784,-8.40158 l 0,0 c 2.13577,-1.28976 3.02641,-2.76349 4.53768,-4.66974 0.9189,-0.604 2.26907,-1.42459 3.06065,-2.20921 0.4301,-0.42632 0.62794,-1.08765 1.13522,-1.4184 0.57125,-0.37246 1.35125,-0.28357 1.95662,-0.59752 3.62422,-1.87956 -0.31547,-0.97778 3.48092,-1.5586 7.45298,-2.34619 -4.68616,1.88717 3.10613,-2.52261 0.68571,-0.38805 1.69941,0.3085 2.36066,-0.11991 0.71959,-0.46621 0.58987,-1.71753 1.27373,-2.23474 1.16822,-0.88353 3.42065,0.73862 4.1547,-1.43074 0.59001,-0.68801 0.98288,-1.61472 1.77002,-2.06404 0.67168,-0.38341 1.55786,-0.0637 2.30535,-0.26227 0.78723,-0.2091 1.50658,-0.62012 2.25208,-0.94826 0.83768,-0.36872 1.58861,-1.02965 2.49692,-1.14208 1.93024,-0.23892 3.88358,1.43349 5.83381,0.11428 1.02342,-0.15674 2.0355,-0.50539 3.07026,-0.47023 0.94754,0.0322 1.83132,0.50157 2.7646,0.6685 0.99083,0.17724 2.00874,0.1757 2.99786,0.36225 3.13227,0.59073 5.91634,1.97551 8.9465,2.89638 3.38348,2.61631 1.56413,1.48197 5.4689,3.38559 0.76843,0.54796 1.12783,1.58772 1.94792,2.05481 0.90869,0.51756 2.12598,0.27217 3.03751,0.78471 1.86404,1.04812 2.68087,3.49927 4.81235,4.24265 5.46713,3.50986 1.01263,-0.15183 4.0806,4.76723 0.60793,0.97474 1.58542,1.67092 2.26774,2.5951 2.14807,2.90945 3.2184,6.32523 4.4107,9.69006 2.40639,6.78056 1.00603,1.36881 1.43534,9.06175 0.10388,1.86149 0.55652,3.69644 0.60668,5.56014 0.16608,6.17043 -1.78907,12.01441 -2.78958,18.03371 -2.95126,11.38638 -0.11925,1.1831 -3.44181,11.39316 -1.55421,4.77603 -1.20349,6.4482 -4.82784,10.19411 -2.16085,2.23334 -5.48141,3.09787 -7.66166,5.31158 -1.19732,1.115 -2.27668,2.37196 -3.59197,3.34501 -2.41713,1.7882 -5.49617,2.76226 -8.07595,4.23582 -1.15815,0.66154 -2.08805,1.71734 -3.31443,2.2417 -1.26449,0.54064 -2.68461,0.59813 -4.02692,0.89719 -1.36927,0.58584 -2.73855,1.17168 -4.10782,1.75752 -8.70212,2.99944 0.0755,0.4815 -8.20454,1.48682 -4.22102,0.5125 -4.78964,1.63314 -9.17834,1.88025 -3.82377,0.21529 -5.72125,-0.52818 -9.30427,-1.4242 -1.34426,-0.54602 -2.6463,-1.21044 -4.03278,-1.63806 -1.41244,-0.43563 -2.96611,-0.37978 -4.33305,-0.94213 -1.03249,-0.42476 -1.75493,-1.39216 -2.71719,-1.95828 -3.11895,-1.83495 -5.70242,-1.7446 -7.50496,-5.38942 -6.29619,-4.88588 0.92678,1.22719 -3.68106,-4.20625 -0.98882,-1.16598 -3.98174,-2.83546 -4.63531,-4.34755 -0.4126,-0.95458 -0.0923,-2.07782 -0.1385,-3.11674 -0.38459,-0.85194 -0.76918,-1.70389 -1.15377,-2.55583 -0.37974,-0.95312 -0.93938,-1.85304 -1.13922,-2.85938 -0.18348,-0.92398 0.0373,-1.88441 0.0102,-2.82604 -0.0218,-0.75564 -0.17602,-1.50672 -0.15677,-2.26242 0.0204,-0.8013 0.34859,-1.59067 0.27526,-2.38886 -0.13035,-1.41879 -1.31432,-2.60842 -1.3473,-4.0564 0.7875,-2.42211 0.97363,-2.06238 0.61229,-4.6105 -0.10851,-0.76518 -0.54261,-1.48624 -0.52272,-2.25883 0.0206,-0.79895 0.42307,-1.54145 0.64034,-2.31058 0.93462,-3.30838 0.7551,-1.50241 0.45815,-5.13162 2.44761,-8.76171 -0.98854,2.63888 2.04991,-4.95427 0.73882,-1.84634 0.89213,-3.8889 1.59861,-5.74786 0.37528,-0.98747 0.98647,-1.87715 1.33382,-2.87479 0.31813,-0.91372 0.43458,-1.8856 0.65187,-2.8284 1.19052,-1.64966 2.00199,-2.82233 3.28282,-4.40437 0.58468,-0.72218 1.36495,-1.30554 1.80607,-2.12335 0.30335,-0.56239 0.0876,-1.30355 0.3553,-1.88374 0.60341,-1.30753 1.12037,-1.51784 2.10967,-2.16973 6.06113,-7.57642 16.7758,0.99532 10.71467,8.57173 z"
       id="path4202"
       style="fill:#771b0a;fill-opacity:1;stroke:none" />
  </g>
</svg>
