<?xml version="1.0" encoding="UTF-8" standalone="no"?>
<!-- Created with Inkscape (http://www.inkscape.org/) -->

<svg
   xmlns:svg="http://www.w3.org/2000/svg"
   xmlns="http://www.w3.org/2000/svg"
   version="1.1"
   width="26.440655"
   height="26.440001"
   id="svg5774">
  <defs
     id="defs5776" />
  <g
     transform="translate(-169.63681,-663.28982)"
     id="layer1">
    <g
       transform="translate(-126.8571,-405.43198)"
       id="g6351">
      <path
         d="m 302.50053,1094.6343 14.04538,0.036 c -0.24873,-1.7808 -0.24575,-3.1833 -0.36334,-10.3071 -6.01587,0.3578 -12.98417,-0.6087 -14.64557,-0.5877 0.17147,3.2886 0.77477,7.6881 0.96353,10.8584 z"
         id="path5539"
         style="fill:#e5da19;fill-opacity:1;stroke:#000000;stroke-width:0.98299998;stroke-linecap:butt;stroke-linejoin:miter;stroke-miterlimit:4;stroke-opacity:1;stroke-dasharray:none" />
      <path
         d="m 301.40811,1083.8756 -4.28193,3.9461 c -0.16684,1.2656 -0.30167,1.8355 0.41979,2.4348 l 3.61026,-4.114 c 6.12002,-1.0733 3.72934,-1.6987 0.25188,-2.2669 z"
         id="path6313"
         style="fill:#eee765;fill-opacity:1;stroke:#000000;stroke-width:1px;stroke-linecap:butt;stroke-linejoin:miter;stroke-opacity:1" />
      <path
         d="m 317.13278,1083.8765 c -3.59429,1.8505 -10.22169,4.5677 -0.16792,2.5188 l 5.03755,3.9461 c 0.92148,-0.014 0.17136,-1.4603 -0.41979,-2.7707 l -4.44984,-3.6942 z"
         id="path6315"
         style="fill:#eee765;fill-opacity:1;stroke:#000000;stroke-width:1px;stroke-linecap:butt;stroke-linejoin:miter;stroke-opacity:1" />
      <path
         d="m 301.57603,1083.8756 -1.34335,6.5488 18.38712,-0.2519 -1.67919,-6.213 -15.36458,-0.084 z"
         id="path6317"
         style="fill:#eee765;fill-opacity:1;stroke:#000000;stroke-width:1px;stroke-linecap:butt;stroke-linejoin:miter;stroke-opacity:1" />
    </g>
  </g>
</svg>
