<?xml version="1.0" encoding="UTF-8" standalone="no"?>
<!-- Created with Inkscape (http://www.inkscape.org/) -->

<svg
   xmlns:svg="http://www.w3.org/2000/svg"
   xmlns="http://www.w3.org/2000/svg"
   version="1.1"
   width="26.440001"
   height="26.440001"
   id="svg5814">
  <defs
     id="defs5816" />
  <g
     transform="translate(-324.09515,-691.07909)"
     id="layer1">
    <path
       d="m 343.20443,716.42357 c 0.41289,-0.1242 0.45878,-0.2474 0.51011,-0.3711 l 1.26888,-14.67534 c -0.0955,-0.35051 0.37082,-2.15892 0.76799,-2.50943 0.52317,-0.73222 -0.59645,-1.21003 -0.70914,-2.17901 l 3.27617,0 c 0.18882,-0.99025 -0.30236,-3.70083 -0.60756,-4.44416 l -20.72039,-0.10291 c -0.38644,0.69154 -0.70464,3.85425 -0.72064,4.42209 l 3.55283,-0.0458 c -0.1201,0.8257 -0.68845,1.16575 -0.45335,1.99112 0.52,0.93499 0.54165,1.49892 0.58062,2.43375 l 1.50599,14.95739 c 0.17133,0.24462 0.31421,0.54627 0.60285,0.55639 l 11.14564,-0.031 z"
       id="path3008"
       style="fill:#eee765;fill-opacity:1;stroke:#000000;stroke-width:1.87590277;stroke-linecap:butt;stroke-linejoin:miter;stroke-miterlimit:4;stroke-opacity:1;stroke-dasharray:none" />
  </g>
</svg>
