<?xml version="1.0" encoding="UTF-8" standalone="no"?>
<!-- Created with Inkscape (http://www.inkscape.org/) -->

<svg
   xmlns:dc="http://purl.org/dc/elements/1.1/"
   xmlns:cc="http://creativecommons.org/ns#"
   xmlns:rdf="http://www.w3.org/1999/02/22-rdf-syntax-ns#"
   xmlns:svg="http://www.w3.org/2000/svg"
   xmlns="http://www.w3.org/2000/svg"
   xmlns:inkscape="http://www.inkscape.org/namespaces/inkscape"
   version="1.1"
   width="80"
   height="80"
   id="svg5774">
  <defs
     id="defs5776" />
  <metadata
     id="metadata5779">
    <rdf:RDF>
      <cc:Work
         rdf:about="">
        <dc:format>image/svg+xml</dc:format>
        <dc:type
           rdf:resource="http://purl.org/dc/dcmitype/StillImage" />
        <dc:title />
      </cc:Work>
    </rdf:RDF>
  </metadata>
  <g
     transform="translate(-169.63681,-609.72982)"
     id="layer1">
    <path
       d="m 230.65586,688.21018 c 1.79951,-11.97397 2.49337,-23.99737 3.87404,-48.35715 -20.72201,1.23247 -45.26043,-0.31098 -50.98324,-0.23866 0.59065,11.32778 1.77588,37.69517 2.42608,48.61545 28.68346,0.22046 15.15768,0 44.68312,0 z"
       inkscape:connector-curvature="0"
       id="path5539"
       style="fill:#d8cd18;fill-opacity:1;stroke:#000000;stroke-width:3.00002241;stroke-linecap:butt;stroke-linejoin:miter;stroke-miterlimit:4;stroke-opacity:1;stroke-dasharray:none" />
    <path
       d="m 182.56698,639.24488 -10.97455,12.32657 c -0.57468,4.35943 -1.03913,6.32249 1.44599,8.38681 l 8.3038,-13.08347 c 21.08076,-3.69704 13.20307,-5.67271 1.22476,-7.62991 z"
       inkscape:connector-curvature="0"
       id="path6313"
       style="fill:#e8dd30;fill-opacity:1;stroke:#000000;stroke-width:3.00002241;stroke-linecap:butt;stroke-linejoin:miter;stroke-miterlimit:4;stroke-opacity:1;stroke-dasharray:none" />
    <path
       d="m 236.19581,639.7837 c -12.38074,6.37416 -35.03064,15.01943 -0.39983,7.96187 l 11.0455,11.20033 c 2.73915,-2.65783 0.59026,-5.03008 -1.44599,-9.54384 z"
       inkscape:connector-curvature="0"
       id="path6315"
       style="fill:#e8dd30;fill-opacity:1;stroke:#000000;stroke-width:3.00002241;stroke-linecap:butt;stroke-linejoin:miter;stroke-miterlimit:4;stroke-opacity:1;stroke-dasharray:none" />
    <path
       d="m 182.78825,639.06631 -4.62725,22.55773 63.33551,-0.89422 -5.78406,-21.664 c -25.92502,0.18924 -29.44761,0.24095 -52.9242,4.9e-4 z"
       inkscape:connector-curvature="0"
       id="path6317"
       style="fill:#ece354;fill-opacity:1;stroke:#000000;stroke-width:3.00002241;stroke-linecap:butt;stroke-linejoin:miter;stroke-miterlimit:4;stroke-opacity:1;stroke-dasharray:none" />
  </g>
</svg>
